<?xml version="1.0" standalone="yes"?><svg version="1.1" xmlns = 'http://www.w3.org/2000/svg'><defs><font id='web' horiz-adv-x="1000">
<font-face font-family="web" descent="-410" cap-height="1432" units-per-em="2048" bbox="-77,-432,1868,1798" x-height="981" ascent="1434" />
<missing-glyph horiz-adv-x="410" d="" /><glyph horiz-adv-x="1280" d="M 475 -33 C 342 -33 239 4 165 80 C 91 155 55 248 55 360 C 55 506 108 636 214 750 C 320 863 450 920 604 920 C 668 920 733 908 801 886 C 869 863 923 839 965 815 C 973 871 977 927 977 983 C 977 1108 954 1206 908 1277 C 862 1348 800 1384 721 1384 C 635 1384 567 1374 518 1355 C 468 1336 419 1311 369 1280 L 324 1444 C 374 1474 429 1498 491 1518 C 553 1538 629 1548 721 1548 C 877 1548 991 1496 1063 1393 C 1135 1290 1171 1149 1171 969 C 1171 691 1103 455 967 260 C 831 64 667 -33 475 -33 Z M 487 127 C 717 127 870 312 944 684 C 922 706 881 727 823 748 C 764 769 705 780 647 780 C 520 780 424 738 360 654 C 296 570 264 476 264 373 C 264 300 282 241 318 195 C 354 149 411 127 487 127 Z" unicode="∂" />
<glyph horiz-adv-x="1536" d="M 76 0 L 651 1536 L 885 1536 L 1456 0 L 76 0 Z M 352 147 L 1163 147 L 752 1255 L 352 147 Z" unicode="∆" />
<glyph horiz-adv-x="690" d="M 360 0 C 272 0 200 27 144 82 C 88 136 61 205 61 287 L 61 1145 C 61 1227 89 1295 145 1351 C 201 1406 272 1434 360 1434 C 448 1434 518 1406 570 1352 C 622 1298 649 1229 649 1145 L 649 1059 C 649 1047 641 1040 625 1037 C 609 1033 581 1032 539 1032 C 505 1032 479 1032 462 1033 C 444 1034 436 1041 436 1055 L 436 1137 C 436 1157 429 1176 415 1194 C 401 1212 382 1221 360 1221 C 336 1221 316 1211 302 1191 C 288 1171 281 1142 281 1106 L 281 985 L 281 956 C 281 946 284 939 291 933 C 298 927 306 924 315 924 L 338 924 L 446 926 C 457 926 464 920 468 908 C 471 896 473 877 473 852 C 473 823 472 802 471 790 C 469 778 463 772 451 772 L 336 772 C 306 772 289 770 285 768 C 276 764 271 758 271 751 C 270 743 270 735 270 725 C 270 704 272 692 278 688 C 284 684 293 682 305 682 L 440 682 C 453 682 461 676 464 666 C 467 655 469 641 469 623 C 469 589 467 565 465 552 C 462 538 454 532 442 532 L 346 532 C 316 532 298 529 291 523 C 284 517 281 511 281 503 L 281 336 C 281 297 287 267 301 247 C 315 227 334 217 360 217 C 382 217 401 224 415 239 C 429 254 436 275 436 301 L 436 395 C 436 405 440 412 449 415 C 458 418 472 420 490 420 L 545 420 C 595 420 625 417 635 413 C 644 409 649 399 649 383 L 649 289 C 649 200 623 130 573 78 C 523 26 452 0 360 0 Z" unicode="€" />
<glyph horiz-adv-x="1536" d="M 332 0 L 332 1348 L 80 1348 L 80 1524 L 1456 1524 L 1456 1348 L 1212 1348 L 1212 0 L 1004 0 L 1004 1356 L 541 1356 L 541 0 L 332 0 Z" unicode="∏" />
<glyph horiz-adv-x="1151" d="M 1083 1524 L 1083 1343 L 332 1343 L 797 784 L 303 188 L 1079 188 L 1079 0 L 41 0 L 41 172 L 559 788 L 68 1380 L 68 1524 L 1083 1524 Z" unicode="∑" />
<glyph horiz-adv-x="1536" d="M 201 692 L 201 889 L 1335 889 L 1335 692 L 201 692 Z" unicode="−" />
<glyph horiz-adv-x="1053" d="M 1015 464 C 1015 445 998 436 965 436 L 787 436 L 269 438 L 106 438 C 90 438 75 441 61 448 C 47 454 41 463 41 473 L 44 520 L 41 567 C 41 586 70 596 129 596 L 270 596 L 517 595 L 764 595 L 917 596 C 942 596 963 593 981 587 C 999 581 1008 573 1008 563 L 1008 543 C 1008 511 1010 487 1014 469 L 1015 464 Z" unicode="–" />
<glyph horiz-adv-x="1642" d="M 1603 464 C 1603 446 1586 438 1552 438 L 106 438 C 90 438 75 441 61 448 C 47 454 41 463 41 473 L 44 520 L 41 567 C 41 586 70 596 129 596 L 442 596 L 811 595 L 1330 595 L 1505 596 C 1529 596 1550 593 1568 587 C 1586 581 1595 573 1595 563 L 1595 543 C 1595 507 1597 483 1602 469 L 1603 464 Z" unicode="—" />
<glyph horiz-adv-x="647" d="M 49 0 C -5 0 -33 7 -33 23 L -31 31 C 125 461 295 920 477 1407 C 483 1426 518 1436 580 1436 C 611 1436 635 1432 653 1426 C 670 1420 679 1412 679 1402 L 678 1395 L 170 33 C 162 11 121 0 49 0 Z" unicode="∕" />
<glyph horiz-adv-x="324" d="M 272 1130 C 272 1090 263 1057 245 1033 C 227 1009 203 997 173 997 C 132 997 101 1007 81 1028 C 61 1049 51 1076 51 1108 C 51 1164 58 1211 74 1249 C 95 1305 118 1351 144 1385 C 169 1419 193 1437 217 1437 C 233 1437 241 1428 242 1412 C 242 1388 234 1354 219 1310 C 209 1280 204 1262 204 1254 C 204 1239 212 1228 228 1222 L 242 1212 C 262 1196 272 1168 272 1130 Z" unicode="‘" />
<glyph horiz-adv-x="324" d="M 272 1325 C 272 1283 269 1250 263 1225 C 257 1200 244 1168 226 1128 C 208 1088 188 1056 167 1032 C 145 1008 125 996 106 996 C 90 996 82 1004 82 1021 C 82 1043 90 1078 106 1124 C 116 1152 121 1171 121 1180 C 121 1192 112 1202 96 1211 L 82 1221 C 61 1236 51 1263 51 1303 C 51 1343 59 1375 77 1399 C 95 1423 119 1436 151 1436 C 188 1436 217 1425 239 1405 C 261 1385 272 1358 272 1325 Z" unicode="’" />
<glyph horiz-adv-x="324" d="M 272 131 C 272 75 264 29 250 -8 C 228 -66 205 -111 179 -145 C 153 -179 130 -196 108 -196 C 90 -196 82 -187 82 -171 C 82 -149 90 -115 106 -69 C 116 -40 121 -21 121 -13 C 121 0 112 10 96 18 L 82 27 C 61 42 51 69 51 109 C 51 149 59 181 77 205 C 95 229 119 242 151 242 C 188 242 217 231 239 211 C 261 191 272 164 272 131 Z" unicode="‚" />
<glyph horiz-adv-x="586" d="M 535 1130 C 535 1089 525 1057 507 1033 C 489 1009 465 997 435 997 C 394 997 363 1007 343 1028 C 323 1049 312 1076 311 1108 C 311 1164 318 1211 334 1249 C 355 1305 379 1351 405 1385 C 431 1419 455 1437 477 1437 C 493 1437 501 1428 502 1412 C 502 1389 494 1355 479 1310 C 469 1282 465 1263 465 1253 C 465 1239 473 1228 489 1222 L 502 1212 C 524 1194 535 1167 535 1130 Z M 272 1130 C 272 1090 263 1057 245 1033 C 227 1009 203 997 173 997 C 132 997 101 1007 81 1028 C 61 1049 51 1076 51 1108 C 51 1164 58 1211 74 1249 C 95 1305 118 1351 144 1385 C 169 1419 193 1437 217 1437 C 233 1437 241 1428 242 1412 C 242 1388 234 1354 219 1310 C 209 1280 204 1262 204 1254 C 204 1239 212 1228 228 1222 L 242 1212 C 262 1196 272 1168 272 1130 Z" unicode="“" />
<glyph horiz-adv-x="586" d="M 535 1323 C 535 1283 531 1251 525 1225 C 519 1199 506 1167 487 1127 C 468 1087 448 1056 427 1032 C 406 1008 386 996 368 996 C 352 996 344 1004 344 1021 C 344 1045 351 1079 367 1123 C 376 1149 381 1168 381 1179 C 381 1192 373 1202 358 1210 L 344 1219 C 334 1227 326 1238 320 1253 C 314 1268 311 1284 311 1300 C 311 1340 319 1373 337 1397 C 355 1421 379 1434 411 1434 C 448 1434 478 1423 500 1403 C 522 1383 533 1356 535 1323 Z M 272 1323 C 272 1267 264 1221 250 1184 C 228 1126 205 1080 179 1046 C 153 1012 130 996 108 996 C 90 996 82 1004 82 1021 C 82 1043 90 1077 106 1123 C 116 1151 121 1170 121 1179 C 121 1191 112 1202 96 1210 L 82 1219 C 61 1234 51 1261 51 1300 C 51 1340 59 1373 77 1397 C 95 1421 119 1434 151 1434 C 188 1434 217 1423 239 1403 C 261 1383 272 1356 272 1323 Z" unicode="”" />
<glyph horiz-adv-x="586" d="M 535 131 C 535 91 531 59 525 33 C 519 7 506 -24 487 -64 C 468 -104 448 -135 427 -159 C 406 -183 386 -195 368 -196 C 352 -196 344 -187 344 -171 C 344 -147 351 -113 367 -69 C 376 -42 381 -23 381 -13 C 381 0 373 10 358 18 L 344 27 C 322 44 311 71 311 109 C 311 149 319 181 337 205 C 355 229 379 242 411 242 C 448 242 478 231 500 211 C 522 191 533 164 535 131 Z M 272 131 C 272 75 264 29 250 -8 C 228 -66 205 -111 179 -145 C 153 -179 130 -196 108 -196 C 90 -196 82 -187 82 -171 C 82 -149 90 -115 106 -69 C 116 -40 121 -21 121 -13 C 121 0 112 10 96 18 L 82 27 C 61 42 51 69 51 109 C 51 149 59 181 77 205 C 95 229 119 242 151 242 C 188 242 217 231 239 211 C 261 191 272 164 272 131 Z" unicode="„" />
<glyph horiz-adv-x="410" d="" unicode=" " />
<glyph horiz-adv-x="362" d="M 291 424 C 291 408 287 399 279 395 C 271 391 256 388 235 388 C 213 387 194 387 176 387 C 141 387 118 387 106 389 C 94 390 85 392 80 395 C 74 398 72 406 72 420 L 72 1397 C 72 1413 77 1424 88 1428 C 98 1432 128 1434 176 1434 C 216 1434 243 1433 257 1432 C 270 1430 279 1428 284 1424 C 288 1420 291 1410 291 1395 L 291 424 Z M 171 -6 C 142 -6 119 0 103 12 C 86 24 75 42 69 66 C 63 90 60 109 60 124 C 60 159 71 190 94 217 C 117 243 143 257 173 257 C 189 257 209 253 232 247 C 255 240 272 230 284 218 C 296 205 302 188 303 167 L 301 117 C 299 81 286 52 263 29 C 240 5 209 -6 171 -6 Z" unicode="!" />
<glyph horiz-adv-x="492" d="M 442 1399 L 440 1145 C 440 1133 436 1122 430 1112 C 424 1102 416 1097 407 1097 L 359 1101 L 309 1098 C 299 1098 292 1102 288 1112 C 284 1122 283 1138 283 1161 L 284 1250 L 284 1291 L 283 1352 C 283 1373 285 1392 290 1408 C 295 1424 303 1432 315 1432 L 337 1432 C 367 1432 392 1434 410 1438 L 418 1439 C 423 1439 428 1437 434 1434 C 439 1431 442 1419 442 1399 Z M 211 1399 L 209 1145 C 209 1133 205 1122 199 1112 C 193 1102 185 1097 176 1097 L 128 1101 L 78 1098 C 67 1098 60 1102 56 1112 C 52 1122 51 1138 51 1161 L 52 1250 L 52 1291 L 51 1352 C 51 1400 62 1426 84 1432 C 116 1436 147 1438 178 1438 C 192 1438 201 1435 205 1429 C 209 1423 211 1413 211 1399 Z" unicode="&#x22;" />
<glyph horiz-adv-x="987" d="M 747 825 L 748 815 C 748 812 753 811 763 811 L 901 813 C 907 813 912 805 918 790 C 924 774 927 758 927 742 C 927 724 924 715 918 715 C 899 711 862 707 807 703 C 761 699 735 696 731 694 C 723 688 715 656 705 598 C 692 530 681 484 672 461 C 668 452 649 448 616 448 C 598 448 582 449 566 452 C 550 455 542 460 541 467 L 541 471 C 541 481 545 503 553 537 C 573 623 583 671 583 681 L 582 686 C 578 694 532 699 445 699 C 357 699 309 694 303 686 C 298 681 292 654 284 604 C 274 546 264 505 254 481 C 250 471 227 465 187 465 C 145 465 125 470 125 481 L 124 494 C 124 520 133 573 153 653 L 157 680 C 157 684 155 688 151 691 C 147 694 135 696 115 697 L 81 696 C 67 696 52 698 35 702 C 23 703 18 719 18 749 C 18 763 20 777 24 791 C 28 804 35 812 45 814 C 55 816 64 818 72 818 L 144 812 C 152 812 160 815 168 821 C 175 826 188 871 208 957 C 227 1043 237 1100 237 1129 L 236 1137 C 230 1143 209 1147 174 1147 L 127 1146 C 113 1146 99 1147 86 1149 C 73 1151 65 1156 62 1166 C 59 1175 58 1185 58 1197 C 58 1209 59 1222 63 1236 C 66 1249 71 1257 78 1260 C 91 1263 105 1265 119 1265 L 218 1260 C 230 1260 240 1262 248 1268 C 261 1279 272 1317 282 1382 L 291 1436 C 293 1446 316 1451 360 1451 C 402 1449 424 1443 424 1432 L 400 1290 L 399 1282 C 399 1274 400 1270 403 1268 C 409 1260 455 1256 539 1256 C 567 1256 595 1257 625 1260 C 654 1262 670 1265 674 1268 C 680 1272 686 1293 691 1329 L 698 1381 L 707 1436 C 708 1446 729 1451 771 1451 C 811 1449 831 1443 831 1432 L 832 1411 C 832 1396 829 1369 823 1330 L 815 1272 L 817 1264 C 821 1258 837 1256 865 1256 L 943 1260 C 948 1260 953 1252 959 1236 C 964 1220 967 1203 967 1186 C 967 1171 964 1162 960 1160 C 955 1157 923 1154 864 1152 C 829 1150 809 1146 803 1139 C 797 1133 787 1086 771 997 C 755 907 747 850 747 825 Z M 657 1139 C 655 1143 639 1146 610 1149 C 581 1151 551 1153 519 1153 C 429 1151 381 1147 375 1139 C 368 1133 357 1087 341 999 C 325 911 317 853 317 825 L 319 813 C 323 805 368 801 456 801 C 541 801 588 805 596 813 C 598 817 601 826 605 842 C 609 857 613 875 617 895 C 621 915 627 947 635 992 C 643 1036 650 1085 657 1139 Z" unicode="#" />
<glyph horiz-adv-x="696" d="M 647 287 C 647 220 631 164 600 118 C 568 72 525 39 469 18 C 462 16 459 7 459 -8 L 459 -111 C 459 -128 420 -137 342 -137 C 274 -137 240 -128 240 -111 L 240 -12 C 240 -8 239 -2 239 5 C 238 13 234 18 227 20 C 173 35 131 67 99 116 C 67 165 51 222 51 287 L 51 395 C 51 405 55 412 65 416 C 74 420 104 422 156 422 C 198 422 228 421 246 419 C 264 417 274 410 274 399 L 274 319 C 274 281 279 251 289 230 C 299 209 319 199 350 199 C 402 199 428 234 428 305 C 428 369 424 415 417 443 C 409 471 395 502 374 536 C 352 570 324 606 288 645 C 238 699 195 750 159 799 C 122 848 95 895 79 939 C 63 983 55 1036 55 1100 L 55 1155 C 55 1215 70 1269 102 1315 C 134 1361 175 1393 227 1413 C 235 1416 240 1426 240 1444 L 240 1556 C 240 1564 247 1569 261 1573 C 275 1577 302 1579 342 1579 C 418 1579 457 1573 457 1563 L 457 1438 C 457 1422 461 1412 471 1407 C 523 1385 563 1351 591 1305 C 619 1259 633 1209 633 1155 L 633 1059 C 633 1050 625 1045 609 1044 C 593 1042 569 1042 535 1042 C 495 1042 466 1043 446 1045 C 426 1047 416 1052 416 1061 L 416 1151 C 416 1175 409 1197 395 1215 C 381 1233 364 1243 344 1243 C 322 1243 305 1234 291 1216 C 277 1198 270 1177 270 1153 L 270 1065 C 270 1043 275 1021 284 1000 C 293 978 306 956 322 933 C 338 910 374 869 428 811 C 488 747 533 691 563 643 C 593 595 614 547 627 499 C 640 451 647 381 647 287 Z" unicode="$" />
<glyph horiz-adv-x="799" d="M 356 1069 C 356 1026 342 990 315 962 C 287 934 251 920 207 920 C 164 920 128 934 100 963 C 71 991 57 1027 57 1069 L 57 1286 C 57 1328 71 1364 100 1392 C 129 1420 165 1434 207 1434 C 251 1434 286 1420 314 1392 C 342 1364 356 1328 356 1286 L 356 1069 Z M 127 0 C 81 0 59 7 59 22 L 61 33 C 291 652 459 1107 563 1399 C 571 1421 595 1432 635 1432 C 660 1432 679 1428 693 1422 C 706 1416 713 1409 713 1401 L 711 1393 C 518 857 351 403 211 33 C 205 18 195 9 179 5 C 163 1 145 0 127 0 Z M 737 147 C 737 105 723 70 696 42 C 668 14 632 0 588 0 C 545 0 510 14 482 43 C 454 72 440 107 440 147 L 440 367 C 440 407 453 441 481 469 C 509 497 544 512 588 512 C 631 512 667 498 695 471 C 723 444 737 409 737 367 L 737 147 Z M 240 1092 L 240 1266 C 240 1302 229 1321 207 1321 C 183 1321 172 1302 172 1266 L 172 1092 C 172 1054 183 1036 207 1036 C 229 1036 240 1054 240 1092 Z M 623 170 L 623 346 C 623 382 611 401 588 401 C 566 401 555 382 555 346 L 555 170 C 555 133 566 115 588 115 C 611 115 623 133 623 170 Z" unicode="%" />
<glyph horiz-adv-x="852" d="M 734 0 L 659 0 L 623 -2 C 602 -2 589 6 585 24 L 575 47 C 569 60 565 69 563 75 C 560 80 557 83 553 83 L 549 82 L 519 58 C 475 19 416 0 342 0 C 294 0 249 11 207 34 C 165 57 131 90 106 133 C 80 175 68 227 68 287 C 68 355 73 415 83 465 C 93 515 106 558 121 595 C 136 631 161 673 195 721 L 199 737 L 197 750 C 178 784 165 813 157 837 C 149 861 144 876 141 884 C 137 891 133 899 129 907 C 125 915 119 933 112 960 C 105 987 99 1015 95 1043 C 91 1071 88 1107 88 1151 C 88 1209 100 1259 124 1301 C 148 1343 181 1375 223 1399 C 265 1422 312 1434 362 1434 C 405 1434 448 1422 490 1398 C 532 1374 566 1341 591 1299 C 616 1257 629 1207 629 1151 C 629 1083 616 1020 591 962 C 566 903 526 838 472 768 L 444 731 L 438 711 L 440 702 L 494 588 C 506 558 524 523 547 483 L 553 475 L 554 475 L 559 479 C 564 487 567 513 567 557 L 565 635 C 565 642 571 646 585 648 C 599 650 620 651 649 651 C 719 651 754 647 754 639 L 754 582 C 754 510 748 445 737 387 C 732 363 723 335 709 303 C 695 272 688 254 688 250 C 688 241 702 211 731 160 L 766 91 C 790 45 802 17 802 8 C 802 2 779 0 734 0 Z M 418 1163 C 418 1187 411 1208 399 1226 C 386 1244 369 1253 348 1253 C 334 1253 321 1248 309 1240 C 297 1231 288 1219 282 1203 C 276 1187 273 1163 273 1130 C 273 1090 278 1047 290 1001 C 301 955 310 925 318 913 C 325 901 332 895 340 895 C 353 895 367 910 383 942 C 398 974 407 1002 410 1026 C 413 1050 415 1074 416 1099 C 417 1123 418 1145 418 1163 Z M 309 528 L 301 524 C 279 500 266 470 260 432 C 254 394 252 351 252 301 C 252 277 260 254 278 231 C 296 208 315 197 336 197 C 356 197 374 200 390 206 C 406 212 423 225 440 246 C 444 256 447 263 447 267 L 446 276 L 412 353 L 375 426 C 355 469 338 501 322 522 L 309 528 Z" unicode="&#x26;" />
<glyph horiz-adv-x="260" d="M 211 1399 L 209 1145 C 209 1133 205 1122 199 1112 C 193 1102 185 1097 176 1097 L 128 1101 L 78 1098 C 67 1098 60 1102 56 1112 C 52 1122 51 1138 51 1161 L 52 1250 L 52 1291 L 51 1352 C 51 1373 53 1392 59 1408 C 64 1424 72 1432 84 1432 L 105 1432 C 137 1432 162 1434 178 1438 L 187 1439 C 192 1439 197 1437 203 1434 C 208 1431 211 1419 211 1399 Z" unicode="'" />
<glyph horiz-adv-x="428" d="M 408 1522 L 408 1498 C 408 1452 403 1430 395 1430 C 355 1430 324 1418 304 1395 C 284 1372 274 1343 274 1307 L 274 133 C 274 97 283 67 302 43 C 320 19 351 8 395 8 C 402 8 406 -13 406 -56 L 406 -80 L 407 -110 C 407 -156 403 -180 395 -180 C 179 -180 72 -79 72 123 L 72 1313 C 72 1513 179 1614 395 1614 C 404 1614 409 1592 409 1549 L 408 1522 Z" unicode="(" />
<glyph horiz-adv-x="428" d="M 356 123 C 356 -79 248 -180 33 -180 C 27 -180 23 -167 23 -143 L 23 -80 L 23 -56 C 23 -13 26 8 33 8 C 75 8 106 19 124 43 C 142 67 152 97 152 133 L 152 1307 C 152 1343 142 1372 122 1395 C 102 1418 72 1430 33 1430 C 24 1430 20 1452 20 1498 L 20 1522 L 20 1549 C 20 1577 21 1594 23 1602 C 25 1610 28 1614 33 1614 C 135 1614 215 1589 271 1540 C 327 1491 356 1415 356 1313 L 356 123 Z" unicode=")" />
<glyph horiz-adv-x="731" d="M 485 1188 C 485 1179 497 1167 522 1151 C 546 1135 577 1118 614 1102 C 623 1098 628 1090 628 1080 C 628 1064 621 1048 609 1032 C 596 1016 583 1009 570 1009 L 557 1012 C 507 1038 478 1052 469 1055 C 460 1058 454 1060 450 1060 C 444 1060 439 1058 434 1055 C 426 1049 423 1038 423 1024 L 428 946 C 428 939 421 933 409 929 C 397 924 382 922 364 922 C 346 922 330 924 318 928 C 305 932 299 938 299 946 L 303 1007 C 303 1038 298 1058 289 1067 L 281 1069 C 270 1069 247 1059 213 1039 C 183 1022 167 1014 163 1014 C 149 1014 135 1025 121 1047 C 106 1069 99 1090 99 1108 C 99 1118 103 1125 111 1128 L 160 1145 C 220 1163 250 1178 250 1190 C 250 1198 221 1217 165 1245 C 145 1254 130 1262 120 1268 C 110 1274 106 1283 106 1296 C 106 1312 111 1328 122 1343 C 133 1358 145 1366 158 1366 C 162 1366 167 1364 172 1362 C 230 1326 266 1308 278 1308 L 289 1311 C 295 1313 298 1324 298 1343 L 298 1356 L 289 1441 C 289 1448 296 1454 312 1458 C 328 1462 345 1465 365 1465 C 383 1464 400 1461 416 1457 C 432 1452 440 1445 440 1437 L 429 1327 C 429 1307 434 1297 444 1297 C 455 1297 480 1311 518 1341 C 545 1361 561 1371 567 1371 C 579 1371 592 1359 606 1335 C 620 1311 627 1291 627 1274 C 627 1265 624 1259 618 1257 C 554 1233 515 1217 503 1209 C 491 1201 485 1194 485 1188 Z" unicode="*" />
<glyph horiz-adv-x="502" d="M 302 430 L 305 313 C 305 309 297 306 281 304 C 265 302 245 301 221 301 C 209 301 203 302 203 305 C 198 314 196 340 196 384 C 196 424 194 446 190 451 C 186 454 179 456 169 457 L 89 455 L 55 457 C 49 458 47 476 47 511 C 47 544 50 562 57 565 L 89 568 L 167 566 C 179 566 187 568 189 574 C 191 579 193 597 193 628 C 193 666 194 690 197 702 C 198 708 216 711 251 711 C 284 709 302 706 305 700 L 308 669 L 305 590 C 305 576 307 568 313 566 C 318 564 334 563 360 563 L 430 565 C 433 565 436 557 438 541 C 440 525 442 505 443 481 C 442 469 440 463 438 463 C 430 459 405 457 365 457 C 343 457 328 456 319 455 C 309 454 304 451 303 447 C 302 443 302 437 302 430 Z" unicode="+" />
<glyph horiz-adv-x="332" d="M 274 131 C 274 75 266 29 252 -8 C 232 -60 208 -105 182 -141 C 155 -177 130 -196 108 -196 C 92 -196 84 -187 84 -171 C 84 -147 91 -113 107 -69 C 116 -42 121 -23 121 -13 C 121 0 113 10 98 18 L 84 27 C 62 43 51 71 51 109 C 51 149 59 181 77 205 C 95 229 119 242 151 242 C 188 242 217 232 239 212 C 260 192 272 165 274 131 Z" unicode="," />
<glyph horiz-adv-x="463" d="M 429 461 C 429 455 427 450 424 444 C 421 438 409 436 389 436 L 88 438 C 76 438 65 441 55 447 C 45 453 40 461 40 471 L 44 520 L 41 569 C 41 579 45 586 55 590 C 65 594 81 596 104 596 L 256 595 L 343 596 C 364 596 382 593 398 588 C 414 582 422 574 422 563 L 422 543 C 422 511 424 487 428 469 L 429 461 Z" unicode="-" />
<glyph horiz-adv-x="332" d="M 155 -9 C 123 -9 97 2 79 25 C 60 47 51 79 51 121 C 51 157 60 187 80 212 C 100 236 125 249 157 249 C 179 249 201 245 222 237 C 243 229 258 218 268 202 C 278 186 283 163 283 131 C 283 81 272 46 251 24 C 229 2 197 -9 155 -9 Z" unicode="." />
<glyph horiz-adv-x="524" d="M 123 0 C 90 0 68 2 57 6 C 46 10 41 17 41 26 L 281 1407 C 283 1426 317 1436 383 1436 C 449 1436 483 1424 483 1400 L 363 707 L 244 33 C 240 11 200 0 123 0 Z" unicode="/" />
<glyph horiz-adv-x="731" d="M 668 295 C 668 199 641 126 588 76 C 534 25 462 0 371 0 C 283 0 212 26 157 79 C 101 132 74 204 74 295 L 74 1141 C 74 1227 101 1298 157 1352 C 212 1406 283 1434 371 1434 C 458 1434 529 1407 585 1354 C 640 1300 668 1229 668 1141 L 668 295 Z M 446 340 L 446 1100 C 446 1138 439 1168 426 1190 C 413 1212 395 1223 371 1223 C 345 1223 326 1212 313 1190 C 299 1168 293 1138 293 1100 L 293 340 C 293 258 319 217 371 217 C 396 217 415 226 427 245 C 439 264 446 296 446 340 Z" unicode="0" />
<glyph horiz-adv-x="627" d="M 586 92 C 586 30 578 0 563 0 L 70 0 C 56 0 48 8 45 26 C 42 44 41 65 41 90 C 41 127 43 153 49 168 C 54 182 62 190 74 190 L 180 190 C 190 190 197 193 201 199 C 205 205 207 224 207 256 L 207 1117 C 207 1139 204 1151 199 1151 C 193 1151 186 1149 179 1145 C 171 1141 164 1136 157 1130 C 149 1124 142 1119 135 1113 C 127 1107 121 1103 117 1100 C 96 1079 81 1069 71 1069 C 66 1069 63 1073 61 1081 C 56 1118 54 1156 54 1194 L 57 1229 C 59 1241 77 1261 112 1291 L 139 1313 C 151 1323 163 1343 176 1374 C 187 1400 196 1415 203 1417 C 239 1428 305 1434 401 1434 C 416 1434 424 1420 424 1392 L 424 256 C 424 228 425 212 427 206 C 429 200 433 196 439 194 C 445 191 453 190 465 190 L 567 190 C 576 190 581 180 583 161 C 585 141 586 118 586 92 Z" unicode="1" />
<glyph horiz-adv-x="692" d="M 641 111 C 641 69 638 40 632 24 C 626 8 618 0 606 0 L 119 0 L 92 0 C 87 0 82 1 78 3 C 73 5 68 8 63 14 C 57 20 55 28 55 39 L 55 57 L 55 360 C 55 442 77 511 123 567 L 229 694 C 261 731 294 772 328 817 C 362 862 386 909 402 959 C 418 1009 426 1062 426 1118 C 426 1157 419 1185 406 1201 C 393 1217 374 1225 348 1225 C 324 1225 306 1215 294 1197 C 282 1178 276 1152 276 1118 L 276 1047 C 276 1029 238 1020 164 1020 C 122 1020 94 1022 82 1027 C 69 1031 63 1039 63 1049 L 63 1163 C 63 1239 89 1304 141 1356 C 193 1408 262 1434 348 1434 C 436 1434 507 1409 560 1361 C 612 1312 639 1247 639 1165 L 639 1014 C 639 911 588 801 487 684 L 311 475 C 286 443 274 408 274 371 L 274 276 C 274 254 275 241 277 237 C 279 233 281 230 285 226 C 289 222 293 220 298 219 C 303 217 314 217 332 217 L 610 217 C 630 217 641 181 641 111 Z" unicode="2" />
<glyph horiz-adv-x="692" d="M 641 287 C 641 202 613 133 557 80 C 501 26 430 0 344 0 C 260 0 191 26 135 80 C 79 134 51 203 51 287 L 51 403 C 51 430 86 444 158 444 C 236 444 276 431 276 406 L 276 330 C 276 292 282 264 295 244 C 307 224 324 215 346 215 C 368 215 385 225 398 247 C 411 268 418 296 418 330 L 418 586 C 418 617 411 642 398 660 C 385 678 362 687 328 687 C 314 687 304 683 299 676 L 287 668 L 281 667 C 268 667 250 677 226 699 L 205 715 C 199 717 188 726 172 743 C 156 760 149 772 149 780 L 150 784 C 198 871 240 944 278 1003 L 383 1171 C 391 1185 395 1196 395 1202 C 395 1207 392 1213 387 1221 C 382 1227 324 1231 214 1231 L 98 1231 C 80 1231 72 1264 72 1331 C 72 1362 73 1387 76 1406 C 79 1424 86 1434 98 1434 L 612 1434 C 618 1434 624 1432 628 1429 C 632 1426 635 1421 637 1414 C 639 1407 640 1379 642 1331 C 642 1281 640 1247 638 1229 C 635 1211 631 1198 627 1188 C 579 1100 534 1022 493 954 L 442 866 C 438 862 436 857 436 852 C 436 847 441 844 451 842 C 498 833 532 821 552 807 C 572 793 589 774 603 751 C 617 727 626 702 632 674 C 638 646 641 614 641 580 L 641 287 Z" unicode="3" />
<glyph horiz-adv-x="678" d="M 647 319 C 647 285 643 268 635 268 L 607 268 C 602 268 597 265 593 261 C 588 256 586 252 586 250 L 586 25 C 586 13 577 6 560 4 C 542 1 520 0 494 0 C 417 0 379 9 379 27 L 379 211 L 380 232 C 380 239 378 246 375 254 C 371 260 363 263 352 263 C 340 263 329 264 319 264 L 52 264 C 38 264 31 274 31 295 L 31 498 C 31 527 32 550 36 567 C 40 584 45 601 51 618 C 159 934 250 1191 322 1391 C 328 1407 334 1417 342 1423 C 350 1428 362 1432 379 1434 C 396 1436 418 1438 446 1438 C 495 1438 530 1436 552 1433 C 573 1429 584 1422 584 1411 L 584 492 C 584 474 585 464 589 461 C 593 458 599 457 608 457 L 635 457 C 638 457 641 449 643 433 C 645 417 647 400 647 382 L 647 319 Z M 387 944 L 387 1005 C 387 1020 384 1028 379 1028 C 371 1028 365 1014 359 988 L 354 969 L 274 657 L 265 628 C 257 604 254 583 254 563 L 254 496 C 254 484 254 477 256 474 C 257 470 260 466 264 461 C 266 457 281 455 309 455 C 323 455 337 455 349 456 C 361 457 369 459 373 461 C 377 463 379 467 379 475 L 379 498 L 387 944 Z" unicode="4" />
<glyph horiz-adv-x="702" d="M 651 457 C 651 374 629 295 586 221 C 542 146 470 86 369 41 C 333 28 291 17 243 8 C 195 0 153 -5 118 -5 C 98 -5 83 -2 74 2 C 66 4 63 29 63 77 L 63 121 C 63 159 66 182 72 188 C 79 196 87 200 96 202 C 104 204 115 205 128 206 C 181 208 227 217 266 233 C 305 248 342 273 377 308 C 412 342 430 386 430 440 L 430 575 C 430 617 424 648 414 667 C 403 686 385 696 360 696 C 343 696 329 693 318 688 C 306 682 297 672 289 657 C 280 644 267 635 250 629 C 233 623 198 620 146 620 C 112 620 86 622 68 627 C 64 628 61 640 61 662 L 61 717 L 61 1360 C 61 1372 62 1384 64 1396 C 66 1408 71 1417 79 1424 C 86 1430 101 1434 123 1434 L 610 1434 C 633 1434 645 1403 645 1341 C 645 1271 634 1237 614 1237 L 342 1237 C 322 1237 310 1235 305 1232 C 299 1228 294 1223 290 1216 C 285 1208 283 1196 283 1180 L 283 936 L 283 911 C 283 875 291 858 308 858 C 316 858 322 859 328 862 C 354 876 387 883 428 883 C 476 883 515 872 547 851 C 578 829 603 802 622 770 C 641 737 651 695 651 645 L 651 457 Z" unicode="5" />
<glyph horiz-adv-x="711" d="M 649 315 C 649 218 623 141 572 85 C 520 28 450 0 360 0 C 269 0 198 28 146 85 C 94 141 68 218 68 315 L 68 433 L 70 834 L 70 958 C 70 1014 75 1062 87 1101 C 99 1140 120 1182 151 1226 C 182 1270 222 1308 270 1338 C 318 1368 373 1392 435 1409 C 497 1425 563 1434 633 1436 C 641 1436 645 1413 645 1367 L 645 1320 C 645 1304 643 1288 641 1274 C 639 1260 636 1253 633 1253 C 546 1242 487 1231 456 1221 C 424 1211 398 1197 378 1181 C 358 1165 340 1146 326 1125 C 311 1104 300 1082 294 1060 C 288 1037 285 1011 285 983 L 285 872 L 285 851 C 285 843 287 837 293 834 L 299 831 L 306 833 C 349 852 391 862 432 862 C 493 862 544 837 586 787 C 628 737 649 674 649 600 L 649 315 Z M 436 356 L 436 571 C 436 650 410 690 358 690 C 333 690 314 680 302 661 C 289 642 283 611 283 567 L 283 356 C 283 305 285 272 290 257 C 295 241 303 230 314 222 C 324 214 340 211 360 211 C 385 211 404 221 417 242 C 429 263 436 301 436 356 Z" unicode="6" />
<glyph horiz-adv-x="647" d="M 616 1223 C 616 1213 614 1203 610 1193 C 606 1182 594 1153 573 1107 C 531 1017 496 922 468 821 C 440 719 413 597 387 454 C 361 311 346 188 343 85 C 341 41 337 18 332 14 C 319 4 290 0 244 0 L 219 0 L 199 0 C 173 0 156 1 147 4 C 138 6 133 11 131 17 C 129 23 128 35 128 53 C 128 104 134 183 146 291 C 158 398 174 503 194 607 C 214 711 232 795 250 859 C 268 923 300 1019 348 1149 C 352 1162 355 1176 355 1190 C 355 1208 352 1222 346 1231 C 342 1236 317 1239 273 1239 L 55 1239 C 39 1239 31 1271 31 1337 C 31 1377 32 1403 35 1415 C 38 1427 43 1434 51 1434 L 584 1434 C 595 1434 603 1430 608 1423 C 613 1415 616 1401 616 1379 L 616 1223 Z" unicode="7" />
<glyph horiz-adv-x="731" d="M 664 303 C 664 211 636 137 582 82 C 527 27 455 0 365 0 C 279 0 208 27 152 83 C 96 139 68 212 68 303 L 68 616 C 68 642 71 665 79 685 C 87 705 96 720 106 732 C 116 744 136 757 164 772 C 134 792 113 810 102 825 C 90 839 82 855 76 872 C 70 889 68 910 68 934 L 68 1161 C 68 1239 96 1304 153 1356 C 209 1408 280 1434 365 1434 C 451 1434 523 1408 579 1357 C 635 1306 664 1240 664 1159 L 664 928 C 664 899 656 871 641 844 C 625 817 609 799 592 789 L 561 768 L 589 748 C 607 735 624 714 640 686 C 656 657 664 626 664 594 L 664 303 Z M 442 934 L 442 1120 C 442 1154 435 1180 422 1200 C 408 1219 389 1229 365 1229 C 339 1229 320 1219 307 1199 C 293 1179 287 1152 287 1118 L 287 934 C 287 895 294 866 308 846 C 322 826 341 817 365 817 C 416 817 442 856 442 934 Z M 442 334 L 442 528 C 442 566 435 595 422 615 C 408 635 389 645 365 645 C 339 645 320 635 307 615 C 293 595 287 566 287 530 L 287 334 C 287 248 313 205 365 205 C 416 205 442 248 442 334 Z" unicode="8" />
<glyph horiz-adv-x="711" d="M 643 481 C 643 413 637 359 625 319 C 613 279 592 239 562 199 C 532 159 493 124 445 95 C 397 66 342 43 279 26 C 216 9 148 0 76 -2 C 67 -2 63 22 63 70 L 63 94 L 63 120 C 63 168 67 193 76 193 C 163 203 220 211 247 219 C 273 227 296 236 315 248 C 333 259 352 275 372 296 C 392 316 405 338 413 360 C 420 382 424 410 424 444 L 424 553 L 425 582 C 425 587 423 591 420 595 C 417 598 414 600 412 601 L 402 596 C 372 574 333 563 285 563 C 224 563 170 590 124 645 C 78 699 55 759 55 825 L 55 1128 C 55 1225 80 1300 131 1354 C 181 1407 254 1434 350 1434 C 440 1434 512 1406 564 1352 C 616 1297 643 1222 643 1128 L 643 481 Z M 426 866 L 426 1087 C 426 1142 419 1180 407 1200 C 394 1220 374 1231 348 1231 C 323 1231 304 1220 292 1200 C 280 1179 274 1141 274 1087 L 274 862 C 274 784 299 745 350 745 C 375 745 394 754 407 773 C 419 791 426 822 426 866 Z" unicode="9" />
<glyph horiz-adv-x="332" d="M 272 604 C 270 561 259 530 239 511 C 219 492 190 482 151 482 C 119 482 95 493 77 516 C 59 538 51 568 51 606 C 51 639 60 667 79 691 C 98 715 123 727 153 728 C 175 728 196 724 216 716 C 236 708 250 697 259 682 C 267 666 272 640 272 604 Z M 272 119 C 270 76 259 45 239 26 C 219 6 189 -3 151 -3 C 119 -3 94 8 77 30 C 59 52 51 83 51 121 C 51 153 60 182 79 206 C 98 230 123 243 153 243 C 175 243 196 239 216 231 C 236 223 250 211 259 195 C 267 179 272 154 272 119 Z" unicode=":" />
<glyph horiz-adv-x="332" d="M 272 604 C 270 561 259 530 239 511 C 219 492 190 482 151 482 C 119 482 95 493 77 516 C 59 538 51 568 51 606 C 51 639 60 667 79 691 C 98 715 123 727 153 728 C 175 728 196 724 216 716 C 236 708 250 697 259 682 C 267 666 272 640 272 604 Z M 274 131 C 274 75 266 29 252 -8 C 232 -60 208 -105 182 -141 C 155 -177 130 -196 108 -196 C 92 -196 84 -187 84 -171 C 84 -147 91 -113 107 -69 C 116 -42 121 -23 121 -13 C 121 0 113 10 98 18 L 84 27 C 62 43 51 71 51 109 C 51 149 59 181 77 205 C 95 229 119 242 151 242 C 188 242 217 232 239 212 C 260 192 272 165 274 131 Z" unicode=";" />
<glyph horiz-adv-x="555" d="M 223 506 C 223 500 277 439 387 323 C 456 248 493 204 497 190 L 498 182 C 498 170 490 164 475 162 L 456 155 C 414 133 391 122 387 121 C 383 121 347 157 279 231 C 211 305 154 367 110 419 C 65 470 43 499 43 506 C 43 510 51 522 68 543 C 85 563 107 588 133 616 C 159 644 187 675 217 707 C 247 739 275 768 301 795 C 327 822 349 844 367 861 C 385 878 395 887 397 887 C 409 879 425 872 444 864 C 463 856 476 852 483 850 C 499 845 507 837 507 827 C 507 818 502 809 494 801 C 313 611 223 512 223 506 Z" unicode="&#x3C;" />
<glyph horiz-adv-x="524" d="M 273 603 L 201 603 C 181 603 163 603 147 603 C 131 603 115 604 97 604 C 79 604 63 608 51 614 C 47 614 44 620 42 632 C 40 644 39 657 39 671 C 39 703 42 721 50 727 C 57 732 69 735 85 735 L 129 733 L 186 734 L 473 729 C 476 729 479 719 482 700 C 484 681 486 660 486 638 C 485 626 483 619 481 618 C 478 616 473 615 466 613 C 459 611 452 609 446 609 C 439 609 413 608 369 606 C 325 604 293 603 273 603 Z M 274 308 L 202 308 L 139 309 C 109 309 79 312 51 319 C 45 320 42 339 42 375 C 42 409 45 429 53 434 C 66 438 79 441 92 441 L 129 438 L 186 439 L 377 436 L 443 438 C 455 438 466 436 475 434 C 483 421 488 390 488 341 C 487 330 485 324 483 324 C 471 318 461 315 451 314 C 441 313 382 311 274 308 Z" unicode="=" />
<glyph horiz-adv-x="555" d="M 512 506 C 512 493 459 426 355 304 C 251 182 192 121 179 121 L 178 121 L 159 131 C 127 148 104 158 92 162 C 76 165 68 172 68 184 C 68 191 72 200 82 211 C 252 399 338 498 338 506 C 338 514 262 596 111 750 C 94 766 79 781 67 795 C 54 808 48 819 48 827 C 48 837 56 845 72 850 C 90 855 119 867 158 887 L 159 887 C 167 887 203 854 266 789 C 329 723 386 661 436 603 C 486 545 512 512 512 506 Z" unicode="&#x3E;" />
<glyph horiz-adv-x="676" d="M 635 1018 C 635 964 626 915 608 870 C 590 825 558 776 512 723 C 484 691 465 659 454 625 C 443 591 438 551 438 505 L 438 416 C 438 397 415 387 369 387 C 313 387 278 387 265 389 C 251 391 241 394 234 398 C 227 402 223 409 223 417 C 222 425 221 467 221 541 C 221 580 223 613 229 639 C 235 665 244 692 257 718 C 270 744 295 780 333 826 C 369 870 392 908 404 940 C 416 972 422 1015 422 1069 L 422 1122 C 422 1161 415 1189 402 1205 C 389 1221 369 1229 342 1229 C 295 1229 272 1193 272 1122 L 272 1051 C 272 1033 234 1024 160 1024 C 118 1024 91 1026 78 1031 C 65 1036 59 1043 59 1053 L 59 1167 C 59 1245 85 1310 138 1361 C 190 1412 259 1438 344 1438 C 431 1438 501 1413 555 1364 C 608 1315 635 1250 635 1169 L 635 1018 Z M 317 -8 C 245 -8 210 35 210 121 C 210 154 220 184 241 210 C 261 236 286 249 316 249 C 354 249 384 242 408 229 C 432 215 444 194 444 166 C 444 116 438 80 428 59 C 418 37 403 21 385 9 C 366 -2 343 -8 317 -8 Z" unicode="?" />
<glyph horiz-adv-x="1135" d="M 1063 735 C 1063 645 1047 578 1017 533 C 986 487 936 465 866 465 C 836 465 812 469 794 478 C 776 486 762 496 752 507 C 742 517 736 527 732 536 C 728 544 725 549 723 549 L 715 536 C 705 515 687 498 660 485 C 632 471 599 465 559 465 C 515 465 478 475 446 495 C 414 515 388 543 370 577 C 351 611 342 646 342 682 L 342 801 C 342 837 351 873 370 907 C 389 941 415 968 449 988 C 482 1008 519 1018 559 1018 C 605 1018 640 1006 665 982 C 678 968 686 961 690 961 L 691 962 C 693 962 694 968 694 979 C 694 991 696 1001 701 1008 C 705 1014 715 1018 731 1018 C 748 1018 760 1017 768 1017 C 776 1016 780 1013 780 1008 L 780 692 C 780 656 788 628 804 606 C 820 584 838 573 858 573 C 895 573 921 588 936 618 C 950 648 958 693 958 752 C 958 864 921 957 849 1029 C 776 1101 683 1137 571 1137 C 501 1137 435 1119 374 1084 C 313 1048 265 1000 231 940 C 197 879 180 814 180 745 C 180 677 197 613 233 554 C 268 494 316 447 376 413 C 436 379 501 362 571 362 L 717 362 C 730 362 737 346 737 315 C 737 271 732 250 723 250 L 567 250 C 479 250 396 272 320 316 C 244 360 183 420 139 497 C 94 573 72 656 72 745 C 72 833 94 915 138 992 C 182 1069 243 1130 319 1174 C 395 1218 477 1241 567 1241 C 665 1241 752 1221 827 1181 C 902 1141 960 1083 1001 1007 C 1042 931 1063 841 1063 735 Z M 680 682 L 680 803 C 680 838 669 867 647 890 C 625 912 597 924 561 924 C 527 924 499 912 476 888 C 453 864 442 836 442 803 L 442 682 C 442 646 453 618 477 597 C 501 575 529 565 561 565 C 592 565 620 575 644 597 C 668 619 680 647 680 682 Z" unicode="@" />
<glyph horiz-adv-x="682" d="M 651 19 C 651 6 627 0 581 0 L 539 0 C 509 0 484 0 466 1 C 448 2 438 10 436 25 L 395 330 C 393 340 387 345 377 345 C 366 345 352 346 336 346 C 316 346 301 345 291 345 C 281 345 275 340 274 330 L 244 20 C 242 8 231 2 211 1 C 191 0 164 0 131 0 C 64 0 31 5 31 17 L 195 1168 L 227 1405 C 229 1425 264 1436 334 1436 C 374 1436 401 1433 417 1427 C 433 1421 442 1411 444 1399 L 651 19 Z M 334 969 C 330 969 326 961 323 945 C 320 929 319 917 319 909 L 293 516 C 293 508 296 504 302 502 C 308 500 318 500 334 500 L 366 500 C 374 500 379 504 379 512 L 352 913 C 352 925 350 937 347 950 C 343 962 339 969 334 969 Z" unicode="A" />
<glyph horiz-adv-x="745" d="M 678 311 C 678 221 648 146 590 88 C 531 29 452 0 354 0 L 251 -1 L 199 -1 L 117 2 C 105 2 96 6 90 15 C 84 24 82 43 82 72 L 82 1370 C 82 1383 82 1394 83 1402 C 84 1410 88 1417 94 1423 C 100 1429 106 1433 114 1433 C 122 1433 131 1434 143 1434 L 346 1434 C 410 1434 468 1421 518 1397 C 568 1373 606 1337 632 1291 C 657 1245 670 1189 670 1124 L 670 950 C 670 894 657 847 631 811 C 617 793 596 777 570 764 C 548 753 537 747 537 745 L 548 740 C 568 734 589 724 610 710 C 630 696 647 677 659 651 C 671 625 678 591 678 549 L 678 311 Z M 451 942 L 451 1081 C 451 1117 448 1143 442 1160 C 436 1177 426 1191 413 1202 C 400 1213 381 1219 356 1219 C 335 1219 322 1218 317 1216 C 312 1214 308 1210 305 1204 C 302 1198 301 1190 301 1182 L 301 877 C 301 856 304 843 310 838 C 316 833 322 831 328 831 L 348 831 C 378 831 403 841 422 863 C 441 884 451 910 451 942 Z M 459 334 L 459 506 C 459 592 431 635 375 635 C 341 635 320 633 312 629 C 304 625 301 614 301 596 L 301 260 C 301 238 303 225 307 221 C 311 217 319 215 331 215 L 356 215 C 373 215 388 217 402 223 C 415 229 428 240 440 256 C 452 272 459 298 459 334 Z" unicode="B" />
<glyph horiz-adv-x="694" d="M 653 287 C 653 199 627 129 577 77 C 527 25 456 0 365 0 C 277 0 205 27 150 81 C 95 135 68 203 68 287 L 68 1145 C 68 1227 95 1296 150 1351 C 204 1406 276 1434 365 1434 C 452 1434 522 1406 574 1352 C 626 1298 653 1229 653 1145 L 653 1034 C 653 1023 646 1016 632 1013 C 618 1009 588 1008 543 1008 L 498 1008 C 475 1008 460 1009 452 1013 C 444 1016 440 1022 440 1030 L 440 1137 C 440 1157 432 1177 418 1195 C 404 1213 386 1223 365 1223 C 340 1223 321 1213 307 1193 C 293 1173 287 1144 287 1106 L 287 334 C 287 256 313 217 365 217 C 388 217 406 224 420 239 C 433 254 440 274 440 299 L 440 406 C 440 416 444 423 453 427 C 462 430 476 432 494 432 L 549 432 C 597 432 626 429 637 425 C 647 421 653 410 653 393 L 653 287 Z" unicode="C" />
<glyph horiz-adv-x="745" d="M 678 311 C 678 224 649 150 592 90 C 534 30 455 0 354 0 L 141 0 C 127 0 116 0 108 1 C 100 1 94 6 90 14 C 84 21 82 37 82 63 L 82 1370 C 82 1391 83 1405 85 1412 C 87 1418 91 1424 97 1428 C 102 1432 117 1434 143 1434 L 352 1434 C 450 1434 529 1407 589 1354 C 648 1301 678 1224 678 1124 L 678 311 Z M 457 352 L 457 1081 C 457 1131 449 1167 434 1188 C 419 1208 395 1219 362 1219 C 330 1219 311 1216 307 1211 C 303 1205 301 1196 301 1182 L 301 260 C 301 240 302 227 306 222 C 310 217 317 215 328 215 L 356 215 C 367 215 379 217 392 221 C 404 225 415 233 425 243 C 435 253 442 264 448 277 C 454 290 457 315 457 352 Z" unicode="D" />
<glyph horiz-adv-x="635" d="M 594 102 C 594 53 592 24 590 14 C 587 4 580 0 569 0 L 176 0 L 128 0 C 97 0 82 13 82 39 L 82 1372 C 82 1382 82 1389 83 1394 C 84 1398 88 1405 94 1414 C 100 1422 106 1428 112 1430 C 118 1432 128 1434 143 1434 L 567 1434 C 577 1434 584 1430 587 1422 C 590 1414 592 1385 592 1337 C 592 1286 590 1256 587 1247 C 584 1237 577 1233 565 1233 L 360 1233 C 334 1233 318 1229 313 1223 C 306 1213 303 1205 303 1199 L 303 884 C 303 874 306 867 313 861 C 320 855 328 852 337 852 L 459 852 C 469 852 476 847 480 837 C 483 827 485 798 485 750 C 485 702 483 674 480 665 C 477 655 470 651 459 651 L 367 651 C 337 651 318 648 311 642 C 304 636 301 629 301 621 L 301 260 C 301 229 304 212 311 209 C 319 203 340 201 373 201 L 567 201 C 579 201 586 196 589 188 C 592 179 594 150 594 102 Z" unicode="E" />
<glyph horiz-adv-x="602" d="M 592 1337 C 592 1291 590 1263 587 1251 C 584 1239 575 1233 559 1233 L 360 1233 C 337 1233 322 1230 315 1225 C 307 1217 303 1209 303 1200 C 303 1191 303 1180 303 1167 L 303 885 C 303 861 304 846 307 841 C 310 835 314 831 320 828 C 325 824 331 823 337 823 L 360 823 L 424 821 L 475 821 C 489 821 497 815 501 804 C 504 793 506 765 506 721 C 506 673 504 644 501 636 C 497 627 489 623 475 623 L 428 624 L 396 624 L 367 623 C 338 623 320 620 312 614 C 304 608 301 599 301 589 L 301 35 C 301 21 297 12 289 8 C 281 4 266 2 243 2 L 129 2 C 111 2 98 3 92 7 C 85 11 82 19 82 33 L 82 1370 C 82 1388 83 1401 87 1407 C 90 1413 94 1418 99 1424 C 104 1429 111 1432 120 1433 C 128 1433 134 1434 137 1434 L 567 1434 C 579 1434 587 1428 589 1416 C 591 1404 592 1377 592 1337 Z" unicode="F" />
<glyph horiz-adv-x="731" d="M 664 41 C 664 19 658 6 647 2 L 634 -1 L 604 2 C 596 2 586 14 576 40 C 564 66 554 81 547 86 L 545 86 C 539 86 534 82 528 74 C 522 66 512 56 500 45 C 487 34 470 24 449 14 C 428 4 400 0 365 0 C 277 0 206 27 151 82 C 95 136 68 205 68 287 L 68 1145 C 68 1197 80 1245 105 1290 C 130 1334 165 1369 210 1395 C 255 1421 307 1434 365 1434 C 423 1434 475 1421 521 1395 C 566 1369 601 1334 626 1289 C 651 1244 664 1196 664 1145 L 664 1034 C 664 1023 654 1016 635 1013 C 616 1009 585 1008 541 1008 C 505 1008 479 1008 464 1009 C 449 1010 442 1016 442 1028 L 440 1137 C 440 1159 432 1178 418 1196 C 404 1214 386 1223 365 1223 C 340 1223 321 1212 307 1192 C 293 1171 287 1142 287 1106 L 287 334 C 287 290 293 260 307 243 C 320 225 339 217 365 217 C 388 217 406 224 420 239 C 433 253 440 273 440 299 L 440 567 C 440 582 434 592 422 596 C 411 599 400 601 390 602 C 380 602 372 604 367 608 C 361 613 358 634 358 670 C 358 687 358 701 359 712 C 359 722 362 729 367 731 C 383 743 429 749 503 751 C 570 751 614 748 634 742 C 654 736 664 724 664 707 L 664 41 Z" unicode="G" />
<glyph horiz-adv-x="760" d="M 678 43 C 678 25 675 15 671 12 C 667 8 659 6 649 4 C 639 2 612 2 569 2 C 527 2 500 2 488 4 C 476 6 467 9 463 14 C 459 18 457 28 457 43 L 457 586 C 457 610 454 624 448 629 C 442 633 416 636 371 636 C 356 636 342 635 330 634 C 317 633 309 630 305 625 C 301 619 299 605 299 582 L 299 35 C 299 21 296 12 290 9 C 284 5 274 3 258 3 C 242 2 218 2 186 2 C 144 2 118 2 108 3 C 98 4 91 6 87 9 C 83 11 82 19 82 31 L 82 1395 C 82 1409 85 1418 91 1422 C 97 1426 109 1428 126 1430 C 142 1431 162 1432 186 1432 C 222 1432 247 1431 261 1429 C 275 1427 286 1424 292 1420 C 298 1416 301 1407 301 1393 L 301 913 C 301 895 302 881 304 870 C 306 859 314 852 328 848 L 383 845 C 413 845 432 846 440 848 C 448 851 453 858 455 868 C 456 878 457 891 457 907 L 457 1401 C 457 1415 460 1423 468 1427 C 476 1430 489 1432 509 1432 L 567 1432 C 622 1432 654 1430 664 1427 C 673 1424 678 1415 678 1399 L 678 43 Z" unicode="H" />
<glyph horiz-adv-x="383" d="M 301 35 C 301 21 298 12 293 9 C 287 6 277 4 262 3 C 246 2 221 2 186 2 C 144 2 118 2 108 3 C 98 4 91 6 87 9 C 83 11 82 19 82 31 L 82 1399 C 82 1413 85 1421 91 1425 C 97 1428 110 1430 128 1431 C 146 1431 166 1432 186 1432 C 225 1432 251 1431 265 1430 C 279 1428 288 1426 293 1422 C 298 1418 301 1410 301 1397 L 301 35 Z" unicode="I" />
<glyph horiz-adv-x="674" d="M 592 287 C 592 195 567 125 518 75 C 469 25 400 0 311 0 C 226 0 158 26 107 79 C 56 131 31 200 31 285 L 31 393 C 31 411 35 422 43 426 C 51 430 81 432 131 432 C 180 432 210 429 221 425 C 232 421 238 410 238 393 L 238 348 C 238 298 243 263 255 245 C 266 226 285 217 311 217 C 336 217 355 225 368 241 C 380 257 387 287 387 332 L 386 575 L 386 846 L 387 1389 C 387 1409 393 1421 406 1425 C 418 1429 444 1432 483 1432 C 538 1432 570 1429 579 1425 C 587 1421 592 1409 592 1391 L 592 287 Z" unicode="J" />
<glyph horiz-adv-x="762" d="M 731 21 C 731 13 723 7 707 4 C 691 1 663 0 623 0 L 566 0 C 542 0 526 2 519 6 C 511 10 506 17 504 29 L 360 606 C 357 614 354 619 351 619 C 341 619 331 605 319 578 C 307 550 301 520 301 487 L 301 37 C 301 25 293 15 277 9 C 261 3 232 0 190 0 C 118 0 82 11 82 33 L 82 1403 C 82 1413 89 1420 105 1425 C 121 1429 148 1432 188 1432 C 231 1432 261 1429 277 1424 C 293 1419 301 1411 301 1401 L 301 892 C 301 872 303 863 308 863 C 312 863 316 868 320 879 L 467 1405 C 469 1413 473 1419 479 1421 C 485 1423 500 1425 524 1425 L 582 1425 C 619 1425 647 1423 667 1421 C 686 1419 696 1414 696 1407 L 696 1405 C 624 1177 568 1006 528 891 C 518 864 514 841 514 823 C 514 808 518 784 528 750 L 565 621 L 731 21 Z" unicode="K" />
<glyph horiz-adv-x="610" d="M 580 104 C 580 53 578 23 575 14 C 572 4 565 0 553 0 L 160 0 C 132 0 114 1 106 4 C 97 6 91 11 87 19 C 83 26 82 48 82 84 L 82 1401 C 82 1416 88 1425 100 1429 C 112 1432 140 1434 184 1434 C 237 1434 270 1432 282 1428 C 294 1424 301 1414 301 1399 L 301 281 C 301 244 302 222 306 216 C 310 209 317 205 329 203 C 341 201 354 201 369 201 L 551 201 C 563 201 570 197 574 189 C 578 181 580 153 580 104 Z" unicode="L" />
<glyph horiz-adv-x="895" d="M 813 37 C 813 21 810 12 805 8 C 799 4 790 2 777 1 C 764 0 740 0 705 0 C 668 0 644 0 632 2 C 620 3 611 5 606 9 C 600 13 598 21 598 35 L 598 262 C 598 534 596 732 592 854 C 588 861 584 865 579 865 C 569 865 563 858 561 846 C 543 758 520 665 492 567 C 489 557 485 549 479 544 C 473 539 462 537 446 537 C 430 537 419 539 414 544 C 408 548 404 555 401 565 C 373 675 352 768 336 842 C 333 854 325 861 313 861 C 307 861 302 858 299 852 C 295 728 293 531 293 263 L 293 37 C 293 21 289 12 281 8 C 273 4 258 1 237 1 C 216 0 197 0 180 0 C 154 0 135 0 122 1 C 108 1 99 3 93 6 C 87 8 83 12 83 16 C 82 20 82 27 82 35 L 82 1399 C 82 1413 85 1422 92 1426 C 98 1430 110 1432 128 1432 L 176 1432 C 208 1432 231 1430 244 1426 C 257 1422 267 1416 275 1407 C 283 1398 291 1381 299 1356 L 389 1063 C 415 973 434 928 446 928 C 458 928 477 973 504 1063 L 594 1356 C 604 1392 617 1414 631 1422 C 645 1430 670 1434 707 1434 C 753 1434 783 1432 795 1428 C 807 1424 813 1414 813 1399 L 813 37 Z" unicode="M" />
<glyph horiz-adv-x="793" d="M 711 59 C 711 34 708 19 703 14 C 698 8 689 5 676 3 C 662 1 640 0 608 0 C 574 0 552 4 541 12 C 530 20 522 35 518 55 L 344 697 C 330 752 319 780 311 780 C 301 780 297 764 297 733 L 297 37 C 297 21 293 12 285 8 C 277 4 262 1 241 1 C 220 0 201 0 184 0 C 150 0 127 0 115 1 C 103 2 95 4 90 8 C 84 11 82 20 82 35 L 82 1405 C 82 1419 86 1428 94 1430 C 102 1432 130 1434 176 1434 C 206 1434 227 1432 241 1429 C 254 1426 264 1421 271 1413 C 278 1405 285 1390 291 1368 L 368 1085 L 467 730 C 470 717 475 711 481 711 C 491 711 496 725 496 754 L 496 1397 C 496 1413 501 1424 512 1428 C 522 1432 553 1434 604 1434 C 640 1434 664 1433 677 1432 C 689 1430 698 1428 703 1425 C 708 1421 711 1413 711 1399 L 711 59 Z" unicode="N" />
<glyph horiz-adv-x="731" d="M 664 295 C 664 203 637 131 584 79 C 531 26 458 0 365 0 C 275 0 203 27 149 81 C 95 135 68 206 68 295 L 68 1141 C 68 1227 95 1298 151 1352 C 206 1406 277 1434 365 1434 C 453 1434 525 1407 581 1354 C 636 1300 664 1229 664 1141 L 664 295 Z M 442 340 L 442 1100 C 442 1139 435 1169 421 1191 C 407 1212 389 1223 365 1223 C 339 1223 320 1212 307 1190 C 293 1168 287 1138 287 1100 L 287 340 C 287 292 293 259 305 242 C 317 225 337 217 365 217 C 391 217 410 226 423 244 C 435 262 442 294 442 340 Z" unicode="O" />
<glyph horiz-adv-x="729" d="M 678 856 C 678 766 648 692 589 632 C 530 572 449 543 346 543 C 331 543 320 538 312 530 C 304 521 301 504 301 479 L 301 33 C 301 19 296 10 288 6 C 280 2 265 0 244 0 L 186 0 C 140 0 113 1 105 3 C 96 5 90 10 87 16 C 83 22 82 31 82 45 L 82 1370 C 82 1395 85 1412 92 1421 C 97 1428 104 1432 112 1433 C 120 1433 131 1434 143 1434 L 352 1434 C 450 1434 529 1406 589 1352 C 648 1298 678 1222 678 1124 L 678 856 Z M 457 885 L 457 1081 C 457 1131 449 1167 434 1188 C 419 1208 395 1219 362 1219 C 332 1219 315 1216 309 1212 C 303 1208 301 1198 301 1182 L 301 793 C 301 773 301 761 303 758 C 304 755 306 753 310 751 C 313 749 320 748 332 748 L 358 748 C 374 748 389 751 402 757 C 415 763 426 772 436 786 C 446 799 452 812 454 826 C 456 839 457 859 457 885 Z" unicode="P" />
<glyph horiz-adv-x="729" d="M 662 295 C 662 227 647 170 618 122 C 588 74 548 42 498 25 C 480 19 471 12 471 2 C 471 -32 480 -56 498 -71 C 516 -86 544 -94 582 -94 C 590 -94 595 -100 598 -114 C 600 -128 602 -149 602 -178 C 602 -199 601 -217 601 -233 C 600 -248 595 -256 586 -256 C 476 -256 392 -234 335 -192 C 278 -150 250 -88 250 -8 C 250 6 240 19 221 31 C 164 66 124 105 102 147 C 79 189 68 239 68 295 L 68 1141 C 68 1227 95 1298 151 1352 C 206 1406 277 1434 365 1434 C 452 1434 523 1407 579 1354 C 634 1300 662 1229 662 1141 L 662 295 Z M 440 340 L 440 1100 C 440 1138 433 1168 420 1190 C 407 1212 389 1223 365 1223 C 339 1223 320 1212 307 1190 C 293 1168 287 1138 287 1100 L 287 340 C 287 258 313 217 365 217 C 390 217 409 226 421 245 C 433 264 440 296 440 340 Z" unicode="Q" />
<glyph horiz-adv-x="737" d="M 676 33 C 676 17 670 8 660 5 C 650 1 617 0 563 0 C 509 0 477 1 469 5 C 461 9 457 19 457 35 L 457 506 C 457 542 450 572 438 597 C 425 622 406 635 381 635 L 338 635 C 324 635 314 633 309 630 C 303 627 301 620 301 608 L 301 39 C 301 21 295 10 284 6 C 273 2 239 0 182 0 C 139 0 113 1 105 4 C 96 6 90 11 87 17 C 83 23 82 32 82 45 L 82 1370 C 82 1412 91 1434 111 1434 L 346 1434 C 445 1434 524 1407 582 1353 C 640 1299 670 1222 670 1124 L 670 950 C 670 894 659 850 637 818 C 615 786 585 762 546 748 C 538 745 535 743 535 741 C 535 739 538 737 546 735 C 632 711 676 649 676 549 L 676 33 Z M 451 942 L 451 1081 C 451 1112 448 1136 444 1153 C 439 1170 430 1185 417 1199 C 404 1212 381 1219 348 1219 C 326 1219 312 1215 307 1208 C 303 1200 301 1191 301 1182 L 301 877 C 301 856 303 843 308 838 C 312 833 319 831 327 831 L 348 831 C 378 831 403 841 422 863 C 441 884 451 910 451 942 Z" unicode="R" />
<glyph horiz-adv-x="696" d="M 645 354 C 645 272 634 211 612 170 C 582 116 557 79 535 58 C 513 37 487 22 458 13 C 428 4 392 0 348 0 C 256 0 184 26 131 78 C 77 130 51 200 51 287 L 51 401 C 51 409 56 414 67 417 C 78 420 106 422 152 422 C 192 422 222 421 242 420 C 262 418 272 414 272 406 L 272 319 C 272 281 277 251 287 230 C 297 209 317 199 348 199 C 389 199 414 224 422 274 L 426 369 C 426 401 412 440 384 485 C 356 530 306 597 233 687 C 103 843 39 981 39 1102 C 39 1150 49 1201 70 1257 C 91 1312 124 1355 170 1387 C 215 1418 268 1434 330 1434 C 413 1434 482 1406 538 1352 C 593 1298 621 1232 621 1155 L 621 1055 C 621 1047 613 1043 598 1043 C 582 1042 557 1042 522 1042 C 482 1042 453 1042 433 1044 C 413 1045 403 1049 403 1057 L 403 1151 C 403 1177 395 1198 381 1216 C 366 1234 349 1243 330 1243 C 308 1243 290 1233 276 1215 C 261 1196 254 1156 254 1096 C 254 1050 268 1003 297 955 C 325 906 376 841 450 760 C 516 685 565 615 597 550 C 629 484 645 419 645 354 Z" unicode="S" />
<glyph horiz-adv-x="657" d="M 627 1337 C 627 1286 625 1256 622 1247 C 619 1237 612 1233 602 1233 L 514 1233 C 482 1233 462 1231 455 1229 C 445 1221 440 1210 440 1195 C 440 1180 440 1166 440 1153 L 440 20 C 440 12 433 6 421 4 C 408 1 375 0 322 0 C 274 0 244 1 233 3 C 222 5 217 10 217 20 L 217 1153 C 217 1166 216 1180 216 1195 C 216 1210 211 1221 203 1229 C 195 1231 175 1233 143 1233 L 68 1233 C 52 1233 42 1238 38 1250 C 33 1261 31 1289 31 1333 C 31 1376 32 1404 36 1416 C 39 1428 47 1434 59 1434 L 600 1434 C 610 1434 617 1429 621 1419 C 625 1409 627 1382 627 1337 Z" unicode="T" />
<glyph horiz-adv-x="731" d="M 664 287 C 664 199 637 129 583 77 C 529 25 456 0 365 0 C 279 0 208 27 152 81 C 96 135 68 203 68 285 L 68 1399 C 68 1415 74 1424 87 1428 C 100 1432 132 1434 182 1434 C 222 1434 250 1432 265 1428 C 279 1424 287 1414 287 1399 L 287 332 C 287 291 293 262 306 244 C 318 226 338 217 365 217 C 416 217 442 255 442 332 L 442 1401 C 442 1416 448 1425 460 1429 C 472 1432 501 1434 545 1434 C 592 1434 624 1432 640 1428 C 656 1424 664 1416 664 1403 L 664 287 Z" unicode="U" />
<glyph horiz-adv-x="680" d="M 332 0 C 275 0 241 2 230 7 C 219 12 213 21 213 35 C 176 337 115 793 31 1403 L 30 1412 C 30 1421 35 1427 46 1430 C 56 1432 89 1434 143 1434 C 177 1434 202 1433 217 1431 C 231 1429 242 1427 248 1423 C 254 1419 258 1410 260 1397 C 268 1304 279 1164 293 976 C 305 788 317 643 328 539 C 328 525 330 518 336 518 C 342 518 346 525 346 539 C 359 651 378 852 404 1142 L 428 1397 C 429 1413 435 1422 445 1426 C 455 1430 485 1432 537 1432 C 569 1432 593 1431 608 1430 C 622 1429 633 1427 639 1424 C 645 1421 649 1415 649 1406 L 594 1027 C 507 462 457 130 444 31 C 442 17 435 9 424 5 C 413 1 382 0 332 0 Z" unicode="V" />
<glyph horiz-adv-x="844" d="M 604 0 C 547 0 518 7 516 23 L 446 383 C 444 387 443 391 442 397 C 441 403 438 406 432 406 C 426 406 423 403 423 398 C 422 392 421 388 420 385 L 350 25 C 346 8 323 0 279 0 L 219 0 C 171 0 146 7 145 23 L 31 1410 C 31 1416 40 1421 58 1426 C 76 1431 99 1434 127 1434 C 168 1434 197 1432 215 1429 C 232 1426 241 1420 242 1411 C 242 1401 261 1080 299 446 C 299 432 303 426 311 426 C 321 426 326 433 326 449 L 369 961 C 370 970 375 976 384 980 C 393 983 407 985 426 985 C 446 985 462 983 473 980 C 484 977 490 971 492 961 L 503 827 C 515 659 525 530 535 440 C 535 426 539 420 547 420 C 556 420 561 427 561 442 L 612 1413 C 612 1421 620 1426 634 1429 C 648 1432 673 1434 707 1434 L 747 1434 C 791 1434 813 1427 813 1413 L 698 23 C 696 9 687 2 670 1 C 652 0 630 0 604 0 Z" unicode="W" />
<glyph horiz-adv-x="686" d="M 656 22 C 656 12 648 6 632 4 C 616 1 586 0 543 0 C 491 0 460 1 450 4 C 439 7 432 15 430 27 C 417 79 392 204 356 401 C 354 406 353 413 351 421 C 349 429 346 434 342 434 C 336 434 332 430 330 424 C 328 417 327 409 326 401 C 298 248 274 125 252 31 C 249 17 241 8 229 5 C 216 1 185 0 137 0 C 86 0 55 1 45 5 C 35 8 30 14 30 24 L 31 35 L 114 353 L 201 682 C 207 707 211 725 211 735 C 211 746 207 765 199 793 L 34 1413 C 34 1421 39 1426 50 1429 C 60 1432 92 1434 145 1434 C 189 1434 216 1433 228 1432 C 240 1431 248 1429 252 1426 C 256 1423 260 1416 262 1405 C 285 1263 299 1176 305 1145 C 311 1113 316 1084 322 1058 C 327 1031 333 1018 340 1018 C 345 1018 349 1021 351 1028 C 353 1034 354 1040 356 1044 L 420 1407 C 421 1419 426 1427 436 1430 C 445 1432 476 1434 530 1434 C 584 1434 616 1432 626 1430 C 636 1427 642 1422 642 1414 L 561 1102 L 485 799 L 474 762 L 469 739 C 469 726 472 708 479 686 C 502 564 545 399 608 191 L 656 22 Z" unicode="X" />
<glyph horiz-adv-x="651" d="M 438 504 L 438 16 C 438 5 410 0 355 0 L 295 0 C 243 0 217 7 217 23 L 219 498 C 219 542 217 575 213 598 L 201 653 C 193 679 183 719 171 773 C 159 826 134 934 97 1098 C 60 1261 38 1364 31 1407 C 31 1423 61 1432 123 1432 C 168 1432 200 1429 218 1424 C 236 1419 246 1411 248 1399 L 317 895 C 317 891 318 887 320 883 C 322 879 326 877 330 877 C 336 877 340 883 340 897 L 374 1147 L 406 1399 C 406 1409 417 1417 438 1423 C 458 1429 486 1432 520 1432 C 561 1432 588 1430 601 1426 C 614 1422 621 1415 621 1407 L 584 1230 C 549 1068 512 903 473 733 C 471 724 469 715 467 707 C 465 698 463 689 462 680 C 460 671 456 643 448 597 C 440 550 436 519 438 504 Z" unicode="Y" />
<glyph horiz-adv-x="614" d="M 569 1376 L 569 1332 C 569 1264 567 1224 563 1210 L 270 276 L 266 249 L 270 219 C 273 211 276 207 280 205 C 284 203 291 203 303 203 L 541 203 C 548 203 553 195 557 181 C 561 167 563 138 563 94 C 563 54 561 29 557 17 C 553 5 548 0 541 0 L 78 0 C 60 0 51 12 51 37 L 51 53 L 50 204 C 50 249 52 278 57 291 C 209 754 304 1047 342 1169 C 344 1177 346 1186 346 1195 C 346 1215 340 1229 328 1239 C 320 1241 306 1243 285 1243 L 88 1243 C 71 1243 63 1273 63 1333 C 63 1376 65 1404 69 1416 C 73 1428 79 1434 88 1434 L 530 1434 C 549 1434 560 1430 564 1423 C 567 1416 569 1400 569 1376 Z" unicode="Z" />
<glyph horiz-adv-x="432" d="M 395 1430 L 353 1430 C 331 1430 316 1426 306 1418 C 296 1410 291 1397 291 1378 L 291 66 C 291 42 295 26 303 17 C 311 7 326 3 346 3 L 395 4 C 403 4 407 -6 409 -28 L 408 -78 L 408 -108 C 408 -156 403 -180 395 -180 L 216 -185 C 169 -185 133 -181 109 -175 C 84 -168 72 -156 72 -139 L 72 1569 C 72 1585 86 1597 115 1605 C 144 1612 188 1616 247 1616 L 395 1614 C 406 1614 412 1601 414 1577 C 414 1479 407 1430 395 1430 Z" unicode="[" />
<glyph horiz-adv-x="524" d="M 481 25 C 481 17 475 10 464 6 C 453 2 431 0 397 0 C 359 0 330 2 310 8 C 290 14 279 21 279 31 L 218 379 L 41 1393 L 41 1397 C 41 1407 50 1416 68 1422 C 86 1428 109 1432 137 1432 C 206 1432 242 1425 246 1411 L 481 25 Z" unicode="\" />
<glyph horiz-adv-x="432" d="M 358 -141 C 358 -156 343 -167 315 -173 C 287 -179 245 -183 191 -183 L 35 -180 C 29 -180 25 -167 25 -141 L 25 -76 L 23 -27 C 23 -6 27 4 35 4 L 83 4 C 104 4 119 8 127 16 C 135 24 139 40 139 63 L 139 1378 C 139 1396 134 1410 124 1418 C 114 1426 99 1430 77 1430 L 35 1430 C 25 1430 20 1452 20 1498 L 20 1522 L 18 1577 C 18 1601 24 1614 35 1614 L 178 1616 C 238 1616 283 1612 313 1604 C 343 1596 358 1584 358 1567 L 358 -141 Z" unicode="]" />
<glyph horiz-adv-x="698" d="M 614 1014 C 614 1006 612 1001 610 998 C 607 994 592 985 565 971 L 546 959 C 536 951 527 947 520 947 C 511 947 504 952 498 963 L 440 1062 C 383 1158 352 1206 348 1206 C 345 1206 333 1190 313 1158 C 293 1126 273 1093 255 1060 L 203 973 C 199 966 193 963 185 963 C 169 963 150 971 128 988 C 105 1005 93 1020 93 1032 C 93 1038 111 1073 149 1137 L 298 1390 C 315 1422 332 1438 348 1438 C 362 1438 378 1422 396 1392 L 480 1251 C 566 1105 611 1026 614 1014 Z" unicode="^" />
<glyph horiz-adv-x="575" d="M 506 -143 L 344 -140 L 226 -144 L 133 -141 L 103 -141 C 54 -141 20 -139 2 -137 C -3 -135 -6 -124 -6 -104 C -6 -84 -2 -72 4 -70 C 17 -66 37 -65 65 -65 L 123 -66 L 167 -65 L 287 -68 L 319 -68 L 540 -70 L 571 -70 C 574 -70 577 -75 580 -86 C 583 -96 585 -109 585 -125 C 584 -132 582 -136 580 -137 C 571 -140 546 -142 506 -143 Z" unicode="_" />
<glyph horiz-adv-x="698" d="M 477 1095 C 470 1095 461 1098 449 1104 C 369 1142 301 1173 245 1197 L 176 1227 C 156 1240 146 1254 146 1269 C 146 1274 148 1279 152 1284 C 162 1298 173 1325 186 1364 C 190 1374 196 1380 206 1380 C 216 1380 232 1374 256 1364 C 342 1324 409 1294 457 1276 C 505 1254 530 1233 530 1215 L 528 1206 C 508 1155 498 1126 498 1118 C 494 1102 487 1095 477 1095 Z" unicode="`" />
<glyph horiz-adv-x="707" d="M 645 20 C 645 11 642 5 637 3 C 632 1 619 0 599 0 L 553 0 C 498 0 466 1 456 5 C 446 9 442 17 442 31 L 443 50 C 443 64 440 71 436 71 L 430 68 L 415 50 C 403 35 388 23 370 14 C 352 4 332 0 311 0 C 229 0 165 25 119 76 C 73 127 51 199 51 291 L 51 690 C 51 752 62 805 84 849 C 106 893 136 927 176 950 C 216 973 260 985 309 985 C 330 985 351 979 372 968 C 393 957 410 943 424 926 C 428 920 432 918 434 918 L 438 922 L 440 958 C 440 969 445 977 456 981 C 467 985 499 987 551 987 C 594 987 620 985 630 983 C 640 981 645 975 645 965 L 645 20 Z M 430 354 L 430 637 C 430 727 402 772 348 772 C 322 772 302 760 288 738 C 273 716 266 682 266 637 L 266 354 C 266 305 272 270 286 249 C 299 227 320 217 348 217 C 376 217 396 227 410 249 C 423 271 430 306 430 354 Z" unicode="a" />
<glyph horiz-adv-x="709" d="M 657 291 C 657 198 634 126 589 76 C 544 25 481 0 401 0 C 381 0 360 5 337 17 C 313 29 294 43 279 59 L 269 64 C 264 64 262 53 262 31 C 262 18 258 10 251 6 C 244 2 228 0 203 0 L 152 0 C 122 0 99 0 84 0 C 68 0 61 6 61 16 L 61 1417 C 61 1426 68 1431 84 1433 C 100 1435 124 1436 158 1436 C 192 1436 218 1435 237 1433 C 256 1431 266 1426 266 1417 L 266 969 C 266 945 269 934 277 934 C 280 934 284 936 289 940 C 301 952 318 962 342 971 C 365 980 385 985 401 985 C 480 985 542 958 588 905 C 634 851 657 780 657 690 L 657 291 Z M 440 354 L 440 637 C 440 727 412 772 358 772 C 332 772 312 760 298 738 C 283 716 276 682 276 637 L 276 354 C 276 262 303 217 358 217 C 386 217 406 227 420 248 C 433 268 440 304 440 354 Z" unicode="b" />
<glyph horiz-adv-x="676" d="M 645 295 C 645 202 618 129 565 77 C 511 24 439 -2 348 -2 C 259 -2 187 25 133 80 C 78 134 51 206 51 295 L 51 690 C 51 779 78 850 134 904 C 189 958 260 985 348 985 C 440 985 513 959 566 907 C 618 855 645 782 645 688 C 645 677 639 670 629 668 C 619 665 584 664 526 664 C 482 664 455 665 445 667 C 435 669 430 674 430 684 C 430 752 402 786 348 786 C 315 786 293 773 281 748 C 269 723 264 691 264 651 L 264 334 C 264 280 271 244 285 225 C 299 206 320 197 348 197 C 402 197 430 231 430 301 C 430 311 436 318 450 321 C 463 324 491 326 535 326 C 584 326 615 324 627 320 C 639 316 645 308 645 295 Z" unicode="c" />
<glyph horiz-adv-x="707" d="M 645 16 C 645 11 643 7 640 5 C 637 3 633 1 627 1 C 621 0 573 0 483 -1 C 467 -1 456 0 451 4 C 446 8 444 15 444 27 C 444 51 441 64 437 64 L 428 59 C 410 41 389 26 367 16 C 344 5 323 0 305 0 C 226 0 164 25 119 75 C 73 125 51 197 51 291 L 51 690 C 51 780 74 851 120 905 C 166 958 227 985 305 985 C 321 985 341 980 364 971 C 386 962 404 952 418 940 C 422 935 426 933 429 933 C 436 933 440 945 440 969 L 440 1417 C 440 1426 448 1431 466 1432 C 483 1433 509 1434 545 1434 C 583 1434 609 1433 623 1432 C 637 1431 645 1426 645 1417 L 645 16 Z M 430 354 L 430 637 C 430 727 402 772 348 772 C 322 772 302 760 288 738 C 273 716 266 682 266 637 L 266 354 C 266 305 272 270 286 249 C 299 227 320 217 348 217 C 402 217 430 262 430 354 Z" unicode="d" />
<glyph horiz-adv-x="696" d="M 645 295 C 645 199 618 126 565 76 C 511 25 439 0 348 0 C 260 0 189 26 134 79 C 78 132 51 204 51 295 L 51 692 C 51 778 78 849 134 903 C 189 957 260 985 348 985 C 435 985 506 958 562 905 C 617 851 645 780 645 692 L 645 479 C 645 467 643 460 641 457 C 639 454 635 452 629 451 C 623 449 614 449 604 449 L 293 449 C 284 449 277 447 272 443 C 266 439 264 430 264 416 C 264 334 266 284 271 267 C 276 249 285 237 297 229 C 309 221 326 217 348 217 C 402 217 430 248 430 311 C 430 316 437 319 452 321 C 466 323 493 324 532 324 C 587 324 620 322 630 318 C 640 314 645 307 645 295 Z M 426 625 L 426 680 C 426 710 418 732 404 748 C 389 764 370 772 346 772 C 321 772 301 763 287 747 C 273 731 266 708 266 680 L 266 629 C 266 618 272 610 284 605 C 296 600 316 598 344 598 C 370 598 391 600 405 604 C 419 608 426 615 426 625 Z" unicode="e" />
<glyph horiz-adv-x="477" d="M 457 856 C 457 797 452 768 443 768 L 430 768 C 377 768 345 766 333 762 C 321 758 315 749 315 733 L 315 37 C 315 20 311 10 303 6 C 295 2 264 0 211 0 C 156 0 124 1 115 5 C 106 9 102 18 102 33 L 102 733 C 102 749 99 760 93 764 C 87 768 71 770 45 770 C 34 770 28 772 26 776 C 24 780 22 787 21 798 C 20 808 20 828 20 858 C 20 905 21 934 23 946 C 25 957 31 963 41 963 C 58 963 71 963 81 965 C 90 966 96 971 100 981 L 102 1017 L 102 1094 C 102 1176 117 1243 149 1293 C 181 1343 222 1379 272 1401 C 322 1423 376 1434 434 1434 C 441 1434 446 1430 448 1423 C 450 1415 452 1401 452 1379 L 451 1327 C 451 1285 449 1257 447 1243 C 445 1229 439 1223 430 1223 C 409 1223 388 1216 367 1203 C 346 1189 332 1172 325 1152 C 318 1132 315 1099 315 1053 C 315 1017 316 993 319 981 C 322 969 346 963 392 963 L 432 963 C 442 963 449 958 452 948 C 455 938 457 908 457 856 Z" unicode="f" />
<glyph horiz-adv-x="707" d="M 645 -115 C 645 -209 618 -281 565 -333 C 511 -384 439 -410 348 -410 C 259 -410 187 -382 133 -328 C 78 -274 51 -203 51 -115 C 51 -107 53 -103 58 -101 C 63 -99 79 -97 105 -97 L 160 -98 L 237 -95 C 249 -95 256 -100 256 -111 C 256 -145 265 -171 283 -190 C 301 -209 322 -219 348 -219 C 378 -219 401 -206 417 -180 C 432 -154 440 -110 440 -50 L 440 2 C 440 38 437 57 431 57 L 422 51 C 394 17 357 0 311 0 C 231 0 167 26 121 78 C 74 130 51 202 51 293 L 51 692 C 51 782 74 854 122 906 C 169 958 233 985 315 985 C 357 985 392 967 419 933 L 436 911 L 443 907 C 448 907 451 922 451 954 C 451 965 453 972 457 976 C 461 979 476 981 502 982 L 557 981 C 591 981 614 980 626 980 C 638 980 645 975 645 965 L 645 -115 Z M 430 354 L 430 637 C 430 727 402 772 348 772 C 292 772 264 727 264 637 L 264 354 C 264 305 270 270 284 249 C 298 227 319 217 348 217 C 376 217 396 227 410 249 C 423 271 430 306 430 354 Z" unicode="g" />
<glyph horiz-adv-x="719" d="M 657 20 C 657 10 649 4 633 2 C 617 0 591 0 553 0 L 497 0 C 473 0 457 1 449 3 C 440 5 436 10 436 16 L 436 651 C 436 689 429 719 415 741 C 401 763 382 774 358 774 C 333 774 314 763 301 742 C 287 721 281 691 281 651 L 281 23 C 281 13 276 7 268 4 C 260 1 245 0 223 0 L 162 0 C 122 0 95 0 81 2 C 67 4 61 10 61 20 L 61 1417 C 61 1427 69 1433 85 1434 C 101 1435 126 1436 158 1436 C 190 1436 216 1435 236 1434 C 256 1433 266 1427 266 1417 L 266 969 C 266 945 269 934 277 934 C 280 934 284 936 289 940 C 300 951 317 961 340 971 C 363 980 383 985 401 985 C 479 985 542 958 588 905 C 634 852 657 780 657 690 L 657 20 Z" unicode="h" />
<glyph horiz-adv-x="362" d="M 300 1209 C 300 1187 293 1170 281 1157 C 269 1143 251 1133 227 1127 C 203 1120 183 1117 167 1117 C 135 1117 107 1130 85 1158 C 63 1186 52 1217 52 1251 C 52 1294 61 1328 79 1352 C 97 1376 128 1389 171 1389 C 194 1389 215 1383 235 1371 C 254 1359 269 1342 281 1320 C 292 1298 298 1261 300 1209 Z M 291 37 C 291 21 288 12 282 8 C 276 4 266 1 251 1 C 236 0 211 0 176 0 C 132 0 106 0 96 2 C 86 3 80 5 77 9 C 73 12 72 20 72 33 L 72 950 C 72 966 77 975 87 979 C 97 983 126 985 176 985 C 224 985 253 984 263 982 C 273 980 280 978 284 974 C 288 970 291 962 291 948 L 291 37 Z" unicode="i" />
<glyph horiz-adv-x="362" d="M 300 1209 C 300 1187 294 1169 282 1156 C 270 1143 251 1133 227 1127 C 203 1120 183 1117 167 1117 C 136 1117 109 1130 86 1157 C 63 1184 52 1215 52 1251 C 52 1271 55 1293 63 1318 C 71 1342 83 1360 101 1372 C 119 1383 142 1389 171 1389 C 207 1389 236 1376 260 1352 C 284 1327 297 1296 299 1260 L 300 1209 Z M 289 -117 C 289 -312 181 -410 -35 -410 C -44 -410 -50 -404 -54 -392 C -57 -380 -59 -353 -59 -311 C -59 -266 -57 -237 -53 -225 C -49 -213 -44 -207 -37 -207 C 7 -207 36 -198 51 -181 C 66 -163 74 -128 74 -76 L 74 948 C 74 962 77 971 83 975 C 89 979 99 981 113 983 C 127 984 149 985 180 985 C 212 985 235 984 249 983 C 263 981 274 979 280 975 C 286 971 289 963 289 950 L 289 -117 Z" unicode="j" />
<glyph horiz-adv-x="698" d="M 678 23 C 678 14 668 8 648 5 C 628 1 598 0 559 0 C 526 0 502 1 486 4 C 470 7 460 15 455 29 L 344 338 C 336 364 326 377 315 377 C 310 377 303 372 294 362 C 285 352 281 340 281 326 L 281 37 C 281 25 274 17 260 11 C 246 5 215 2 166 2 C 126 2 99 4 84 9 C 68 14 61 22 61 33 L 61 1403 C 61 1422 96 1432 166 1432 C 242 1432 281 1421 281 1401 L 281 686 C 281 663 284 652 290 652 C 296 652 313 687 339 757 C 365 827 390 896 414 963 C 418 973 429 978 447 980 C 465 982 486 983 510 983 C 599 983 644 977 644 965 L 494 631 C 481 605 475 588 475 578 C 475 559 479 540 487 522 C 514 454 578 289 678 25 L 678 23 Z" unicode="k" />
<glyph horiz-adv-x="352" d="M 285 33 C 285 19 281 10 275 7 C 269 4 256 2 237 1 C 218 0 196 0 170 0 C 119 0 89 1 81 4 C 72 6 68 15 68 29 L 68 1399 C 68 1410 69 1417 73 1421 C 77 1425 84 1427 95 1429 C 106 1431 131 1432 170 1432 C 221 1432 253 1430 266 1426 C 278 1422 285 1413 285 1397 L 285 33 Z" unicode="l" />
<glyph horiz-adv-x="1028" d="M 967 20 C 967 12 961 6 950 4 C 938 1 910 0 864 0 C 810 0 777 1 764 3 C 751 5 745 10 745 18 L 745 643 C 745 687 743 715 739 729 C 735 742 729 752 720 760 C 710 768 697 772 680 772 C 665 772 654 768 646 761 C 638 754 632 744 629 732 C 626 719 625 691 625 649 L 625 20 C 625 10 617 4 602 2 C 586 0 559 0 520 0 C 474 0 443 1 427 3 C 411 5 403 10 403 18 L 403 651 C 403 701 398 733 388 749 C 378 764 362 772 342 772 C 321 772 306 764 296 749 C 286 733 281 700 281 649 L 281 23 C 281 12 275 5 263 3 C 251 1 218 0 164 0 C 116 0 86 1 76 3 C 66 5 61 11 61 20 L 61 967 C 61 973 64 978 72 980 C 79 982 90 983 106 983 L 150 983 L 208 984 C 230 984 245 982 252 978 C 258 974 262 965 262 950 C 262 924 263 909 266 907 L 268 905 L 272 909 C 279 927 295 943 321 959 C 347 975 371 983 393 983 C 425 983 451 978 470 969 C 488 960 502 950 512 940 C 522 929 528 919 532 910 C 536 901 539 897 543 897 C 547 897 552 901 557 910 C 562 919 570 929 582 940 C 593 950 609 960 629 969 C 649 978 677 983 713 983 C 792 983 854 958 899 910 C 944 862 967 787 967 686 L 967 20 Z" unicode="m" />
<glyph horiz-adv-x="719" d="M 657 20 C 657 12 651 6 641 4 C 631 1 602 0 555 0 C 503 0 470 1 456 3 C 442 5 436 9 436 16 L 436 643 C 436 693 431 727 421 745 C 411 763 395 772 375 772 C 341 772 316 760 302 736 C 288 712 281 683 281 649 L 281 23 C 281 13 277 7 271 5 C 265 3 252 1 234 1 C 215 0 192 0 164 0 C 116 0 87 1 77 3 C 66 5 61 10 61 20 L 61 967 C 61 973 64 978 72 980 C 79 982 91 983 107 983 L 154 983 L 211 984 C 232 984 246 982 252 978 C 258 974 262 966 262 952 C 262 914 263 895 266 895 C 268 895 272 898 276 905 C 286 924 307 942 337 958 C 367 974 394 983 418 983 C 496 983 555 957 596 907 C 636 856 657 782 657 686 L 657 20 Z" unicode="n" />
<glyph horiz-adv-x="698" d="M 647 295 C 647 201 620 128 567 77 C 514 25 441 0 348 0 C 258 0 186 27 132 82 C 78 136 51 207 51 295 L 51 692 C 51 778 78 849 134 903 C 189 957 260 985 348 985 C 436 985 508 958 564 905 C 619 851 647 780 647 692 L 647 295 Z M 430 354 L 430 637 C 430 727 402 772 348 772 C 322 772 302 760 288 738 C 273 716 266 682 266 637 L 266 354 C 266 262 293 217 348 217 C 375 217 395 227 409 248 C 423 268 430 304 430 354 Z" unicode="o" />
<glyph horiz-adv-x="709" d="M 657 293 C 657 205 632 134 584 80 C 536 26 473 0 395 0 C 381 0 362 4 339 13 C 316 22 299 32 289 43 L 278 48 C 270 48 266 36 266 14 L 266 -393 C 266 -401 263 -406 257 -408 C 251 -409 240 -410 224 -410 L 164 -410 C 121 -410 93 -409 80 -407 C 67 -405 61 -400 61 -391 L 61 965 C 61 972 64 977 72 979 C 79 981 91 983 107 983 L 154 983 L 221 984 C 238 984 249 981 254 976 C 259 970 262 957 264 937 C 264 919 267 911 271 911 L 276 913 L 290 931 C 314 967 349 985 395 985 C 472 985 535 958 584 906 C 632 853 657 781 657 690 L 657 293 Z M 440 354 L 440 637 C 440 727 412 772 358 772 C 332 772 312 760 298 738 C 283 716 276 682 276 637 L 276 354 C 276 262 303 217 358 217 C 385 217 405 227 419 248 C 433 268 440 304 440 354 Z" unicode="p" />
<glyph horiz-adv-x="709" d="M 647 -391 C 647 -400 640 -405 626 -407 C 612 -409 585 -410 545 -410 C 511 -410 487 -409 474 -409 C 461 -408 452 -407 448 -406 C 444 -404 442 -400 442 -393 L 442 14 C 442 36 438 48 431 48 C 427 48 424 46 420 43 C 404 30 386 20 364 12 C 342 4 324 0 311 0 C 262 0 217 12 177 36 C 137 60 106 95 84 139 C 62 183 51 234 51 293 L 51 690 C 51 780 75 852 123 905 C 171 958 234 985 311 985 C 355 985 390 966 417 929 L 430 911 L 435 910 C 441 910 444 918 444 934 L 444 950 C 444 964 447 973 454 977 C 460 981 476 983 500 984 L 557 983 C 591 983 614 982 627 982 C 640 981 647 975 647 965 L 647 -391 Z M 432 354 L 432 637 C 432 727 404 772 348 772 C 322 772 302 760 288 738 C 273 716 266 682 266 637 L 266 354 C 266 305 272 270 286 249 C 299 227 320 217 348 217 C 404 217 432 262 432 354 Z" unicode="q" />
<glyph horiz-adv-x="481" d="M 461 905 C 461 832 458 792 453 784 C 444 773 426 768 399 768 C 366 768 338 755 315 729 C 292 703 281 669 281 627 L 281 23 C 281 15 279 10 275 8 C 271 5 264 3 253 2 C 242 0 212 0 164 0 C 118 0 89 1 78 3 C 66 5 61 11 61 20 L 61 967 C 61 973 63 976 68 978 C 73 980 86 981 108 982 L 154 981 L 209 982 C 232 982 247 980 253 976 C 259 972 262 964 262 952 C 262 924 264 911 269 911 L 270 911 L 284 926 C 296 940 315 953 341 965 C 367 977 396 983 428 983 C 443 983 452 980 455 976 C 457 972 459 964 460 954 C 460 943 461 927 461 905 Z" unicode="r" />
<glyph horiz-adv-x="651" d="M 610 260 C 610 190 582 129 526 77 C 470 25 403 0 326 0 C 244 0 176 26 122 80 C 68 134 41 203 41 287 C 41 293 45 296 53 298 C 61 300 72 301 88 301 L 135 301 C 173 301 200 300 217 300 C 233 300 242 297 242 291 C 242 222 268 188 322 188 C 374 188 401 217 401 276 C 401 304 392 329 374 350 C 356 371 327 391 289 409 C 217 441 167 470 137 496 C 107 522 84 553 69 590 C 54 626 47 669 47 719 C 47 764 59 807 83 849 C 107 891 139 923 181 947 C 222 971 269 983 322 983 C 399 983 464 955 517 899 C 569 843 596 774 596 694 C 596 688 588 684 574 684 C 560 684 534 684 498 684 C 456 684 427 685 412 687 C 396 689 389 692 389 698 C 389 732 382 758 368 776 C 354 794 337 803 317 803 C 269 803 246 773 246 715 C 246 691 255 672 273 656 C 291 640 313 624 341 610 L 428 561 C 549 493 610 393 610 260 Z" unicode="s" />
<glyph horiz-adv-x="496" d="M 459 96 L 459 44 C 459 26 458 15 456 9 C 454 3 448 0 440 0 C 326 0 241 23 187 70 C 133 116 106 191 106 293 L 106 756 C 106 774 85 784 45 784 C 33 784 26 789 24 799 C 21 809 20 831 20 864 C 20 901 21 926 25 939 C 28 951 35 958 47 958 C 73 958 89 960 96 964 C 102 968 106 981 106 1001 L 106 1114 C 106 1124 107 1130 111 1134 C 114 1137 120 1139 130 1141 C 140 1142 168 1143 215 1143 C 270 1143 302 1141 312 1137 C 321 1133 326 1124 326 1110 L 326 1001 C 326 984 330 973 340 969 C 350 965 378 963 424 963 C 436 963 445 955 449 940 C 453 924 455 900 455 866 C 455 827 454 803 452 795 C 450 786 442 782 430 782 L 403 782 C 384 782 368 781 354 779 C 340 777 332 772 330 766 C 327 759 326 748 326 733 L 326 322 C 326 280 334 249 351 231 C 367 212 396 203 438 203 C 446 203 452 195 455 180 C 457 165 459 137 459 96 Z" unicode="t" />
<glyph horiz-adv-x="709" d="M 647 16 C 647 9 644 5 638 3 C 632 1 620 0 602 0 L 557 0 C 499 0 467 2 459 8 C 449 18 444 34 444 57 C 444 82 442 95 440 95 C 438 95 436 91 432 84 C 418 58 398 38 373 22 C 348 6 322 -2 295 -2 C 216 -2 156 23 114 74 C 72 125 51 199 51 297 L 51 963 C 51 972 58 978 72 980 C 86 982 112 983 152 983 C 194 983 223 982 240 980 C 257 978 266 972 266 963 L 266 352 C 266 294 271 256 282 238 C 293 220 310 211 332 211 C 398 211 432 256 432 346 L 432 956 C 432 967 436 974 445 977 C 454 979 486 981 541 981 C 589 981 619 980 630 978 C 641 976 647 971 647 963 L 647 16 Z" unicode="u" />
<glyph horiz-adv-x="643" d="M 315 0 C 265 0 234 3 220 9 C 206 15 197 25 195 39 L 20 959 C 20 973 51 981 115 981 C 163 981 196 978 212 973 C 228 968 238 961 240 952 L 305 350 C 305 336 309 330 317 330 C 323 330 327 332 328 338 C 329 343 330 348 332 352 L 406 954 C 408 973 446 983 522 983 C 589 983 623 973 623 953 L 574 712 C 552 607 503 381 428 33 C 424 18 413 9 394 5 C 374 1 348 0 315 0 Z" unicode="v" />
<glyph horiz-adv-x="838" d="M 626 -2 L 552 2 C 506 3 482 11 481 27 C 473 99 462 186 448 288 L 434 385 C 432 389 431 393 430 399 C 429 405 426 408 420 408 C 412 408 408 401 408 387 L 354 18 C 351 5 328 -1 286 -1 L 227 2 C 183 3 161 11 160 27 L 20 948 C 20 968 48 979 106 979 C 143 979 169 976 185 972 C 201 968 209 959 211 946 L 224 835 L 270 399 C 270 385 274 379 283 379 C 289 379 292 381 293 387 C 294 392 295 397 297 401 L 323 688 L 346 956 C 347 965 352 971 360 975 C 368 979 386 981 414 981 C 440 981 460 979 474 977 C 487 974 494 967 496 956 L 543 403 C 543 389 547 383 555 383 C 561 383 564 385 565 391 C 566 396 567 401 569 406 L 627 961 C 628 970 635 976 649 979 C 663 981 683 983 709 983 C 741 983 767 981 787 978 C 807 974 817 967 817 957 L 817 954 C 747 490 700 178 674 20 C 671 5 655 -2 626 -2 Z" unicode="w" />
<glyph horiz-adv-x="653" d="M 634 21 C 634 7 601 0 535 0 C 503 0 476 1 452 3 C 428 5 415 12 412 23 L 334 291 C 332 294 331 298 330 302 C 328 306 326 309 322 309 C 316 309 313 306 311 302 C 309 297 308 293 307 289 C 279 186 253 99 229 27 C 226 18 217 11 203 7 C 189 2 158 0 111 0 C 50 0 20 7 20 23 L 20 27 C 76 173 128 314 176 451 C 180 459 182 475 182 498 C 182 520 179 539 174 553 L 29 958 C 29 964 37 970 54 974 C 70 978 92 981 119 981 C 201 981 244 972 248 954 L 309 700 C 310 696 311 692 313 688 C 314 684 317 682 322 682 C 326 682 328 684 329 689 C 329 694 330 698 332 702 L 393 965 C 394 975 419 981 469 981 L 510 981 C 542 981 567 978 583 974 C 599 969 608 964 608 958 L 608 956 L 465 555 C 459 540 457 522 457 500 C 457 477 459 462 463 455 L 634 21 Z" unicode="x" />
<glyph horiz-adv-x="674" d="M 225 -410 C 163 -410 133 -400 133 -382 L 213 6 C 217 22 219 44 219 74 C 219 96 217 117 213 137 L 20 963 C 20 976 55 983 127 983 C 163 983 189 981 207 977 C 224 973 234 966 236 954 C 238 942 267 767 324 430 C 324 416 328 410 336 410 C 342 410 345 412 346 418 C 347 423 348 428 350 432 C 396 689 427 864 442 958 C 444 969 455 976 477 979 C 498 981 524 983 555 983 C 620 983 653 974 653 957 L 653 954 L 324 -383 C 320 -395 310 -403 292 -406 C 274 -408 252 -410 225 -410 Z" unicode="y" />
<glyph horiz-adv-x="606" d="M 575 84 L 575 51 C 575 31 572 17 568 10 C 563 3 555 0 545 0 L 78 0 C 68 0 61 2 56 8 C 50 13 47 22 45 36 C 43 50 41 102 41 194 C 41 216 42 230 45 236 L 322 723 C 325 730 327 739 327 749 C 327 771 320 787 307 799 C 299 801 285 803 264 803 L 90 803 C 77 803 68 809 64 821 C 59 833 57 853 57 883 C 57 922 59 948 64 962 C 68 976 75 983 84 983 L 526 983 C 538 983 548 981 554 977 C 560 973 564 965 566 955 C 568 945 569 922 569 887 L 569 853 C 569 804 565 774 559 762 L 272 246 L 269 232 C 269 219 270 208 274 200 C 278 192 283 187 290 185 C 296 183 314 182 344 182 L 545 182 C 565 182 575 149 575 84 Z" unicode="z" />
<glyph horiz-adv-x="492" d="M 471 1522 L 471 1498 C 471 1452 467 1430 459 1430 C 424 1430 395 1418 372 1395 C 349 1372 338 1343 338 1307 L 338 901 C 338 864 334 834 326 812 C 318 789 310 771 301 758 C 292 744 284 735 277 729 C 269 723 266 718 266 715 C 266 711 269 706 277 700 C 293 686 308 664 320 634 C 332 604 338 568 338 528 L 340 133 C 340 49 379 8 459 8 C 465 8 469 -13 469 -56 L 469 -80 L 470 -110 C 470 -156 466 -180 459 -180 C 243 -180 135 -79 135 123 L 135 518 C 135 548 123 576 101 602 C 78 628 55 641 31 641 C 25 641 22 646 21 658 C 20 670 20 688 20 713 C 20 736 20 754 21 768 C 22 781 25 788 31 788 C 57 788 80 801 102 827 C 124 853 135 881 135 911 L 135 1313 C 135 1413 162 1489 217 1539 C 272 1589 353 1614 459 1614 C 467 1614 472 1592 472 1549 L 471 1522 Z" unicode="{" />
<glyph horiz-adv-x="362" d="M 291 -113 C 291 -123 284 -131 270 -136 C 256 -140 225 -143 178 -143 L 141 -143 C 95 -143 72 -134 72 -117 L 72 1546 C 72 1566 106 1577 174 1577 C 220 1577 251 1574 267 1569 C 283 1564 291 1556 291 1544 L 291 -113 Z" unicode="|" />
<glyph horiz-adv-x="492" d="M 473 715 C 473 695 472 678 472 663 C 471 648 468 641 463 641 C 439 641 415 628 392 603 C 369 577 358 549 358 518 L 358 123 C 358 -79 249 -180 33 -180 C 26 -180 23 -157 23 -112 L 23 -82 L 23 -58 C 23 -14 26 8 33 8 C 113 8 154 49 154 133 L 154 528 C 154 564 157 594 165 617 C 172 639 180 657 189 671 C 198 684 206 694 214 700 C 221 706 225 711 225 715 C 225 717 221 722 214 728 C 206 734 198 743 189 756 C 180 769 172 787 165 810 C 157 833 154 863 154 901 L 154 1307 C 154 1343 142 1373 120 1396 C 97 1418 68 1430 33 1430 C 24 1430 20 1453 20 1499 L 20 1524 L 20 1550 C 20 1592 24 1614 33 1614 C 138 1614 218 1588 274 1538 C 330 1488 358 1413 358 1313 L 358 911 C 358 881 368 853 390 827 C 412 801 436 788 463 788 C 469 788 473 771 473 738 L 473 715 Z" unicode="}" />
<glyph horiz-adv-x="907" d="M 795 764 C 795 748 777 722 743 686 C 708 650 675 621 645 601 C 615 581 585 571 557 571 C 506 571 469 582 446 604 L 421 637 C 403 663 388 681 378 691 C 368 700 357 705 346 705 C 333 705 321 700 310 692 C 299 683 282 664 258 634 C 226 595 204 576 192 576 C 185 576 176 582 164 595 C 152 607 144 616 140 620 C 136 624 133 629 130 634 C 127 638 125 643 123 649 L 120 658 C 120 667 126 681 139 699 C 152 717 181 747 225 791 C 271 834 312 856 348 856 L 374 856 C 421 856 459 834 487 792 C 506 762 520 742 530 732 C 540 722 550 717 561 717 C 579 717 609 742 652 792 C 662 804 673 816 685 828 C 696 840 705 846 711 846 C 719 846 735 834 760 812 C 785 789 797 773 795 764 Z" unicode="~" />
<glyph horiz-adv-x="403" d="M 375 610 C 375 587 373 571 371 563 C 368 555 363 551 356 551 L 314 552 C 284 552 270 544 270 530 L 270 430 C 270 419 249 414 207 414 L 185 414 C 158 414 145 418 145 428 L 145 524 C 145 535 143 542 139 546 C 135 549 126 551 110 552 L 72 551 C 60 551 53 555 49 563 C 45 571 43 586 43 608 C 43 630 44 647 46 658 C 48 668 56 674 70 674 C 95 674 114 675 126 679 C 138 683 145 692 145 707 L 145 1145 C 145 1157 141 1165 135 1170 C 128 1174 116 1177 100 1177 L 70 1176 C 56 1176 48 1181 46 1191 C 44 1201 43 1218 43 1241 C 43 1262 45 1277 49 1285 C 53 1293 60 1298 72 1298 L 110 1298 C 124 1298 134 1299 138 1303 C 142 1306 145 1313 145 1325 L 145 1423 C 145 1430 151 1434 165 1436 C 178 1437 192 1438 207 1438 C 249 1438 270 1431 270 1419 L 270 1319 C 270 1304 285 1297 316 1297 L 352 1298 C 367 1298 375 1278 375 1239 C 375 1217 374 1201 372 1191 C 370 1181 364 1176 356 1176 L 310 1178 C 283 1178 270 1169 270 1151 L 270 700 C 270 682 287 673 321 673 L 358 674 C 366 674 371 668 373 658 C 374 647 375 631 375 610 Z" unicode="‡" />
<glyph horiz-adv-x="1135" d="M 1067 936 C 1067 846 1044 763 1000 687 C 955 611 894 550 816 506 C 738 462 655 440 567 440 C 478 440 395 462 319 506 C 242 550 181 611 137 688 C 92 764 70 847 70 936 C 70 1024 91 1107 135 1184 C 179 1261 239 1322 317 1368 C 394 1413 477 1436 567 1436 C 656 1436 740 1413 818 1368 C 896 1322 957 1261 1001 1185 C 1045 1108 1067 1025 1067 936 Z M 961 940 C 961 1010 943 1075 908 1135 C 873 1195 826 1242 766 1277 C 706 1311 641 1329 571 1329 C 501 1329 436 1311 376 1277 C 316 1242 268 1194 233 1134 C 197 1073 180 1008 180 940 C 180 870 197 805 233 745 C 268 685 316 638 376 604 C 436 570 501 553 571 553 C 641 553 706 570 766 604 C 826 638 874 685 909 745 C 943 805 961 870 961 940 Z M 752 1040 C 752 999 736 966 705 941 C 673 915 632 903 580 903 L 543 903 C 525 903 514 901 510 899 C 506 897 504 891 504 881 L 504 682 C 504 676 501 673 496 672 C 490 670 476 670 453 670 C 435 670 423 670 417 671 C 411 672 408 676 408 682 L 408 1206 C 408 1215 410 1222 416 1227 C 424 1229 435 1231 451 1231 L 580 1231 C 632 1231 673 1218 705 1192 C 736 1166 752 1132 752 1090 L 752 1040 Z M 645 1049 L 645 1083 C 645 1106 638 1121 624 1129 C 610 1137 585 1141 547 1141 L 504 1141 L 503 1137 L 503 1128 L 504 1114 L 504 1014 C 504 1006 505 1001 508 999 C 510 997 518 997 532 997 L 551 997 C 588 997 613 1000 626 1008 C 638 1016 645 1029 645 1049 Z" unicode="℗" />
<glyph horiz-adv-x="303" d="M 252 772 C 252 735 242 709 223 694 C 204 679 178 672 145 672 C 115 672 92 682 76 703 C 59 724 51 749 51 778 C 51 815 59 843 75 863 C 91 883 114 893 144 893 C 178 893 204 884 223 866 C 242 848 252 816 252 772 Z" unicode="∙" />
<glyph horiz-adv-x="1536" d="M 1071 395 C 973 395 896 423 840 479 C 814 509 790 545 768 588 C 674 459 565 395 440 395 C 336 395 253 432 190 508 C 127 583 96 683 96 809 C 96 925 133 1022 207 1100 C 281 1178 368 1217 468 1217 C 616 1217 720 1154 780 1028 C 854 1154 961 1217 1100 1217 C 1198 1217 1279 1182 1345 1112 C 1411 1042 1444 945 1444 819 C 1444 699 1409 598 1340 517 C 1271 435 1181 395 1071 395 Z M 471 1049 C 408 1049 356 1026 316 982 C 276 937 256 874 256 793 C 256 709 271 648 302 610 C 332 572 381 553 449 553 C 567 553 650 638 700 809 C 653 969 577 1049 471 1049 Z M 1071 555 C 1127 555 1175 578 1217 625 C 1259 672 1280 735 1280 815 C 1280 881 1264 939 1234 988 C 1203 1036 1151 1061 1079 1061 C 1008 1061 955 1030 920 969 C 894 919 870 865 848 805 C 856 702 880 636 920 608 C 962 572 1012 555 1071 555 Z" unicode="∞" />
<glyph horiz-adv-x="963" d="M 369 0 C 336 0 311 1 293 3 C 275 5 262 9 254 15 C 246 20 238 31 231 49 L 94 388 L 20 565 C 16 575 14 585 14 594 C 14 618 51 631 125 631 C 156 631 180 629 196 625 C 212 621 223 613 227 600 L 354 266 L 733 1411 C 734 1419 744 1424 763 1427 C 782 1430 812 1432 852 1432 C 880 1432 903 1429 921 1423 C 939 1417 948 1409 949 1398 L 469 61 C 460 38 452 23 446 17 C 440 11 431 6 421 4 C 411 1 393 0 369 0 Z" unicode="√" />
<glyph horiz-adv-x="205" d="" unicode=" " />
<glyph horiz-adv-x="362" d="M 74 600 C 74 615 78 625 86 629 C 94 633 108 635 130 636 C 151 636 171 637 189 637 C 223 637 247 636 259 635 C 271 633 279 631 285 628 C 290 625 293 617 293 604 L 293 -372 C 293 -389 287 -399 277 -403 C 266 -407 237 -409 189 -409 C 148 -409 121 -409 108 -407 C 94 -406 85 -403 81 -399 C 76 -395 74 -386 74 -370 L 74 600 Z M 194 1029 C 222 1029 245 1024 262 1012 C 278 1000 290 982 296 958 C 302 934 305 914 305 900 C 305 864 293 833 270 807 C 247 780 221 767 192 767 C 175 767 155 770 132 777 C 109 783 92 793 80 806 C 68 818 62 835 62 857 L 64 907 C 66 942 78 971 101 995 C 124 1018 155 1029 194 1029 Z" unicode="¡" />
<glyph horiz-adv-x="686" d="M 647 295 C 647 226 631 167 600 118 C 568 69 525 35 471 16 C 464 13 461 5 461 -8 L 461 -113 C 461 -122 453 -129 437 -134 C 421 -138 390 -141 346 -141 C 278 -141 244 -132 244 -115 L 244 -8 C 244 -4 243 0 243 5 C 243 10 239 14 233 16 C 175 38 131 74 99 124 C 67 174 51 231 51 295 L 51 690 C 51 822 111 915 233 969 C 240 972 244 976 244 980 L 244 1116 C 244 1124 250 1131 264 1136 C 278 1140 305 1143 346 1143 C 392 1143 423 1141 439 1137 C 455 1133 463 1126 463 1118 L 463 991 L 463 976 C 463 972 465 968 471 965 C 588 921 647 829 647 688 C 647 677 641 670 630 668 C 618 665 584 664 528 664 L 475 664 C 456 664 443 665 436 667 C 429 669 426 673 426 680 C 426 704 419 725 406 742 C 392 759 373 768 348 768 C 296 768 270 726 270 643 L 270 340 C 270 295 276 263 289 245 C 302 226 322 217 348 217 C 371 217 390 224 404 240 C 418 255 426 277 426 305 C 426 313 434 319 450 322 C 466 324 495 326 535 326 C 585 326 616 324 628 321 C 640 317 647 309 647 295 Z" unicode="¢" />
<glyph horiz-adv-x="702" d="M 662 102 C 662 64 659 38 655 23 C 650 7 640 0 625 0 L 162 0 L 114 0 C 83 0 68 13 68 39 L 68 78 L 68 1145 C 68 1228 95 1297 151 1352 C 207 1406 278 1434 365 1434 C 453 1434 524 1406 576 1352 C 628 1297 655 1228 655 1145 L 655 1040 C 655 1027 647 1018 631 1014 C 615 1010 586 1008 543 1008 C 503 1008 475 1010 461 1015 C 447 1019 440 1029 440 1044 L 440 1137 C 440 1159 432 1178 418 1196 C 404 1214 386 1223 365 1223 C 340 1223 321 1212 307 1190 C 293 1168 287 1140 287 1106 L 287 827 C 287 817 290 810 297 804 C 304 798 312 795 321 795 L 432 795 C 447 795 457 787 463 772 C 468 757 471 731 471 694 C 471 660 468 635 464 619 C 459 603 448 596 432 596 L 352 596 C 322 596 304 593 297 587 C 290 581 287 574 287 566 L 287 260 C 287 229 291 211 300 207 C 308 203 328 201 358 201 L 623 201 C 638 201 648 194 654 180 C 659 166 662 140 662 102 Z" unicode="£" />
<glyph horiz-adv-x="1151" d="M 1057 391 L 940 285 L 739 500 C 691 468 635 453 571 453 C 509 453 455 468 408 500 L 209 285 L 92 391 L 299 608 C 281 634 268 660 262 686 C 255 712 252 743 252 780 C 252 847 267 904 299 952 L 92 1167 L 209 1276 L 408 1061 C 455 1092 509 1108 571 1108 C 635 1108 691 1092 739 1061 L 944 1276 L 1061 1155 L 852 952 C 871 924 884 897 890 871 C 896 844 899 814 899 780 C 899 716 882 658 848 608 L 1057 391 Z M 748 780 C 748 833 731 876 697 910 C 663 944 621 961 571 961 C 521 961 479 944 447 910 C 415 876 399 833 399 780 C 399 726 415 684 449 652 C 483 620 523 604 571 604 C 624 604 667 620 699 652 C 731 684 748 726 748 780 Z" unicode="¤" />
<glyph horiz-adv-x="694" d="M 516 831 C 516 823 521 819 532 819 C 594 819 625 808 625 786 L 627 738 C 627 722 624 708 618 695 C 612 682 597 676 575 676 L 500 676 C 490 676 484 675 481 674 C 478 672 476 667 475 659 C 473 651 471 645 470 640 C 469 634 467 617 464 588 C 461 558 461 542 463 539 C 463 530 464 524 466 522 C 468 519 477 518 492 518 C 528 518 556 517 575 515 C 594 513 607 511 615 507 C 623 503 627 496 627 485 L 627 444 C 627 428 628 414 631 403 L 632 395 C 632 389 630 384 627 379 C 624 373 612 371 592 371 L 477 371 C 471 371 467 370 465 368 C 462 366 461 360 461 352 L 461 16 C 461 5 433 0 377 0 L 318 0 C 266 0 240 7 240 23 L 240 348 C 240 358 239 365 237 368 C 235 371 229 373 221 373 L 117 373 C 105 373 94 376 84 382 C 74 388 69 395 69 404 L 73 448 L 70 491 C 70 501 74 508 83 512 C 92 516 108 518 131 518 L 223 518 C 233 518 238 525 238 539 C 238 561 237 576 235 584 L 231 598 C 225 638 220 661 218 668 C 216 674 209 678 199 678 L 117 678 C 105 678 94 681 84 687 C 74 693 69 700 69 709 L 73 751 L 70 791 C 70 802 77 809 91 813 C 105 817 132 819 172 819 C 179 819 183 823 183 833 L 180 848 L 30 1407 C 30 1423 63 1432 129 1432 C 175 1432 206 1429 223 1424 C 239 1418 248 1410 250 1399 C 268 1289 298 1121 340 895 C 340 883 344 877 352 877 C 356 877 358 879 359 884 C 359 889 360 893 362 897 C 402 1119 431 1287 449 1399 C 451 1421 487 1432 557 1432 C 600 1432 629 1429 643 1425 C 657 1421 664 1415 664 1407 L 664 1403 C 598 1147 550 960 518 842 L 516 831 Z" unicode="¥" />
<glyph horiz-adv-x="639" d="M 215 788 L 215 1636 L 424 1636 L 424 788 L 215 788 Z M 215 -412 L 215 440 L 424 440 L 424 -412 L 215 -412 Z" unicode="¦" />
<glyph horiz-adv-x="721" d="M 653 141 C 653 81 640 30 615 -11 C 590 -53 555 -86 511 -109 C 467 -131 418 -143 365 -143 C 310 -143 260 -131 214 -109 C 168 -86 133 -53 107 -11 C 81 31 68 83 68 143 L 68 242 C 68 259 104 268 178 268 C 219 268 246 266 259 262 C 272 258 279 253 279 246 L 279 158 C 279 129 287 106 303 88 C 319 70 341 61 367 61 C 395 61 417 69 433 87 C 449 104 457 128 457 160 C 457 198 442 233 414 266 C 385 299 336 338 266 383 C 202 424 154 468 122 516 C 90 563 74 616 74 674 C 74 714 84 747 104 774 C 124 800 149 819 180 831 C 183 832 185 834 185 837 C 185 841 182 845 178 850 L 153 875 C 128 897 108 931 92 978 C 76 1025 68 1080 68 1143 C 68 1228 94 1298 148 1352 C 201 1406 270 1434 356 1434 C 440 1434 509 1407 562 1354 C 614 1301 641 1233 641 1149 L 641 1049 C 641 1040 632 1035 614 1033 C 596 1031 566 1030 524 1030 C 491 1030 468 1030 454 1032 C 440 1033 434 1039 434 1051 L 434 1118 C 434 1196 408 1235 356 1235 C 328 1235 307 1225 293 1205 C 279 1185 272 1158 272 1124 C 272 1090 277 1059 289 1033 C 300 1006 316 981 336 958 C 356 935 397 901 459 855 C 517 810 557 775 578 751 C 599 727 615 700 627 672 C 639 643 645 611 645 575 C 645 544 636 512 619 480 C 601 448 579 424 553 410 C 546 408 543 403 543 397 C 543 388 555 369 581 340 C 607 310 625 280 636 250 C 647 220 653 184 653 141 Z M 461 590 C 461 612 453 635 437 659 C 421 683 398 706 368 728 C 338 750 317 761 307 761 C 293 761 282 753 274 738 C 266 722 262 703 262 680 C 262 629 307 572 397 508 L 419 501 C 433 501 443 509 450 525 C 457 541 461 563 461 590 Z" unicode="§" />
<glyph horiz-adv-x="698" d="M 618 1225 C 618 1151 581 1114 507 1114 C 477 1114 454 1123 438 1143 C 422 1162 414 1191 414 1231 C 414 1262 422 1288 439 1309 C 455 1329 477 1340 505 1340 C 528 1340 548 1336 566 1328 C 584 1320 597 1309 605 1294 C 613 1278 618 1255 618 1225 Z M 180 1114 C 150 1114 127 1123 111 1143 C 94 1162 86 1191 86 1231 C 86 1261 94 1286 111 1308 C 128 1329 150 1340 177 1340 C 211 1340 238 1332 258 1316 C 278 1300 289 1274 289 1236 C 289 1191 279 1159 261 1141 C 242 1123 215 1114 180 1114 Z" unicode="¨" />
<glyph horiz-adv-x="1135" d="M 1067 938 C 1067 848 1044 764 1000 688 C 955 612 894 552 817 508 C 740 464 657 442 567 442 C 478 442 395 463 319 507 C 242 551 181 611 137 688 C 92 764 70 848 70 938 C 70 1026 92 1109 136 1186 C 180 1263 241 1324 319 1369 C 397 1413 479 1436 567 1436 C 656 1436 739 1413 817 1368 C 895 1323 956 1262 1000 1186 C 1044 1110 1067 1027 1067 938 Z M 961 940 C 961 1010 943 1075 909 1135 C 874 1195 826 1242 766 1278 C 706 1313 641 1331 571 1331 C 501 1331 436 1313 376 1278 C 316 1243 268 1195 233 1135 C 197 1075 180 1010 180 940 C 180 870 197 805 233 745 C 268 685 316 638 376 604 C 436 570 501 553 571 553 C 641 553 706 570 766 604 C 826 638 874 685 909 745 C 943 805 961 870 961 940 Z M 743 838 C 743 792 725 751 691 717 C 657 683 617 666 571 666 C 523 666 482 682 449 714 C 415 746 399 788 399 838 L 399 1055 C 399 1087 407 1116 423 1142 C 439 1168 461 1188 489 1204 C 517 1219 544 1227 571 1227 C 614 1227 653 1211 689 1179 C 725 1147 743 1109 743 1063 C 743 1059 738 1056 728 1053 C 718 1050 708 1049 696 1049 L 668 1049 C 656 1049 651 1051 651 1055 C 651 1075 642 1093 626 1108 C 609 1122 591 1130 571 1130 C 550 1130 531 1123 514 1109 C 497 1095 489 1077 489 1055 L 489 840 C 489 819 496 802 512 788 C 528 774 547 768 571 768 C 593 768 612 774 628 787 C 643 800 651 817 651 838 C 651 843 661 846 682 846 L 696 846 L 727 847 C 737 847 743 844 743 838 Z" unicode="©" />
<glyph horiz-adv-x="369" d="M 285 1051 C 285 1045 282 1042 278 1041 C 273 1040 263 1040 248 1040 C 229 1040 217 1040 211 1042 C 205 1043 203 1047 203 1055 L 203 1066 L 202 1067 L 197 1065 C 193 1061 189 1056 183 1050 C 177 1043 168 1040 154 1040 C 124 1040 98 1049 78 1069 C 57 1089 47 1119 47 1159 L 47 1319 C 47 1356 56 1385 76 1405 C 95 1425 121 1436 154 1436 C 170 1436 184 1429 195 1417 L 200 1413 C 202 1413 203 1417 203 1425 C 203 1432 206 1436 212 1436 L 246 1436 C 261 1436 271 1435 277 1435 C 282 1435 285 1432 285 1427 L 285 1051 Z M 291 948 C 291 932 290 921 290 914 C 290 906 288 903 285 903 L 59 903 C 49 903 44 906 43 914 C 41 922 41 934 41 950 C 41 965 42 976 45 982 C 47 988 53 991 61 991 L 283 991 C 288 991 291 976 291 948 Z M 193 1180 L 193 1300 C 193 1328 183 1343 164 1343 C 146 1343 137 1328 137 1300 L 137 1180 C 137 1164 138 1153 142 1146 C 145 1138 152 1135 164 1135 C 183 1135 193 1150 193 1180 Z" unicode="ª" />
<glyph horiz-adv-x="645" d="M 461 506 C 461 500 476 470 506 415 C 536 360 567 305 600 250 C 607 237 611 227 611 220 C 611 209 604 203 590 201 C 579 197 567 191 554 182 C 540 172 528 165 518 160 L 513 158 C 503 158 489 171 471 198 C 452 225 419 280 372 364 C 324 448 301 495 301 506 C 301 517 328 568 382 659 C 436 750 471 805 486 824 C 500 842 512 852 520 852 L 526 850 L 559 830 C 570 822 581 816 592 813 C 605 810 612 803 612 793 C 612 785 608 776 602 764 C 508 601 461 515 461 506 Z M 180 506 C 180 500 195 470 225 415 C 255 360 286 305 319 250 C 327 236 331 226 331 219 C 331 210 323 204 309 201 C 299 197 287 191 274 182 C 250 166 236 158 232 158 C 218 158 201 175 180 211 C 152 253 118 311 79 384 C 39 457 20 498 20 508 C 20 512 28 530 44 560 C 60 590 108 670 188 799 C 212 834 229 852 240 852 L 246 850 C 256 844 266 838 278 830 C 290 822 301 816 311 813 C 325 809 332 802 332 792 C 332 785 328 776 322 764 C 296 722 266 670 232 609 C 197 547 180 513 180 506 Z" unicode="«" />
<glyph horiz-adv-x="1536" d="M 1116 352 L 1116 727 L 213 727 L 213 920 L 1296 920 L 1296 352 L 1116 352 Z" unicode="¬" />
<glyph horiz-adv-x="463" d="M 429 461 C 429 455 427 450 424 444 C 421 438 409 436 389 436 L 88 438 C 76 438 65 441 55 447 C 45 453 40 461 40 471 L 44 520 L 41 569 C 41 579 45 586 55 590 C 65 594 81 596 104 596 L 256 595 L 343 596 C 364 596 382 593 398 588 C 414 582 422 574 422 563 L 422 543 C 422 511 424 487 428 469 L 429 461 Z" unicode="­" />
<glyph horiz-adv-x="1135" d="M 1067 936 C 1067 846 1044 763 1000 687 C 955 611 894 550 816 506 C 738 462 655 440 567 440 C 478 440 395 462 319 506 C 242 550 181 611 137 688 C 92 764 70 847 70 936 C 70 1024 91 1107 135 1184 C 179 1261 239 1322 317 1368 C 394 1413 477 1436 567 1436 C 656 1436 740 1413 818 1368 C 896 1322 957 1261 1001 1185 C 1045 1108 1067 1025 1067 936 Z M 961 940 C 961 1010 943 1075 908 1135 C 873 1195 826 1242 766 1277 C 706 1311 641 1329 571 1329 C 501 1329 436 1311 376 1277 C 316 1242 268 1194 233 1134 C 197 1073 180 1008 180 940 C 180 870 197 805 233 745 C 268 685 316 638 376 604 C 436 570 501 553 571 553 C 641 553 706 570 766 604 C 826 638 874 685 909 745 C 943 805 961 870 961 940 Z M 752 682 C 752 676 748 672 741 671 C 733 670 720 670 702 670 C 684 670 672 670 664 672 C 656 673 653 676 653 682 L 653 854 C 653 865 647 876 635 888 C 623 899 605 905 580 905 C 556 905 537 904 524 902 C 510 900 504 895 504 885 L 504 682 C 504 676 501 673 496 672 C 490 670 476 670 453 670 C 435 670 423 670 417 671 C 411 672 408 676 408 682 L 408 1206 C 408 1215 410 1222 416 1227 C 424 1229 435 1231 451 1231 L 580 1231 C 632 1231 674 1217 705 1191 C 736 1165 752 1130 752 1087 L 752 1059 C 752 1032 744 1009 728 991 C 712 973 692 961 666 956 L 680 952 C 700 948 717 940 731 926 C 745 912 752 894 752 870 L 752 682 Z M 645 1049 L 645 1083 C 645 1106 638 1121 624 1129 C 610 1137 585 1141 547 1141 L 504 1141 L 503 1137 L 503 1128 L 504 1114 L 504 1014 C 504 1006 505 1001 508 999 C 510 997 518 997 532 997 L 551 997 C 588 997 613 1000 626 1008 C 638 1016 645 1029 645 1049 Z" unicode="®" />
<glyph horiz-adv-x="698" d="M 602 1131 C 602 1112 600 1095 597 1080 C 594 1064 590 1057 586 1057 L 507 1053 C 473 1051 430 1049 378 1049 C 325 1049 235 1047 109 1044 C 101 1044 97 1063 97 1103 C 97 1127 99 1149 103 1169 C 107 1189 111 1200 117 1200 L 348 1206 L 588 1204 C 597 1204 602 1179 602 1131 Z" unicode="¯" />
<glyph horiz-adv-x="588" d="M 492 1233 C 492 1160 476 1107 445 1074 C 413 1040 361 1024 289 1024 C 232 1024 182 1043 140 1082 C 98 1120 76 1166 76 1220 C 76 1253 81 1289 93 1327 C 105 1365 123 1393 148 1411 C 172 1429 211 1438 263 1439 C 331 1439 386 1419 428 1379 C 470 1339 492 1291 492 1233 Z M 386 1243 C 386 1267 378 1288 362 1306 C 346 1324 320 1333 284 1333 C 258 1333 238 1328 224 1320 C 210 1311 201 1297 196 1278 C 190 1258 188 1240 188 1224 C 188 1197 198 1175 220 1157 C 241 1139 266 1130 295 1130 C 329 1130 352 1138 365 1154 C 378 1170 385 1195 385 1229 L 386 1243 Z" unicode="°" />
<glyph horiz-adv-x="1536" d="M 672 352 L 672 764 L 201 764 L 201 936 L 672 936 L 672 1352 L 864 1352 L 864 936 L 1339 936 L 1339 764 L 864 764 L 864 352 L 672 352 Z M 205 25 L 205 215 L 1335 215 L 1335 25 L 205 25 Z" unicode="±" />
<glyph horiz-adv-x="895" d="M 55 629 L 55 768 L 399 1108 C 447 1153 484 1194 512 1230 C 539 1266 553 1306 553 1352 C 553 1387 537 1415 507 1436 C 476 1457 440 1468 399 1468 C 357 1468 315 1455 275 1430 C 235 1405 200 1378 172 1348 L 63 1456 C 104 1498 156 1536 220 1570 C 283 1603 352 1620 428 1620 C 520 1620 597 1593 657 1540 C 717 1486 748 1421 748 1343 C 748 1272 717 1202 657 1134 C 597 1066 542 1013 492 977 L 268 788 L 776 788 L 776 629 L 55 629 Z" unicode="²" />
<glyph horiz-adv-x="895" d="M 47 731 L 152 864 C 227 805 318 776 424 776 C 490 776 540 790 572 818 C 604 846 621 882 621 928 C 621 978 598 1015 552 1039 C 506 1063 449 1075 383 1075 L 311 1075 L 311 1204 L 373 1204 C 438 1204 490 1216 529 1242 C 568 1267 588 1298 588 1335 C 588 1379 570 1410 535 1428 C 500 1446 459 1456 412 1456 C 358 1456 312 1447 272 1430 C 232 1413 200 1398 176 1384 L 88 1516 C 195 1585 315 1620 449 1620 C 547 1620 625 1598 684 1556 C 742 1514 772 1454 772 1376 C 772 1309 751 1257 709 1221 C 667 1185 616 1161 555 1149 C 627 1141 688 1118 737 1080 C 786 1042 811 983 811 903 C 811 810 773 738 699 688 C 625 637 536 612 432 612 C 278 612 149 651 47 731 Z" unicode="³" />
<glyph horiz-adv-x="698" d="M 530 1269 C 530 1261 526 1253 519 1245 C 511 1236 504 1230 498 1227 L 430 1197 C 363 1169 295 1138 225 1104 C 212 1098 202 1095 196 1095 C 186 1095 180 1102 178 1118 C 170 1147 159 1176 145 1206 L 143 1215 C 143 1233 167 1254 217 1276 C 265 1294 332 1323 418 1364 C 442 1374 458 1380 468 1380 C 470 1380 473 1379 476 1378 C 478 1376 480 1374 482 1372 C 484 1370 485 1367 487 1364 C 488 1360 493 1347 503 1325 C 513 1303 519 1289 523 1284 C 527 1279 529 1274 530 1269 Z" unicode="´" />
<glyph horiz-adv-x="1407" d="M 252 -424 C 215 -424 187 -413 168 -392 C 148 -370 139 -333 139 -281 C 139 -168 144 -41 156 100 C 166 234 172 310 172 328 L 176 356 L 176 1176 L 369 1176 L 369 319 C 369 257 396 210 450 176 C 504 142 564 125 629 125 C 716 125 792 146 858 190 C 923 234 973 297 1008 381 L 1008 1176 L 1200 1176 L 1200 307 L 1221 0 L 1057 0 L 1020 176 C 974 104 913 49 836 13 C 759 -22 671 -41 571 -41 C 537 -41 494 -32 444 -14 C 394 3 354 27 324 59 C 324 0 333 -57 352 -113 C 371 -169 381 -219 381 -264 C 381 -370 338 -424 252 -424 Z" unicode="µ" />
<glyph horiz-adv-x="838" d="M 756 37 C 756 22 752 12 746 7 C 739 2 718 0 684 0 L 642 0 C 629 0 620 1 615 4 C 610 7 608 17 608 33 L 608 1165 C 608 1190 606 1206 603 1213 C 599 1219 591 1223 578 1223 C 565 1223 557 1219 555 1212 C 552 1205 551 1189 551 1165 L 551 45 C 551 31 549 22 547 16 C 544 10 539 6 533 4 C 526 1 506 0 473 0 L 437 0 C 424 0 415 2 410 6 C 405 10 403 19 403 33 L 403 469 C 403 494 399 511 391 519 C 383 527 372 532 358 532 C 304 532 253 545 205 572 C 157 598 119 635 92 683 C 64 730 51 784 51 846 L 51 1124 C 51 1184 64 1237 92 1283 C 119 1329 156 1366 204 1393 C 252 1420 301 1434 352 1434 L 694 1434 C 717 1434 732 1431 738 1426 C 744 1420 748 1414 751 1406 C 754 1398 756 1386 756 1370 L 756 37 Z M 403 793 L 403 1182 C 403 1199 400 1209 396 1213 C 392 1217 382 1219 367 1219 C 340 1219 317 1206 299 1180 C 281 1154 272 1121 272 1081 L 272 885 C 272 850 280 818 297 790 C 314 762 334 748 358 748 C 379 748 392 750 396 755 C 400 759 403 772 403 793 Z" unicode="¶" />
<glyph horiz-adv-x="303" d="M 252 772 C 252 735 242 709 223 694 C 204 679 178 672 145 672 C 115 672 92 682 76 703 C 59 724 51 749 51 778 C 51 815 59 843 75 863 C 91 883 114 893 144 893 C 178 893 204 884 223 866 C 242 848 252 816 252 772 Z" unicode="·" />
<glyph horiz-adv-x="698" d="M 406 -55 C 406 -107 387 -152 350 -190 C 313 -228 269 -248 217 -248 C 213 -248 210 -243 210 -234 C 209 -225 209 -213 209 -197 L 209 -175 C 209 -145 211 -131 215 -131 C 235 -131 253 -123 269 -108 C 285 -92 293 -75 293 -57 L 293 82 C 293 92 306 98 332 98 L 369 98 C 393 98 406 93 406 84 L 406 -55 Z" unicode="¸" />
<glyph horiz-adv-x="768" d="M 324 629 L 324 1423 L 143 1384 L 143 1528 L 391 1636 L 508 1636 L 508 629 L 324 629 Z" unicode="¹" />
<glyph horiz-adv-x="369" d="M 285 1159 C 285 1119 273 1089 251 1069 C 229 1049 200 1040 164 1040 C 130 1040 102 1050 80 1071 C 58 1092 47 1121 47 1159 L 47 1317 C 47 1353 58 1381 80 1403 C 102 1425 130 1436 164 1436 C 200 1436 229 1425 251 1403 C 273 1381 285 1353 285 1317 L 285 1159 Z M 289 948 C 289 932 288 921 288 914 C 288 906 286 903 283 903 L 59 903 C 49 903 44 906 43 914 C 41 922 41 934 41 950 C 41 965 42 976 45 982 C 47 988 53 991 61 991 L 281 991 C 286 991 289 976 289 948 Z M 190 1178 L 190 1298 C 190 1328 181 1343 164 1343 C 146 1343 137 1328 137 1298 L 137 1178 C 137 1149 146 1135 164 1135 C 175 1135 182 1139 185 1147 C 188 1155 190 1165 190 1178 Z" unicode="º" />
<glyph horiz-adv-x="645" d="M 627 504 C 627 492 604 448 558 374 C 512 299 477 243 453 205 C 431 174 416 159 406 159 L 401 160 C 391 165 380 172 368 181 C 356 189 346 195 336 199 C 321 202 314 209 314 219 C 314 225 318 235 326 248 C 418 408 465 493 465 504 C 465 514 434 573 374 681 C 360 705 347 727 335 749 C 323 771 316 785 316 791 C 316 801 323 807 338 811 C 348 814 360 820 374 830 C 396 845 410 853 415 853 C 420 853 428 847 438 837 C 448 827 469 794 502 739 C 534 683 563 632 589 586 C 614 539 627 512 627 504 Z M 342 504 C 342 494 325 461 292 405 C 258 348 224 293 189 239 C 154 185 132 159 122 159 L 117 160 L 84 181 C 72 189 61 195 51 199 C 36 202 29 209 29 219 C 29 225 33 235 41 248 C 133 408 180 493 180 504 C 180 514 149 573 89 681 C 75 705 62 727 50 749 C 38 770 32 784 32 791 C 32 801 39 808 53 811 C 63 814 75 820 89 830 C 111 845 124 853 130 853 C 134 853 141 849 149 842 C 157 835 166 823 174 807 C 214 743 252 678 288 614 C 324 549 342 512 342 504 Z" unicode="»" />
<glyph horiz-adv-x="1919" d="M 369 0 L 1339 1524 L 1520 1524 L 549 0 L 369 0 Z M 293 629 L 293 1423 L 113 1384 L 113 1528 L 360 1636 L 475 1636 L 475 629 L 293 629 Z M 1540 0 L 1540 219 L 1061 219 L 1061 360 L 1511 981 L 1724 981 L 1724 377 L 1843 377 L 1843 219 L 1724 219 L 1724 0 L 1540 0 Z M 1260 369 L 1540 369 L 1540 768 L 1260 369 Z" unicode="¼" />
<glyph horiz-adv-x="1919" d="M 276 0 L 1247 1524 L 1427 1524 L 457 0 L 276 0 Z M 268 629 L 268 1423 L 88 1384 L 88 1528 L 336 1636 L 453 1636 L 453 629 L 268 629 Z M 1137 0 L 1137 139 L 1481 479 C 1528 525 1565 566 1592 602 C 1618 637 1632 678 1632 725 C 1632 759 1616 786 1586 808 C 1555 829 1520 840 1481 840 C 1411 840 1334 800 1251 721 L 1145 827 C 1184 871 1236 909 1300 942 C 1364 974 1433 991 1507 991 C 1601 991 1679 964 1739 911 C 1799 857 1829 793 1829 717 C 1829 644 1799 573 1739 505 C 1679 437 1623 384 1573 348 L 1348 160 L 1855 160 L 1855 0 L 1137 0 Z" unicode="½" />
<glyph horiz-adv-x="1919" d="M 1565 0 L 1565 219 L 1083 219 L 1083 360 L 1536 981 L 1749 981 L 1749 377 L 1868 377 L 1868 219 L 1749 219 L 1749 0 L 1565 0 Z M 47 731 L 152 864 C 227 805 318 776 424 776 C 490 776 540 790 572 818 C 604 846 621 882 621 928 C 621 978 598 1015 552 1039 C 506 1063 449 1075 383 1075 L 311 1075 L 311 1204 L 373 1204 C 438 1204 490 1216 529 1242 C 568 1267 588 1298 588 1335 C 588 1379 570 1410 535 1428 C 500 1446 459 1456 412 1456 C 358 1456 312 1447 272 1430 C 232 1413 200 1398 176 1384 L 88 1516 C 195 1585 315 1620 449 1620 C 547 1620 625 1598 684 1556 C 742 1514 772 1454 772 1376 C 772 1309 751 1257 709 1221 C 667 1185 616 1161 555 1149 C 627 1141 688 1118 737 1080 C 786 1042 811 983 811 903 C 811 810 773 738 699 688 C 625 637 536 612 432 612 C 278 612 149 651 47 731 Z M 440 0 L 1411 1524 L 1591 1524 L 621 0 L 440 0 Z M 1284 369 L 1565 369 L 1565 768 L 1284 369 Z" unicode="¾" />
<glyph horiz-adv-x="676" d="M 57 10 C 57 63 66 112 84 157 C 102 202 134 251 180 305 C 207 336 226 368 237 402 C 248 436 254 476 254 523 L 254 612 C 254 630 277 640 323 641 C 379 641 413 640 427 638 C 440 636 450 633 457 629 C 464 625 468 618 469 610 C 469 602 470 561 471 487 C 471 447 468 414 462 388 C 456 362 447 336 434 310 C 421 284 396 248 359 202 C 323 158 299 120 287 88 C 275 56 270 13 270 -40 L 270 -93 C 270 -133 276 -160 289 -176 C 302 -192 322 -200 350 -200 C 396 -200 420 -165 420 -93 L 420 -22 C 420 -4 457 4 532 4 C 573 4 600 1 613 -3 C 626 -8 633 -15 633 -24 L 633 -138 C 633 -217 606 -282 554 -333 C 501 -384 432 -409 348 -409 C 260 -409 190 -385 137 -336 C 83 -287 57 -222 57 -140 L 57 10 Z M 375 1035 C 446 1035 482 993 482 907 C 482 873 471 844 451 818 C 430 792 405 779 376 779 C 338 779 307 785 283 799 C 259 812 248 833 248 862 C 248 912 253 947 263 969 C 273 990 288 1006 307 1018 C 325 1030 348 1035 375 1035 Z" unicode="¿" />
<glyph horiz-adv-x="682" d="M 651 19 C 651 6 627 0 581 0 L 539 0 C 509 0 484 0 466 1 C 448 2 438 10 436 25 L 395 330 C 393 340 387 345 377 345 C 366 345 352 346 336 346 C 316 346 301 345 291 345 C 281 345 275 340 274 330 L 244 20 C 242 8 231 2 211 1 C 191 0 164 0 131 0 C 64 0 31 5 31 17 L 195 1168 L 227 1405 C 229 1425 264 1436 334 1436 C 374 1436 401 1433 417 1427 C 433 1421 442 1411 444 1399 L 651 19 Z M 334 969 C 330 969 326 961 323 945 C 320 929 319 917 319 909 L 293 516 C 293 508 296 504 302 502 C 308 500 318 500 334 500 L 366 500 C 374 500 379 504 379 512 L 352 913 C 352 925 350 937 347 950 C 343 962 339 969 334 969 Z M 472 1490 C 465 1490 456 1493 444 1499 C 364 1537 296 1568 240 1592 L 171 1622 C 151 1635 141 1649 141 1664 C 141 1669 143 1674 147 1679 C 157 1693 168 1720 181 1759 C 185 1769 191 1775 201 1775 C 211 1775 227 1769 251 1759 C 337 1719 404 1689 452 1671 C 500 1649 525 1628 525 1610 L 523 1601 C 503 1550 493 1521 493 1513 C 489 1497 482 1490 472 1490 Z" unicode="À" />
<glyph horiz-adv-x="682" d="M 651 19 C 651 6 627 0 581 0 L 539 0 C 509 0 484 0 466 1 C 448 2 438 10 436 25 L 395 330 C 393 340 387 345 377 345 C 366 345 352 346 336 346 C 316 346 301 345 291 345 C 281 345 275 340 274 330 L 244 20 C 242 8 231 2 211 1 C 191 0 164 0 131 0 C 64 0 31 5 31 17 L 195 1168 L 227 1405 C 229 1425 264 1436 334 1436 C 374 1436 401 1433 417 1427 C 433 1421 442 1411 444 1399 L 651 19 Z M 334 969 C 330 969 326 961 323 945 C 320 929 319 917 319 909 L 293 516 C 293 508 296 504 302 502 C 308 500 318 500 334 500 L 366 500 C 374 500 379 504 379 512 L 352 913 C 352 925 350 937 347 950 C 343 962 339 969 334 969 Z M 530 1664 C 530 1656 526 1648 519 1640 C 511 1631 504 1625 498 1622 L 430 1592 C 363 1564 295 1533 225 1499 C 212 1493 202 1490 196 1490 C 186 1490 180 1497 178 1513 C 170 1542 159 1571 145 1601 L 143 1610 C 143 1628 167 1649 217 1671 C 265 1689 332 1718 418 1759 C 442 1769 458 1775 468 1775 C 470 1775 473 1774 476 1773 C 478 1771 480 1769 482 1767 C 484 1765 485 1762 487 1759 C 488 1755 493 1742 503 1720 C 513 1698 519 1684 523 1679 C 527 1674 529 1669 530 1664 Z" unicode="Á" />
<glyph horiz-adv-x="682" d="M 651 19 C 651 6 627 0 581 0 L 539 0 C 509 0 484 0 466 1 C 448 2 438 10 436 25 L 395 330 C 393 340 387 345 377 345 C 366 345 352 346 336 346 C 316 346 301 345 291 345 C 281 345 275 340 274 330 L 244 20 C 242 8 231 2 211 1 C 191 0 164 0 131 0 C 64 0 31 5 31 17 L 195 1168 L 227 1405 C 229 1425 264 1436 334 1436 C 374 1436 401 1433 417 1427 C 433 1421 442 1411 444 1399 L 651 19 Z M 334 969 C 330 969 326 961 323 945 C 320 929 319 917 319 909 L 293 516 C 293 508 296 504 302 502 C 308 500 318 500 334 500 L 366 500 C 374 500 379 504 379 512 L 352 913 C 352 925 350 937 347 950 C 343 962 339 969 334 969 Z M 575 1579 C 575 1570 565 1548 545 1513 L 536 1493 C 531 1477 523 1469 512 1469 C 504 1469 495 1473 487 1483 C 396 1570 346 1614 337 1614 C 329 1614 313 1602 288 1579 C 262 1555 229 1524 188 1485 C 178 1475 169 1471 161 1471 C 148 1471 141 1479 139 1495 L 129 1516 C 108 1552 98 1575 98 1585 L 98 1588 L 98 1590 C 98 1597 107 1608 127 1623 L 239 1711 C 289 1751 321 1772 337 1772 C 353 1772 386 1749 438 1704 L 483 1665 C 508 1643 529 1626 547 1614 C 564 1601 573 1589 575 1579 Z" unicode="Â" />
<glyph horiz-adv-x="682" d="M 651 19 C 651 6 627 0 581 0 L 539 0 C 509 0 484 0 466 1 C 448 2 438 10 436 25 L 395 330 C 393 340 387 345 377 345 C 366 345 352 346 336 346 C 316 346 301 345 291 345 C 281 345 275 340 274 330 L 244 20 C 242 8 231 2 211 1 C 191 0 164 0 131 0 C 64 0 31 5 31 17 L 195 1168 L 227 1405 C 229 1425 264 1436 334 1436 C 374 1436 401 1433 417 1427 C 433 1421 442 1411 444 1399 L 651 19 Z M 334 969 C 330 969 326 961 323 945 C 320 929 319 917 319 909 L 293 516 C 293 508 296 504 302 502 C 308 500 318 500 334 500 L 366 500 C 374 500 379 504 379 512 L 352 913 C 352 925 350 937 347 950 C 343 962 339 969 334 969 Z M 579 1610 C 579 1600 562 1583 530 1559 L 499 1534 C 483 1521 470 1512 458 1506 C 446 1500 432 1497 415 1497 C 381 1497 357 1505 341 1521 C 319 1542 306 1554 301 1556 C 296 1558 289 1560 280 1560 C 273 1560 267 1558 263 1556 C 258 1554 248 1546 233 1532 C 212 1513 199 1502 194 1499 C 188 1495 183 1494 177 1494 C 162 1494 153 1500 151 1513 C 149 1518 136 1545 112 1593 L 110 1601 C 110 1607 114 1614 122 1623 C 130 1631 153 1649 191 1676 C 229 1702 258 1716 278 1716 C 290 1716 301 1715 313 1714 C 324 1713 337 1706 351 1693 C 367 1677 379 1666 386 1658 C 393 1650 402 1646 413 1646 C 421 1646 431 1650 441 1660 C 451 1669 467 1684 489 1706 C 497 1714 505 1719 513 1719 C 525 1719 533 1711 538 1695 C 541 1682 554 1656 577 1616 L 579 1610 Z" unicode="Ã" />
<glyph horiz-adv-x="682" d="M 651 19 C 651 6 627 0 581 0 L 539 0 C 509 0 484 0 466 1 C 448 2 438 10 436 25 L 395 330 C 393 340 387 345 377 345 C 366 345 352 346 336 346 C 316 346 301 345 291 345 C 281 345 275 340 274 330 L 244 20 C 242 8 231 2 211 1 C 191 0 164 0 131 0 C 64 0 31 5 31 17 L 195 1168 L 227 1405 C 229 1425 264 1436 334 1436 C 374 1436 401 1433 417 1427 C 433 1421 442 1411 444 1399 L 651 19 Z M 334 969 C 330 969 326 961 323 945 C 320 929 319 917 319 909 L 293 516 C 293 508 296 504 302 502 C 308 500 318 500 334 500 L 366 500 C 374 500 379 504 379 512 L 352 913 C 352 925 350 937 347 950 C 343 962 339 969 334 969 Z M 607 1606 C 607 1532 570 1495 496 1495 C 466 1495 443 1504 427 1524 C 411 1543 403 1572 403 1612 C 403 1643 411 1669 428 1690 C 444 1710 466 1721 494 1721 C 517 1721 537 1717 555 1709 C 573 1701 586 1690 594 1675 C 602 1659 607 1636 607 1606 Z M 169 1495 C 139 1495 116 1504 100 1524 C 83 1543 75 1572 75 1612 C 75 1642 83 1667 100 1689 C 117 1710 139 1721 166 1721 C 200 1721 227 1713 247 1697 C 267 1681 278 1655 278 1617 C 278 1572 268 1540 250 1522 C 231 1504 204 1495 169 1495 Z" unicode="Ä" />
<glyph horiz-adv-x="682" d="M 475 1632 C 475 1580 461 1544 435 1523 C 409 1502 374 1492 330 1492 C 296 1492 265 1505 238 1531 C 211 1557 198 1587 198 1623 C 198 1647 202 1673 211 1699 C 219 1725 233 1743 253 1753 C 273 1763 304 1769 347 1769 C 381 1769 411 1755 437 1729 C 462 1703 475 1670 475 1632 Z M 651 19 C 651 6 627 0 581 0 L 539 0 C 509 0 484 0 466 1 C 448 2 438 10 436 25 L 395 330 C 393 340 387 345 377 345 C 366 345 352 346 336 346 C 316 346 301 345 291 345 C 281 345 275 340 274 330 L 244 20 C 242 8 231 2 211 1 C 191 0 164 0 131 0 C 64 0 31 5 31 17 L 195 1168 L 227 1405 C 229 1425 264 1436 334 1436 C 374 1436 401 1433 417 1427 C 433 1421 442 1411 444 1399 L 651 19 Z M 404 1640 C 404 1656 398 1670 388 1682 C 377 1694 363 1700 347 1700 C 325 1700 309 1697 299 1692 C 289 1686 281 1676 277 1660 C 273 1644 271 1632 271 1624 C 271 1606 277 1592 290 1581 C 302 1569 317 1564 335 1564 C 351 1564 367 1568 381 1578 C 395 1587 403 1604 403 1630 L 404 1640 Z M 334 969 C 330 969 326 961 323 945 C 320 929 319 917 319 909 L 293 516 C 293 508 296 504 302 502 C 308 500 318 500 334 500 L 366 500 C 374 500 379 504 379 512 L 352 913 C 352 925 350 937 347 950 C 343 962 339 969 334 969 Z" unicode="Å" />
<glyph horiz-adv-x="987" d="M 946 102 C 946 53 944 24 942 14 C 939 4 932 0 922 0 L 518 0 C 462 0 434 12 434 37 L 434 330 C 434 340 428 345 417 346 C 405 347 391 348 375 348 L 327 349 C 314 349 307 344 305 334 C 297 291 290 239 285 178 C 277 107 270 54 264 20 C 260 6 232 0 179 0 L 131 0 C 64 0 31 5 31 16 L 75 254 L 281 1376 C 283 1394 287 1406 292 1413 C 296 1419 301 1424 305 1427 C 309 1430 314 1432 321 1433 C 328 1433 335 1434 342 1434 L 920 1434 C 930 1434 936 1429 939 1421 C 942 1413 944 1385 944 1337 C 944 1286 942 1256 939 1247 C 936 1237 929 1233 918 1233 L 713 1233 C 703 1233 694 1232 684 1231 C 674 1229 668 1226 665 1222 C 662 1218 660 1214 658 1211 C 656 1207 655 1198 655 1184 L 655 884 C 655 874 658 867 666 861 C 674 855 682 852 690 852 L 811 852 C 822 852 829 847 833 837 C 836 827 838 798 838 750 C 838 702 836 674 833 665 C 830 655 823 651 811 651 L 719 651 C 693 651 676 649 668 645 C 658 639 653 631 653 621 C 653 611 653 599 653 586 L 653 260 C 653 229 657 211 667 207 C 676 203 695 201 725 201 L 920 201 C 931 201 938 196 941 187 C 944 178 946 150 946 102 Z M 436 496 L 436 987 L 440 1148 C 440 1181 438 1198 434 1198 C 426 1198 418 1170 410 1116 L 406 1098 C 393 1014 371 850 341 607 L 326 500 C 326 496 328 494 333 492 C 338 490 350 489 369 489 C 388 488 405 487 421 486 C 431 486 436 489 436 496 Z" unicode="Æ" />
<glyph horiz-adv-x="694" d="M 655 287 C 655 230 644 181 623 139 C 601 97 573 64 538 40 C 502 16 467 4 432 4 C 426 4 423 -3 423 -18 L 424 -55 C 424 -107 405 -152 368 -190 C 331 -228 287 -248 236 -248 C 231 -248 228 -243 228 -234 C 227 -225 227 -213 227 -197 L 227 -175 C 227 -145 229 -131 233 -131 C 253 -131 271 -123 287 -108 C 303 -92 311 -75 311 -57 L 312 -21 C 312 -7 309 0 305 0 C 286 0 260 8 227 25 C 194 41 166 62 143 88 C 119 113 101 142 88 176 C 74 209 68 246 68 287 L 68 1145 C 68 1228 95 1297 151 1352 C 207 1406 278 1434 365 1434 C 453 1434 524 1406 576 1352 C 628 1297 655 1228 655 1145 L 655 1034 C 655 1024 648 1017 635 1013 C 621 1009 591 1008 543 1008 L 498 1008 C 475 1008 460 1009 452 1013 C 444 1016 440 1022 440 1030 L 440 1137 C 440 1159 432 1178 418 1196 C 404 1214 386 1223 365 1223 C 340 1223 321 1212 307 1191 C 293 1170 287 1142 287 1106 L 287 334 C 287 291 293 261 307 243 C 320 225 339 217 365 217 C 388 217 406 224 420 239 C 433 254 440 274 440 299 L 440 406 C 440 416 444 423 453 427 C 462 430 476 432 496 432 L 551 432 C 587 432 611 431 623 430 C 635 428 643 426 648 422 C 652 418 655 408 655 393 L 655 287 Z" unicode="Ç" />
<glyph horiz-adv-x="635" d="M 594 102 C 594 53 592 24 590 14 C 587 4 580 0 569 0 L 176 0 L 128 0 C 97 0 82 13 82 39 L 82 1372 C 82 1382 82 1389 83 1394 C 84 1398 88 1405 94 1414 C 100 1422 106 1428 112 1430 C 118 1432 128 1434 143 1434 L 567 1434 C 577 1434 584 1430 587 1422 C 590 1414 592 1385 592 1337 C 592 1286 590 1256 587 1247 C 584 1237 577 1233 565 1233 L 360 1233 C 334 1233 318 1229 313 1223 C 306 1213 303 1205 303 1199 L 303 884 C 303 874 306 867 313 861 C 320 855 328 852 337 852 L 459 852 C 469 852 476 847 480 837 C 483 827 485 798 485 750 C 485 702 483 674 480 665 C 477 655 470 651 459 651 L 367 651 C 337 651 318 648 311 642 C 304 636 301 629 301 621 L 301 260 C 301 229 304 212 311 209 C 319 203 340 201 373 201 L 567 201 C 579 201 586 196 589 188 C 592 179 594 150 594 102 Z M 453 1494 C 446 1494 437 1497 425 1503 C 345 1541 277 1572 221 1596 L 152 1626 C 132 1639 122 1653 122 1668 C 122 1673 124 1678 128 1683 C 138 1697 149 1724 162 1763 C 166 1773 172 1779 182 1779 C 192 1779 208 1773 232 1763 C 318 1723 385 1693 433 1675 C 481 1653 506 1632 506 1614 L 504 1605 C 484 1554 474 1525 474 1517 C 470 1501 463 1494 453 1494 Z" unicode="È" />
<glyph horiz-adv-x="635" d="M 594 102 C 594 53 592 24 590 14 C 587 4 580 0 569 0 L 176 0 L 128 0 C 97 0 82 13 82 39 L 82 1372 C 82 1382 82 1389 83 1394 C 84 1398 88 1405 94 1414 C 100 1422 106 1428 112 1430 C 118 1432 128 1434 143 1434 L 567 1434 C 577 1434 584 1430 587 1422 C 590 1414 592 1385 592 1337 C 592 1286 590 1256 587 1247 C 584 1237 577 1233 565 1233 L 360 1233 C 334 1233 318 1229 313 1223 C 306 1213 303 1205 303 1199 L 303 884 C 303 874 306 867 313 861 C 320 855 328 852 337 852 L 459 852 C 469 852 476 847 480 837 C 483 827 485 798 485 750 C 485 702 483 674 480 665 C 477 655 470 651 459 651 L 367 651 C 337 651 318 648 311 642 C 304 636 301 629 301 621 L 301 260 C 301 229 304 212 311 209 C 319 203 340 201 373 201 L 567 201 C 579 201 586 196 589 188 C 592 179 594 150 594 102 Z M 530 1664 C 530 1656 526 1648 519 1640 C 511 1631 504 1625 498 1622 L 430 1592 C 363 1564 295 1533 225 1499 C 212 1493 202 1490 196 1490 C 186 1490 180 1497 178 1513 C 170 1542 159 1571 145 1601 L 143 1610 C 143 1628 167 1649 217 1671 C 265 1689 332 1718 418 1759 C 442 1769 458 1775 468 1775 C 470 1775 473 1774 476 1773 C 478 1771 480 1769 482 1767 C 484 1765 485 1762 487 1759 C 488 1755 493 1742 503 1720 C 513 1698 519 1684 523 1679 C 527 1674 529 1669 530 1664 Z" unicode="É" />
<glyph horiz-adv-x="635" d="M 594 102 C 594 53 592 24 590 14 C 587 4 580 0 569 0 L 176 0 L 128 0 C 97 0 82 13 82 39 L 82 1372 C 82 1382 82 1389 83 1394 C 84 1398 88 1405 94 1414 C 100 1422 106 1428 112 1430 C 118 1432 128 1434 143 1434 L 567 1434 C 577 1434 584 1430 587 1422 C 590 1414 592 1385 592 1337 C 592 1286 590 1256 587 1247 C 584 1237 577 1233 565 1233 L 360 1233 C 334 1233 318 1229 313 1223 C 306 1213 303 1205 303 1199 L 303 884 C 303 874 306 867 313 861 C 320 855 328 852 337 852 L 459 852 C 469 852 476 847 480 837 C 483 827 485 798 485 750 C 485 702 483 674 480 665 C 477 655 470 651 459 651 L 367 651 C 337 651 318 648 311 642 C 304 636 301 629 301 621 L 301 260 C 301 229 304 212 311 209 C 319 203 340 201 373 201 L 567 201 C 579 201 586 196 589 188 C 592 179 594 150 594 102 Z M 573 1601 C 573 1592 563 1570 543 1535 L 534 1515 C 529 1499 521 1491 510 1491 C 502 1491 493 1495 485 1505 C 394 1592 344 1636 335 1636 C 327 1636 311 1624 286 1601 C 260 1577 227 1546 186 1507 C 176 1497 167 1493 159 1493 C 146 1493 139 1501 137 1517 L 127 1538 C 106 1574 96 1597 96 1607 L 96 1610 L 96 1612 C 96 1619 105 1630 125 1645 L 237 1733 C 287 1773 319 1794 335 1794 C 351 1794 384 1771 436 1726 L 481 1687 C 506 1665 527 1648 545 1636 C 562 1623 571 1611 573 1601 Z" unicode="Ê" />
<glyph horiz-adv-x="635" d="M 594 102 C 594 53 592 24 590 14 C 587 4 580 0 569 0 L 176 0 L 128 0 C 97 0 82 13 82 39 L 82 1372 C 82 1382 82 1389 83 1394 C 84 1398 88 1405 94 1414 C 100 1422 106 1428 112 1430 C 118 1432 128 1434 143 1434 L 567 1434 C 577 1434 584 1430 587 1422 C 590 1414 592 1385 592 1337 C 592 1286 590 1256 587 1247 C 584 1237 577 1233 565 1233 L 360 1233 C 334 1233 318 1229 313 1223 C 306 1213 303 1205 303 1199 L 303 884 C 303 874 306 867 313 861 C 320 855 328 852 337 852 L 459 852 C 469 852 476 847 480 837 C 483 827 485 798 485 750 C 485 702 483 674 480 665 C 477 655 470 651 459 651 L 367 651 C 337 651 318 648 311 642 C 304 636 301 629 301 621 L 301 260 C 301 229 304 212 311 209 C 319 203 340 201 373 201 L 567 201 C 579 201 586 196 589 188 C 592 179 594 150 594 102 Z M 594 1606 C 594 1532 557 1495 483 1495 C 453 1495 430 1504 414 1524 C 398 1543 390 1572 390 1612 C 390 1643 398 1669 415 1690 C 431 1710 453 1721 481 1721 C 504 1721 524 1717 542 1709 C 560 1701 573 1690 581 1675 C 589 1659 594 1636 594 1606 Z M 156 1495 C 126 1495 103 1504 87 1524 C 70 1543 62 1572 62 1612 C 62 1642 70 1667 87 1689 C 104 1710 126 1721 153 1721 C 187 1721 214 1713 234 1697 C 254 1681 265 1655 265 1617 C 265 1572 255 1540 237 1522 C 218 1504 191 1495 156 1495 Z" unicode="Ë" />
<glyph horiz-adv-x="383" d="M 301 35 C 301 21 298 12 293 9 C 287 6 277 4 262 3 C 246 2 221 2 186 2 C 144 2 118 2 108 3 C 98 4 91 6 87 9 C 83 11 82 19 82 31 L 82 1399 C 82 1413 85 1421 91 1425 C 97 1428 110 1430 128 1431 C 146 1431 166 1432 186 1432 C 225 1432 251 1431 265 1430 C 279 1428 288 1426 293 1422 C 298 1418 301 1410 301 1397 L 301 35 Z M 331 1494 C 324 1494 315 1497 303 1503 C 223 1541 155 1572 99 1596 L 30 1626 C 10 1639 0 1653 0 1668 C 0 1673 2 1678 6 1683 C 16 1697 27 1724 40 1763 C 44 1773 50 1779 60 1779 C 70 1779 86 1773 110 1763 C 196 1723 263 1693 311 1675 C 359 1653 384 1632 384 1614 L 382 1605 C 362 1554 352 1525 352 1517 C 348 1501 341 1494 331 1494 Z" unicode="Ì" />
<glyph horiz-adv-x="383" d="M 301 35 C 301 21 298 12 293 9 C 287 6 277 4 262 3 C 246 2 221 2 186 2 C 144 2 118 2 108 3 C 98 4 91 6 87 9 C 83 11 82 19 82 31 L 82 1399 C 82 1413 85 1421 91 1425 C 97 1428 110 1430 128 1431 C 146 1431 166 1432 186 1432 C 225 1432 251 1431 265 1430 C 279 1428 288 1426 293 1422 C 298 1418 301 1410 301 1397 L 301 35 Z M 388 1664 C 388 1656 384 1648 377 1640 C 369 1631 362 1625 356 1622 L 288 1592 C 221 1564 153 1533 83 1499 C 70 1493 60 1490 54 1490 C 44 1490 38 1497 36 1513 C 28 1542 17 1571 3 1601 L 1 1610 C 1 1628 25 1649 75 1671 C 123 1689 190 1718 276 1759 C 300 1769 316 1775 326 1775 C 328 1775 331 1774 334 1773 C 336 1771 338 1769 340 1767 C 342 1765 343 1762 345 1759 C 346 1755 351 1742 361 1720 C 371 1698 377 1684 381 1679 C 385 1674 387 1669 388 1664 Z" unicode="Í" />
<glyph horiz-adv-x="383" d="M 301 35 C 301 21 298 12 293 9 C 287 6 277 4 262 3 C 246 2 221 2 186 2 C 144 2 118 2 108 3 C 98 4 91 6 87 9 C 83 11 82 19 82 31 L 82 1399 C 82 1413 85 1421 91 1425 C 97 1428 110 1430 128 1431 C 146 1431 166 1432 186 1432 C 225 1432 251 1431 265 1430 C 279 1428 288 1426 293 1422 C 298 1418 301 1410 301 1397 L 301 35 Z M 429 1579 C 429 1570 419 1548 399 1513 L 390 1493 C 385 1477 377 1469 366 1469 C 358 1469 349 1473 341 1483 C 250 1570 200 1614 191 1614 C 183 1614 167 1602 142 1579 C 116 1555 83 1524 42 1485 C 32 1475 23 1471 15 1471 C 2 1471 -5 1479 -7 1495 L -17 1516 C -37 1552 -48 1575 -48 1585 L -48 1588 L -48 1590 C -48 1597 -38 1608 -19 1623 L 93 1711 C 143 1751 175 1772 191 1772 C 207 1772 240 1749 292 1704 L 337 1665 C 362 1643 383 1626 401 1614 C 418 1601 427 1589 429 1579 Z" unicode="Î" />
<glyph horiz-adv-x="383" d="M 301 35 C 301 21 298 12 293 9 C 287 6 277 4 262 3 C 246 2 221 2 186 2 C 144 2 118 2 108 3 C 98 4 91 6 87 9 C 83 11 82 19 82 31 L 82 1399 C 82 1413 85 1421 91 1425 C 97 1428 110 1430 128 1431 C 146 1431 166 1432 186 1432 C 225 1432 251 1431 265 1430 C 279 1428 288 1426 293 1422 C 298 1418 301 1410 301 1397 L 301 35 Z M 457 1606 C 457 1532 420 1495 346 1495 C 316 1495 293 1504 277 1524 C 261 1543 253 1572 253 1612 C 253 1643 261 1669 278 1690 C 294 1710 316 1721 344 1721 C 367 1721 387 1717 405 1709 C 423 1701 436 1690 444 1675 C 452 1659 457 1636 457 1606 Z M 19 1495 C -10 1495 -33 1504 -50 1524 C -66 1543 -75 1572 -75 1612 C -75 1642 -66 1667 -49 1689 C -32 1710 -10 1721 16 1721 C 50 1721 77 1713 97 1697 C 117 1681 128 1655 128 1617 C 128 1572 118 1540 100 1522 C 81 1504 54 1495 19 1495 Z" unicode="Ï" />
<glyph horiz-adv-x="766" d="M 698 311 C 698 224 669 150 612 90 C 555 30 476 0 375 0 L 162 0 C 148 0 137 0 129 1 C 121 1 115 6 111 14 C 105 20 102 37 102 63 L 102 629 C 102 634 98 637 91 639 C 84 640 73 641 59 641 C 47 641 36 644 26 650 C 16 656 11 664 11 674 L 15 722 L 12 772 C 12 782 17 789 27 793 C 37 797 53 799 76 799 C 93 799 102 802 102 809 L 102 1370 C 102 1392 103 1407 106 1413 C 108 1419 113 1424 119 1428 C 125 1432 140 1434 164 1434 L 373 1434 C 471 1434 549 1407 609 1354 C 668 1301 698 1224 698 1124 L 698 311 Z M 477 352 L 477 1081 C 477 1102 475 1122 473 1142 C 470 1161 463 1178 451 1194 C 442 1202 433 1208 424 1212 C 415 1216 401 1219 383 1219 C 352 1219 334 1216 330 1212 C 325 1208 322 1202 322 1194 C 322 1186 322 1182 322 1182 L 322 799 C 322 795 326 792 334 791 C 342 789 351 788 361 788 C 371 787 380 786 388 786 C 396 785 401 783 401 780 L 401 727 C 401 689 398 664 394 654 C 389 644 378 639 360 639 C 350 639 341 638 333 638 C 325 637 322 634 322 629 L 322 260 C 322 240 323 227 327 222 C 331 217 338 215 349 215 L 377 215 C 389 215 403 217 417 223 C 431 228 444 238 456 253 C 467 267 473 284 475 303 C 476 321 477 338 477 352 Z" unicode="Ð" />
<glyph horiz-adv-x="793" d="M 711 59 C 711 34 708 19 703 14 C 698 8 689 5 676 3 C 662 1 640 0 608 0 C 574 0 552 4 541 12 C 530 20 522 35 518 55 L 344 697 C 330 752 319 780 311 780 C 301 780 297 764 297 733 L 297 37 C 297 21 293 12 285 8 C 277 4 262 1 241 1 C 220 0 201 0 184 0 C 150 0 127 0 115 1 C 103 2 95 4 90 8 C 84 11 82 20 82 35 L 82 1405 C 82 1419 86 1428 94 1430 C 102 1432 130 1434 176 1434 C 206 1434 227 1432 241 1429 C 254 1426 264 1421 271 1413 C 278 1405 285 1390 291 1368 L 368 1085 L 467 730 C 470 717 475 711 481 711 C 491 711 496 725 496 754 L 496 1397 C 496 1413 501 1424 512 1428 C 522 1432 553 1434 604 1434 C 640 1434 664 1433 677 1432 C 689 1430 698 1428 703 1425 C 708 1421 711 1413 711 1399 L 711 59 Z M 621 1610 C 621 1600 604 1583 572 1559 L 541 1534 C 525 1521 512 1512 500 1506 C 488 1500 474 1497 457 1497 C 423 1497 399 1505 383 1521 C 361 1542 348 1554 343 1556 C 338 1558 331 1560 322 1560 C 315 1560 309 1558 305 1556 C 300 1554 290 1546 275 1532 C 254 1513 241 1502 236 1499 C 230 1495 225 1494 219 1494 C 204 1494 195 1500 193 1513 C 191 1518 178 1545 154 1593 L 152 1601 C 152 1607 156 1614 164 1623 C 172 1631 195 1649 233 1676 C 271 1702 300 1716 320 1716 C 332 1716 343 1715 355 1714 C 366 1713 379 1706 393 1693 C 409 1677 421 1666 428 1658 C 435 1650 444 1646 455 1646 C 463 1646 473 1650 483 1660 C 493 1669 509 1684 531 1706 C 539 1714 547 1719 555 1719 C 567 1719 575 1711 580 1695 C 583 1682 596 1656 619 1616 L 621 1610 Z" unicode="Ñ" />
<glyph horiz-adv-x="731" d="M 664 295 C 664 203 637 131 584 79 C 531 26 458 0 365 0 C 275 0 203 27 149 81 C 95 135 68 206 68 295 L 68 1141 C 68 1227 95 1298 151 1352 C 206 1406 277 1434 365 1434 C 453 1434 525 1407 581 1354 C 636 1300 664 1229 664 1141 L 664 295 Z M 442 340 L 442 1100 C 442 1139 435 1169 421 1191 C 407 1212 389 1223 365 1223 C 339 1223 320 1212 307 1190 C 293 1168 287 1138 287 1100 L 287 340 C 287 292 293 259 305 242 C 317 225 337 217 365 217 C 391 217 410 226 423 244 C 435 262 442 294 442 340 Z M 502 1478 C 495 1478 486 1481 474 1487 C 394 1525 326 1556 270 1580 L 201 1610 C 181 1623 171 1637 171 1652 C 171 1657 173 1662 177 1667 C 187 1681 198 1708 211 1747 C 215 1757 221 1763 231 1763 C 241 1763 257 1757 281 1747 C 367 1707 434 1677 482 1659 C 530 1637 555 1616 555 1598 L 553 1589 C 533 1538 523 1509 523 1501 C 519 1485 512 1478 502 1478 Z" unicode="Ò" />
<glyph horiz-adv-x="731" d="M 664 295 C 664 203 637 131 584 79 C 531 26 458 0 365 0 C 275 0 203 27 149 81 C 95 135 68 206 68 295 L 68 1141 C 68 1227 95 1298 151 1352 C 206 1406 277 1434 365 1434 C 453 1434 525 1407 581 1354 C 636 1300 664 1229 664 1141 L 664 295 Z M 442 340 L 442 1100 C 442 1139 435 1169 421 1191 C 407 1212 389 1223 365 1223 C 339 1223 320 1212 307 1190 C 293 1168 287 1138 287 1100 L 287 340 C 287 292 293 259 305 242 C 317 225 337 217 365 217 C 391 217 410 226 423 244 C 435 262 442 294 442 340 Z M 557 1652 C 557 1644 553 1636 546 1628 C 538 1619 531 1613 525 1610 L 457 1580 C 390 1552 322 1521 252 1487 C 239 1481 229 1478 223 1478 C 213 1478 207 1485 205 1501 C 197 1530 186 1559 172 1589 L 170 1598 C 170 1616 194 1637 244 1659 C 292 1677 359 1706 445 1747 C 469 1757 485 1763 495 1763 C 497 1763 500 1762 503 1761 C 505 1759 507 1757 509 1755 C 511 1753 512 1750 514 1747 C 515 1743 520 1730 530 1708 C 540 1686 546 1672 550 1667 C 554 1662 556 1657 557 1652 Z" unicode="Ó" />
<glyph horiz-adv-x="731" d="M 664 295 C 664 203 637 131 584 79 C 531 26 458 0 365 0 C 275 0 203 27 149 81 C 95 135 68 206 68 295 L 68 1141 C 68 1227 95 1298 151 1352 C 206 1406 277 1434 365 1434 C 453 1434 525 1407 581 1354 C 636 1300 664 1229 664 1141 L 664 295 Z M 442 340 L 442 1100 C 442 1139 435 1169 421 1191 C 407 1212 389 1223 365 1223 C 339 1223 320 1212 307 1190 C 293 1168 287 1138 287 1100 L 287 340 C 287 292 293 259 305 242 C 317 225 337 217 365 217 C 391 217 410 226 423 244 C 435 262 442 294 442 340 Z M 596 1566 C 596 1557 586 1535 566 1500 L 557 1480 C 552 1464 544 1456 533 1456 C 525 1456 516 1460 508 1470 C 417 1557 367 1601 358 1601 C 350 1601 334 1589 309 1566 C 283 1542 250 1511 209 1472 C 199 1462 190 1458 182 1458 C 169 1458 162 1466 160 1482 L 150 1503 C 129 1539 119 1562 119 1572 L 119 1575 L 119 1577 C 119 1584 128 1595 148 1610 L 260 1698 C 310 1738 342 1759 358 1759 C 374 1759 407 1736 459 1691 L 504 1652 C 529 1630 550 1613 568 1601 C 585 1588 594 1576 596 1566 Z" unicode="Ô" />
<glyph horiz-adv-x="731" d="M 664 295 C 664 203 637 131 584 79 C 531 26 458 0 365 0 C 275 0 203 27 149 81 C 95 135 68 206 68 295 L 68 1141 C 68 1227 95 1298 151 1352 C 206 1406 277 1434 365 1434 C 453 1434 525 1407 581 1354 C 636 1300 664 1229 664 1141 L 664 295 Z M 442 340 L 442 1100 C 442 1139 435 1169 421 1191 C 407 1212 389 1223 365 1223 C 339 1223 320 1212 307 1190 C 293 1168 287 1138 287 1100 L 287 340 C 287 292 293 259 305 242 C 317 225 337 217 365 217 C 391 217 410 226 423 244 C 435 262 442 294 442 340 Z M 607 1608 C 607 1598 590 1581 558 1557 L 527 1532 C 511 1519 498 1510 486 1504 C 474 1498 460 1495 443 1495 C 409 1495 385 1503 369 1519 C 347 1540 334 1552 329 1554 C 324 1556 317 1558 308 1558 C 301 1558 295 1556 291 1554 C 286 1552 276 1544 261 1530 C 240 1511 227 1500 222 1497 C 216 1493 211 1492 205 1492 C 190 1492 181 1498 179 1511 C 177 1516 164 1543 140 1591 L 138 1599 C 138 1605 142 1612 150 1621 C 158 1629 181 1647 219 1674 C 257 1700 286 1714 306 1714 C 318 1714 329 1713 341 1712 C 352 1711 365 1704 379 1691 C 395 1675 407 1664 414 1656 C 421 1648 430 1644 441 1644 C 449 1644 459 1648 469 1658 C 479 1667 495 1682 517 1704 C 525 1712 533 1717 541 1717 C 553 1717 561 1709 566 1693 C 569 1680 582 1654 605 1614 L 607 1608 Z" unicode="Õ" />
<glyph horiz-adv-x="731" d="M 664 295 C 664 203 637 131 584 79 C 531 26 458 0 365 0 C 275 0 203 27 149 81 C 95 135 68 206 68 295 L 68 1141 C 68 1227 95 1298 151 1352 C 206 1406 277 1434 365 1434 C 453 1434 525 1407 581 1354 C 636 1300 664 1229 664 1141 L 664 295 Z M 442 340 L 442 1100 C 442 1139 435 1169 421 1191 C 407 1212 389 1223 365 1223 C 339 1223 320 1212 307 1190 C 293 1168 287 1138 287 1100 L 287 340 C 287 292 293 259 305 242 C 317 225 337 217 365 217 C 391 217 410 226 423 244 C 435 262 442 294 442 340 Z M 638 1606 C 638 1532 601 1495 527 1495 C 497 1495 474 1504 458 1524 C 442 1543 434 1572 434 1612 C 434 1643 442 1669 459 1690 C 475 1710 497 1721 525 1721 C 548 1721 568 1717 586 1709 C 604 1701 617 1690 625 1675 C 633 1659 638 1636 638 1606 Z M 200 1495 C 170 1495 147 1504 131 1524 C 114 1543 106 1572 106 1612 C 106 1642 114 1667 131 1689 C 148 1710 170 1721 197 1721 C 231 1721 258 1713 278 1697 C 298 1681 309 1655 309 1617 C 309 1572 299 1540 281 1522 C 262 1504 235 1495 200 1495 Z" unicode="Ö" />
<glyph horiz-adv-x="1536" d="M 471 377 L 352 492 L 647 793 L 352 1087 L 479 1212 L 768 911 L 1067 1204 L 1184 1087 L 893 793 L 1184 492 L 1067 377 L 768 668 L 471 377 Z" unicode="×" />
<glyph horiz-adv-x="731" d="M 658 1219 L 664 1141 L 664 295 C 664 203 637 131 584 79 C 531 26 458 0 365 0 C 335 0 306 3 280 9 L 216 23 C 210 23 196 -7 174 -69 L 158 -111 C 150 -132 109 -143 37 -143 C -17 -143 -45 -135 -45 -121 L -43 -113 L 74 215 L 75 220 C 75 224 73 232 71 242 C 69 252 68 270 68 295 L 68 1141 C 68 1227 95 1298 151 1352 C 206 1406 277 1434 365 1434 C 401 1434 444 1426 494 1411 L 508 1408 L 512 1409 C 515 1410 535 1457 571 1550 C 577 1569 612 1579 674 1579 C 705 1579 729 1575 747 1569 C 764 1563 773 1555 773 1546 L 772 1538 C 696 1336 658 1230 658 1219 Z M 442 340 L 442 1100 C 442 1139 435 1169 421 1191 C 407 1212 389 1223 365 1223 C 339 1223 320 1212 307 1190 C 293 1168 287 1138 287 1100 L 287 340 C 287 292 293 259 305 242 C 317 225 337 217 365 217 C 391 217 410 226 423 244 C 435 262 442 294 442 340 Z" unicode="Ø" />
<glyph horiz-adv-x="731" d="M 664 287 C 664 199 637 129 583 77 C 529 25 456 0 365 0 C 279 0 208 27 152 81 C 96 135 68 203 68 285 L 68 1399 C 68 1415 74 1424 87 1428 C 100 1432 132 1434 182 1434 C 222 1434 250 1432 265 1428 C 279 1424 287 1414 287 1399 L 287 332 C 287 291 293 262 306 244 C 318 226 338 217 365 217 C 416 217 442 255 442 332 L 442 1401 C 442 1416 448 1425 460 1429 C 472 1432 501 1434 545 1434 C 592 1434 624 1432 640 1428 C 656 1424 664 1416 664 1403 L 664 287 Z M 497 1490 C 490 1490 481 1493 469 1499 C 389 1537 321 1568 265 1592 L 196 1622 C 176 1635 166 1649 166 1664 C 166 1669 168 1674 172 1679 C 182 1693 193 1720 206 1759 C 210 1769 216 1775 226 1775 C 236 1775 252 1769 276 1759 C 362 1719 429 1689 477 1671 C 525 1649 550 1628 550 1610 L 548 1601 C 528 1550 518 1521 518 1513 C 514 1497 507 1490 497 1490 Z" unicode="Ù" />
<glyph horiz-adv-x="731" d="M 664 287 C 664 199 637 129 583 77 C 529 25 456 0 365 0 C 279 0 208 27 152 81 C 96 135 68 203 68 285 L 68 1399 C 68 1415 74 1424 87 1428 C 100 1432 132 1434 182 1434 C 222 1434 250 1432 265 1428 C 279 1424 287 1414 287 1399 L 287 332 C 287 291 293 262 306 244 C 318 226 338 217 365 217 C 416 217 442 255 442 332 L 442 1401 C 442 1416 448 1425 460 1429 C 472 1432 501 1434 545 1434 C 592 1434 624 1432 640 1428 C 656 1424 664 1416 664 1403 L 664 287 Z M 569 1664 C 569 1656 565 1648 558 1640 C 550 1631 543 1625 537 1622 L 469 1592 C 402 1564 334 1533 264 1499 C 251 1493 241 1490 235 1490 C 225 1490 219 1497 217 1513 C 209 1542 198 1571 184 1601 L 182 1610 C 182 1628 206 1649 256 1671 C 304 1689 371 1718 457 1759 C 481 1769 497 1775 507 1775 C 509 1775 512 1774 515 1773 C 517 1771 519 1769 521 1767 C 523 1765 524 1762 526 1759 C 527 1755 532 1742 542 1720 C 552 1698 558 1684 562 1679 C 566 1674 568 1669 569 1664 Z" unicode="Ú" />
<glyph horiz-adv-x="731" d="M 664 287 C 664 199 637 129 583 77 C 529 25 456 0 365 0 C 279 0 208 27 152 81 C 96 135 68 203 68 285 L 68 1399 C 68 1415 74 1424 87 1428 C 100 1432 132 1434 182 1434 C 222 1434 250 1432 265 1428 C 279 1424 287 1414 287 1399 L 287 332 C 287 291 293 262 306 244 C 318 226 338 217 365 217 C 416 217 442 255 442 332 L 442 1401 C 442 1416 448 1425 460 1429 C 472 1432 501 1434 545 1434 C 592 1434 624 1432 640 1428 C 656 1424 664 1416 664 1403 L 664 287 Z M 606 1589 C 606 1580 596 1558 576 1523 L 567 1503 C 562 1487 554 1479 543 1479 C 535 1479 526 1483 518 1493 C 427 1580 377 1624 368 1624 C 360 1624 344 1612 319 1589 C 293 1565 260 1534 219 1495 C 209 1485 200 1481 192 1481 C 179 1481 172 1489 170 1505 L 160 1526 C 139 1562 129 1585 129 1595 L 129 1598 L 129 1600 C 129 1607 138 1618 158 1633 L 270 1721 C 320 1761 352 1782 368 1782 C 384 1782 417 1759 469 1714 L 514 1675 C 539 1653 560 1636 578 1624 C 595 1611 604 1599 606 1589 Z" unicode="Û" />
<glyph horiz-adv-x="731" d="M 664 287 C 664 199 637 129 583 77 C 529 25 456 0 365 0 C 279 0 208 27 152 81 C 96 135 68 203 68 285 L 68 1399 C 68 1415 74 1424 87 1428 C 100 1432 132 1434 182 1434 C 222 1434 250 1432 265 1428 C 279 1424 287 1414 287 1399 L 287 332 C 287 291 293 262 306 244 C 318 226 338 217 365 217 C 416 217 442 255 442 332 L 442 1401 C 442 1416 448 1425 460 1429 C 472 1432 501 1434 545 1434 C 592 1434 624 1432 640 1428 C 656 1424 664 1416 664 1403 L 664 287 Z M 632 1606 C 632 1532 595 1495 521 1495 C 491 1495 468 1504 452 1524 C 436 1543 428 1572 428 1612 C 428 1643 436 1669 453 1690 C 469 1710 491 1721 519 1721 C 542 1721 562 1717 580 1709 C 598 1701 611 1690 619 1675 C 627 1659 632 1636 632 1606 Z M 194 1495 C 164 1495 141 1504 125 1524 C 108 1543 100 1572 100 1612 C 100 1642 108 1667 125 1689 C 142 1710 164 1721 191 1721 C 225 1721 252 1713 272 1697 C 292 1681 303 1655 303 1617 C 303 1572 293 1540 275 1522 C 256 1504 229 1495 194 1495 Z" unicode="Ü" />
<glyph horiz-adv-x="651" d="M 438 504 L 438 16 C 438 5 410 0 355 0 L 295 0 C 243 0 217 7 217 23 L 219 498 C 219 542 217 575 213 598 L 201 653 C 193 679 183 719 171 773 C 159 826 134 934 97 1098 C 60 1261 38 1364 31 1407 C 31 1423 61 1432 123 1432 C 168 1432 200 1429 218 1424 C 236 1419 246 1411 248 1399 L 317 895 C 317 891 318 887 320 883 C 322 879 326 877 330 877 C 336 877 340 883 340 897 L 374 1147 L 406 1399 C 406 1409 417 1417 438 1423 C 458 1429 486 1432 520 1432 C 561 1432 588 1430 601 1426 C 614 1422 621 1415 621 1407 L 584 1230 C 549 1068 512 903 473 733 C 471 724 469 715 467 707 C 465 698 463 689 462 680 C 460 671 456 643 448 597 C 440 550 436 519 438 504 Z M 536 1664 C 536 1656 532 1648 525 1640 C 517 1631 510 1625 504 1622 L 436 1592 C 369 1564 301 1533 231 1499 C 218 1493 208 1490 202 1490 C 192 1490 186 1497 184 1513 C 176 1542 165 1571 151 1601 L 149 1610 C 149 1628 173 1649 223 1671 C 271 1689 338 1718 424 1759 C 448 1769 464 1775 474 1775 C 476 1775 479 1774 482 1773 C 484 1771 486 1769 488 1767 C 490 1765 491 1762 493 1759 C 494 1755 499 1742 509 1720 C 519 1698 525 1684 529 1679 C 533 1674 535 1669 536 1664 Z" unicode="Ý" />
<glyph horiz-adv-x="729" d="M 678 600 C 678 510 648 436 589 376 C 530 316 449 287 346 287 C 331 287 320 282 312 274 C 304 265 301 248 301 223 L 301 33 C 301 19 296 10 288 6 C 280 2 265 0 244 0 L 186 0 C 140 0 113 1 105 3 C 96 5 90 10 87 16 C 83 22 82 31 82 45 L 82 1370 C 82 1395 85 1412 92 1421 C 97 1428 104 1432 112 1433 C 120 1433 131 1434 143 1434 L 270 1434 C 282 1434 291 1423 295 1403 C 299 1383 301 1353 301 1313 C 301 1266 302 1235 304 1220 C 306 1204 309 1193 315 1187 C 321 1181 333 1178 352 1178 C 450 1178 529 1150 589 1096 C 648 1042 678 966 678 868 L 678 600 Z M 457 629 L 457 825 C 457 875 449 911 434 932 C 419 952 395 963 362 963 C 332 963 315 960 309 956 C 303 952 301 942 301 926 L 301 537 C 301 517 301 505 303 502 C 304 499 306 497 310 495 C 313 493 320 492 332 492 L 358 492 C 374 492 389 495 402 501 C 415 507 426 516 436 530 C 446 543 452 556 454 570 C 456 583 457 603 457 629 Z" unicode="Þ" />
<glyph horiz-adv-x="731" d="M 664 303 C 664 211 637 137 584 82 C 531 27 460 0 371 0 C 363 0 357 5 354 16 C 351 27 350 58 350 109 C 350 152 351 180 354 194 C 356 208 362 215 371 215 C 425 215 453 258 453 344 L 453 567 C 453 600 444 628 428 651 C 412 674 391 686 365 686 C 357 686 351 689 349 696 C 347 703 346 725 346 762 C 346 795 346 817 348 827 C 350 837 355 842 365 842 C 391 842 413 852 429 874 C 445 895 453 922 453 956 L 453 1116 C 453 1148 446 1174 432 1194 C 418 1214 397 1225 369 1225 C 341 1225 320 1214 307 1193 C 293 1172 287 1146 287 1114 L 287 29 C 287 8 245 -2 161 -2 C 136 -2 114 0 96 3 C 77 7 68 15 68 29 L 68 1161 C 68 1239 96 1304 153 1356 C 209 1408 280 1434 365 1434 C 451 1434 523 1408 579 1357 C 635 1306 664 1240 664 1159 L 664 928 C 664 901 656 874 641 847 C 626 820 609 801 590 789 L 561 768 C 568 762 578 756 590 750 C 602 744 613 733 625 719 C 635 701 644 683 652 665 C 660 646 664 622 664 594 L 664 303 Z" unicode="ß" />
<glyph horiz-adv-x="707" d="M 645 20 C 645 11 642 5 637 3 C 632 1 619 0 599 0 L 553 0 C 498 0 466 1 456 5 C 446 9 442 17 442 31 L 443 50 C 443 64 440 71 436 71 L 430 68 L 415 50 C 403 35 388 23 370 14 C 352 4 332 0 311 0 C 229 0 165 25 119 76 C 73 127 51 199 51 291 L 51 690 C 51 752 62 805 84 849 C 106 893 136 927 176 950 C 216 973 260 985 309 985 C 330 985 351 979 372 968 C 393 957 410 943 424 926 C 428 920 432 918 434 918 L 438 922 L 440 958 C 440 969 445 977 456 981 C 467 985 499 987 551 987 C 594 987 620 985 630 983 C 640 981 645 975 645 965 L 645 20 Z M 430 354 L 430 637 C 430 727 402 772 348 772 C 322 772 302 760 288 738 C 273 716 266 682 266 637 L 266 354 C 266 305 272 270 286 249 C 299 227 320 217 348 217 C 376 217 396 227 410 249 C 423 271 430 306 430 354 Z M 497 1090 C 490 1090 481 1093 469 1099 C 389 1137 321 1168 265 1192 L 196 1222 C 176 1235 166 1249 166 1264 C 166 1269 168 1274 172 1279 C 182 1293 193 1320 206 1359 C 210 1369 216 1375 226 1375 C 236 1375 252 1369 276 1359 C 362 1319 429 1289 477 1271 C 525 1249 550 1228 550 1210 L 548 1201 C 528 1150 518 1121 518 1113 C 514 1097 507 1090 497 1090 Z" unicode="à" />
<glyph horiz-adv-x="707" d="M 645 20 C 645 11 642 5 637 3 C 632 1 619 0 599 0 L 553 0 C 498 0 466 1 456 5 C 446 9 442 17 442 31 L 443 50 C 443 64 440 71 436 71 L 430 68 L 415 50 C 403 35 388 23 370 14 C 352 4 332 0 311 0 C 229 0 165 25 119 76 C 73 127 51 199 51 291 L 51 690 C 51 752 62 805 84 849 C 106 893 136 927 176 950 C 216 973 260 985 309 985 C 330 985 351 979 372 968 C 393 957 410 943 424 926 C 428 920 432 918 434 918 L 438 922 L 440 958 C 440 969 445 977 456 981 C 467 985 499 987 551 987 C 594 987 620 985 630 983 C 640 981 645 975 645 965 L 645 20 Z M 430 354 L 430 637 C 430 727 402 772 348 772 C 322 772 302 760 288 738 C 273 716 266 682 266 637 L 266 354 C 266 305 272 270 286 249 C 299 227 320 217 348 217 C 376 217 396 227 410 249 C 423 271 430 306 430 354 Z M 569 1264 C 569 1256 565 1248 558 1240 C 550 1231 543 1225 537 1222 L 469 1192 C 402 1164 334 1133 264 1099 C 251 1093 241 1090 235 1090 C 225 1090 219 1097 217 1113 C 209 1142 198 1171 184 1201 L 182 1210 C 182 1228 206 1249 256 1271 C 304 1289 371 1318 457 1359 C 481 1369 497 1375 507 1375 C 509 1375 512 1374 515 1373 C 517 1371 519 1369 521 1367 C 523 1365 524 1362 526 1359 C 527 1355 532 1342 542 1320 C 552 1298 558 1284 562 1279 C 566 1274 568 1269 569 1264 Z" unicode="á" />
<glyph horiz-adv-x="707" d="M 645 20 C 645 11 642 5 637 3 C 632 1 619 0 599 0 L 553 0 C 498 0 466 1 456 5 C 446 9 442 17 442 31 L 443 50 C 443 64 440 71 436 71 L 430 68 L 415 50 C 403 35 388 23 370 14 C 352 4 332 0 311 0 C 229 0 165 25 119 76 C 73 127 51 199 51 291 L 51 690 C 51 752 62 805 84 849 C 106 893 136 927 176 950 C 216 973 260 985 309 985 C 330 985 351 979 372 968 C 393 957 410 943 424 926 C 428 920 432 918 434 918 L 438 922 L 440 958 C 440 969 445 977 456 981 C 467 985 499 987 551 987 C 594 987 620 985 630 983 C 640 981 645 975 645 965 L 645 20 Z M 430 354 L 430 637 C 430 727 402 772 348 772 C 322 772 302 760 288 738 C 273 716 266 682 266 637 L 266 354 C 266 305 272 270 286 249 C 299 227 320 217 348 217 C 376 217 396 227 410 249 C 423 271 430 306 430 354 Z M 602 1175 C 602 1166 592 1144 572 1109 L 563 1089 C 558 1073 550 1065 539 1065 C 531 1065 522 1069 514 1079 C 423 1166 373 1210 364 1210 C 356 1210 340 1198 315 1175 C 289 1151 256 1120 215 1081 C 205 1071 196 1067 188 1067 C 175 1067 168 1075 166 1091 L 156 1112 C 135 1148 125 1171 125 1181 L 125 1184 L 125 1186 C 125 1193 134 1204 154 1219 L 266 1307 C 316 1347 348 1368 364 1368 C 380 1368 413 1345 465 1300 L 510 1261 C 535 1239 556 1222 574 1210 C 591 1197 600 1185 602 1175 Z" unicode="â" />
<glyph horiz-adv-x="707" d="M 645 20 C 645 11 642 5 637 3 C 632 1 619 0 599 0 L 553 0 C 498 0 466 1 456 5 C 446 9 442 17 442 31 L 443 50 C 443 64 440 71 436 71 L 430 68 L 415 50 C 403 35 388 23 370 14 C 352 4 332 0 311 0 C 229 0 165 25 119 76 C 73 127 51 199 51 291 L 51 690 C 51 752 62 805 84 849 C 106 893 136 927 176 950 C 216 973 260 985 309 985 C 330 985 351 979 372 968 C 393 957 410 943 424 926 C 428 920 432 918 434 918 L 438 922 L 440 958 C 440 969 445 977 456 981 C 467 985 499 987 551 987 C 594 987 620 985 630 983 C 640 981 645 975 645 965 L 645 20 Z M 430 354 L 430 637 C 430 727 402 772 348 772 C 322 772 302 760 288 738 C 273 716 266 682 266 637 L 266 354 C 266 305 272 270 286 249 C 299 227 320 217 348 217 C 376 217 396 227 410 249 C 423 271 430 306 430 354 Z M 596 1204 C 596 1194 579 1177 547 1153 L 516 1128 C 500 1115 487 1106 475 1100 C 463 1094 449 1091 432 1091 C 398 1091 374 1099 358 1115 C 336 1136 323 1148 318 1150 C 313 1152 306 1154 297 1154 C 290 1154 284 1152 280 1150 C 275 1148 265 1140 250 1126 C 229 1107 216 1096 211 1093 C 205 1089 200 1088 194 1088 C 179 1088 170 1094 168 1107 C 166 1112 153 1139 129 1187 L 127 1195 C 127 1201 131 1208 139 1217 C 147 1225 170 1243 208 1270 C 246 1296 275 1310 295 1310 C 307 1310 318 1309 330 1308 C 341 1307 354 1300 368 1287 C 384 1271 396 1260 403 1252 C 410 1244 419 1240 430 1240 C 438 1240 448 1244 458 1254 C 468 1263 484 1278 506 1300 C 514 1308 522 1313 530 1313 C 542 1313 550 1305 555 1289 C 558 1276 571 1250 594 1210 L 596 1204 Z" unicode="ã" />
<glyph horiz-adv-x="707" d="M 645 20 C 645 11 642 5 637 3 C 632 1 619 0 599 0 L 553 0 C 498 0 466 1 456 5 C 446 9 442 17 442 31 L 443 50 C 443 64 440 71 436 71 L 430 68 L 415 50 C 403 35 388 23 370 14 C 352 4 332 0 311 0 C 229 0 165 25 119 76 C 73 127 51 199 51 291 L 51 690 C 51 752 62 805 84 849 C 106 893 136 927 176 950 C 216 973 260 985 309 985 C 330 985 351 979 372 968 C 393 957 410 943 424 926 C 428 920 432 918 434 918 L 438 922 L 440 958 C 440 969 445 977 456 981 C 467 985 499 987 551 987 C 594 987 620 985 630 983 C 640 981 645 975 645 965 L 645 20 Z M 430 354 L 430 637 C 430 727 402 772 348 772 C 322 772 302 760 288 738 C 273 716 266 682 266 637 L 266 354 C 266 305 272 270 286 249 C 299 227 320 217 348 217 C 376 217 396 227 410 249 C 423 271 430 306 430 354 Z M 630 1201 C 630 1127 593 1090 519 1090 C 489 1090 466 1099 450 1119 C 434 1138 426 1167 426 1207 C 426 1238 434 1264 451 1285 C 467 1305 489 1316 517 1316 C 540 1316 560 1312 578 1304 C 596 1296 609 1285 617 1270 C 625 1254 630 1231 630 1201 Z M 192 1090 C 162 1090 139 1099 123 1119 C 106 1138 98 1167 98 1207 C 98 1237 106 1262 123 1284 C 140 1305 162 1316 189 1316 C 223 1316 250 1308 270 1292 C 290 1276 301 1250 301 1212 C 301 1167 291 1135 273 1117 C 254 1099 227 1090 192 1090 Z" unicode="ä" />
<glyph horiz-adv-x="707" d="M 645 20 C 645 11 642 5 637 3 C 632 1 619 0 599 0 L 553 0 C 498 0 466 1 456 5 C 446 9 442 17 442 31 L 443 50 C 443 64 440 71 436 71 L 430 68 L 415 50 C 403 35 388 23 370 14 C 352 4 332 0 311 0 C 229 0 165 25 119 76 C 73 127 51 199 51 291 L 51 690 C 51 752 62 805 84 849 C 106 893 136 927 176 950 C 216 973 260 985 309 985 C 330 985 351 979 372 968 C 393 957 410 943 424 926 C 428 920 432 918 434 918 L 438 922 L 440 958 C 440 969 445 977 456 981 C 467 985 499 987 551 987 C 594 987 620 985 630 983 C 640 981 645 975 645 965 L 645 20 Z M 430 354 L 430 637 C 430 727 402 772 348 772 C 322 772 302 760 288 738 C 273 716 266 682 266 637 L 266 354 C 266 305 272 270 286 249 C 299 227 320 217 348 217 C 376 217 396 227 410 249 C 423 271 430 306 430 354 Z M 493 1231 C 493 1178 479 1141 452 1121 C 424 1100 390 1090 348 1090 C 313 1090 282 1103 256 1130 C 229 1156 216 1187 216 1222 C 216 1246 220 1270 229 1296 C 237 1322 251 1340 270 1351 C 288 1362 320 1368 365 1368 C 399 1368 429 1354 455 1328 C 480 1302 493 1269 493 1231 Z M 422 1237 C 422 1253 416 1267 406 1279 C 396 1291 382 1298 365 1298 C 343 1298 326 1295 316 1289 C 306 1283 299 1272 295 1255 C 291 1238 290 1226 290 1220 C 290 1204 296 1191 308 1179 C 320 1167 335 1162 353 1162 C 370 1162 386 1167 400 1177 C 414 1187 422 1204 422 1229 L 422 1237 Z" unicode="å" />
<glyph horiz-adv-x="1077" d="M 1026 295 C 1026 199 999 126 946 76 C 892 25 820 0 729 0 C 657 0 602 21 563 64 C 555 72 547 76 539 76 C 529 76 520 72 513 64 C 473 21 407 0 315 0 C 237 0 173 29 124 87 C 75 145 51 222 51 319 C 51 407 74 477 120 529 C 166 580 229 606 307 606 C 357 606 398 588 432 553 L 436 550 L 438 555 L 438 637 C 438 736 408 786 348 786 C 320 786 298 776 282 758 C 266 740 258 714 258 682 C 258 672 247 665 227 660 C 206 655 182 653 156 653 C 114 653 88 656 76 662 C 64 668 59 677 59 690 C 59 751 71 804 95 848 C 119 892 151 925 193 949 C 235 973 282 985 334 985 C 372 985 402 981 424 973 C 446 965 464 956 478 947 C 491 937 502 929 510 921 C 518 913 528 909 539 909 C 549 909 558 913 568 921 C 577 929 588 937 602 947 C 616 956 632 965 652 973 C 672 981 697 985 729 985 C 816 985 887 958 943 905 C 998 851 1026 780 1026 692 L 1026 479 C 1026 467 1024 460 1022 457 C 1020 454 1016 452 1010 451 C 1004 449 995 449 985 449 L 666 449 C 657 449 650 447 645 443 C 639 439 637 430 637 416 L 637 305 C 637 246 666 217 725 217 C 755 217 776 226 790 244 C 804 262 811 284 811 311 C 811 316 817 319 831 321 C 845 323 872 324 913 324 C 968 324 1001 322 1011 318 C 1021 314 1026 307 1026 295 Z M 807 625 L 807 680 C 807 708 799 730 784 747 C 768 763 748 772 723 772 C 697 772 676 763 661 745 C 646 727 639 706 639 680 L 639 629 C 639 608 666 598 721 598 C 778 598 807 607 807 625 Z M 434 276 L 434 373 C 434 390 425 404 407 415 C 389 426 365 432 334 432 C 310 432 289 422 271 403 C 253 383 244 355 244 319 C 244 281 252 252 268 230 C 284 208 306 197 334 197 C 372 197 398 202 412 212 C 426 222 434 244 434 276 Z" unicode="æ" />
<glyph horiz-adv-x="676" d="M 647 295 C 647 237 635 187 613 144 C 591 100 561 66 525 41 C 489 16 452 4 416 4 C 409 4 406 -3 406 -18 L 408 -55 C 408 -107 389 -152 352 -190 C 315 -228 271 -248 219 -248 C 215 -248 212 -243 212 -234 C 211 -225 211 -213 211 -197 L 211 -175 C 211 -145 213 -131 217 -131 C 237 -131 255 -123 271 -108 C 287 -92 295 -75 295 -57 L 296 -21 C 296 -7 293 0 289 0 C 268 0 241 8 207 26 C 173 44 145 65 123 91 C 101 117 83 147 70 181 C 57 215 51 253 51 295 L 51 690 C 51 780 79 851 135 905 C 191 958 262 985 348 985 C 441 985 514 959 567 907 C 620 855 647 782 647 688 C 647 677 641 670 630 668 C 618 665 584 664 528 664 L 475 664 C 456 664 443 665 436 667 C 429 669 426 673 426 680 C 426 704 419 725 406 742 C 392 759 373 768 348 768 C 296 768 270 726 270 643 L 270 340 C 270 295 276 263 289 245 C 302 226 322 217 348 217 C 371 217 390 224 404 240 C 418 255 426 277 426 305 C 426 313 434 319 450 322 C 466 324 495 326 535 326 L 596 326 C 614 326 627 324 635 321 C 643 317 647 309 647 295 Z" unicode="ç" />
<glyph horiz-adv-x="696" d="M 645 295 C 645 199 618 126 565 76 C 511 25 439 0 348 0 C 260 0 189 26 134 79 C 78 132 51 204 51 295 L 51 692 C 51 778 78 849 134 903 C 189 957 260 985 348 985 C 435 985 506 958 562 905 C 617 851 645 780 645 692 L 645 479 C 645 467 643 460 641 457 C 639 454 635 452 629 451 C 623 449 614 449 604 449 L 293 449 C 284 449 277 447 272 443 C 266 439 264 430 264 416 C 264 334 266 284 271 267 C 276 249 285 237 297 229 C 309 221 326 217 348 217 C 402 217 430 248 430 311 C 430 316 437 319 452 321 C 466 323 493 324 532 324 C 587 324 620 322 630 318 C 640 314 645 307 645 295 Z M 426 625 L 426 680 C 426 710 418 732 404 748 C 389 764 370 772 346 772 C 321 772 301 763 287 747 C 273 731 266 708 266 680 L 266 629 C 266 618 272 610 284 605 C 296 600 316 598 344 598 C 370 598 391 600 405 604 C 419 608 426 615 426 625 Z M 477 1076 C 470 1076 461 1079 449 1085 C 369 1123 301 1154 245 1178 L 176 1208 C 156 1221 146 1235 146 1250 C 146 1255 148 1260 152 1265 C 162 1279 173 1306 186 1345 C 190 1355 196 1361 206 1361 C 216 1361 232 1355 256 1345 C 342 1305 409 1275 457 1257 C 505 1235 530 1214 530 1196 L 528 1187 C 508 1136 498 1107 498 1099 C 494 1083 487 1076 477 1076 Z" unicode="è" />
<glyph horiz-adv-x="696" d="M 645 295 C 645 199 618 126 565 76 C 511 25 439 0 348 0 C 260 0 189 26 134 79 C 78 132 51 204 51 295 L 51 692 C 51 778 78 849 134 903 C 189 957 260 985 348 985 C 435 985 506 958 562 905 C 617 851 645 780 645 692 L 645 479 C 645 467 643 460 641 457 C 639 454 635 452 629 451 C 623 449 614 449 604 449 L 293 449 C 284 449 277 447 272 443 C 266 439 264 430 264 416 C 264 334 266 284 271 267 C 276 249 285 237 297 229 C 309 221 326 217 348 217 C 402 217 430 248 430 311 C 430 316 437 319 452 321 C 466 323 493 324 532 324 C 587 324 620 322 630 318 C 640 314 645 307 645 295 Z M 426 625 L 426 680 C 426 710 418 732 404 748 C 389 764 370 772 346 772 C 321 772 301 763 287 747 C 273 731 266 708 266 680 L 266 629 C 266 618 272 610 284 605 C 296 600 316 598 344 598 C 370 598 391 600 405 604 C 419 608 426 615 426 625 Z M 550 1250 C 550 1242 546 1234 539 1226 C 531 1217 524 1211 518 1208 L 450 1178 C 383 1150 315 1119 245 1085 C 232 1079 222 1076 216 1076 C 206 1076 200 1083 198 1099 C 190 1128 179 1157 165 1187 L 163 1196 C 163 1214 187 1235 237 1257 C 285 1275 352 1304 438 1345 C 462 1355 478 1361 488 1361 C 490 1361 493 1360 496 1359 C 498 1357 500 1355 502 1353 C 504 1351 505 1348 507 1345 C 508 1341 513 1328 523 1306 C 533 1284 539 1270 543 1265 C 547 1260 549 1255 550 1250 Z" unicode="é" />
<glyph horiz-adv-x="696" d="M 645 295 C 645 199 618 126 565 76 C 511 25 439 0 348 0 C 260 0 189 26 134 79 C 78 132 51 204 51 295 L 51 692 C 51 778 78 849 134 903 C 189 957 260 985 348 985 C 435 985 506 958 562 905 C 617 851 645 780 645 692 L 645 479 C 645 467 643 460 641 457 C 639 454 635 452 629 451 C 623 449 614 449 604 449 L 293 449 C 284 449 277 447 272 443 C 266 439 264 430 264 416 C 264 334 266 284 271 267 C 276 249 285 237 297 229 C 309 221 326 217 348 217 C 402 217 430 248 430 311 C 430 316 437 319 452 321 C 466 323 493 324 532 324 C 587 324 620 322 630 318 C 640 314 645 307 645 295 Z M 426 625 L 426 680 C 426 710 418 732 404 748 C 389 764 370 772 346 772 C 321 772 301 763 287 747 C 273 731 266 708 266 680 L 266 629 C 266 618 272 610 284 605 C 296 600 316 598 344 598 C 370 598 391 600 405 604 C 419 608 426 615 426 625 Z M 586 1171 C 586 1162 576 1140 556 1105 L 547 1085 C 542 1069 534 1061 523 1061 C 515 1061 506 1065 498 1075 C 407 1162 357 1206 348 1206 C 340 1206 324 1194 299 1171 C 273 1147 240 1116 199 1077 C 189 1067 180 1063 172 1063 C 159 1063 152 1071 150 1087 L 140 1108 C 119 1144 109 1167 109 1177 L 109 1180 L 109 1182 C 109 1189 118 1200 138 1215 L 250 1303 C 300 1343 332 1364 348 1364 C 364 1364 397 1341 449 1296 L 494 1257 C 519 1235 540 1218 558 1206 C 575 1193 584 1181 586 1171 Z" unicode="ê" />
<glyph horiz-adv-x="696" d="M 645 295 C 645 199 618 126 565 76 C 511 25 439 0 348 0 C 260 0 189 26 134 79 C 78 132 51 204 51 295 L 51 692 C 51 778 78 849 134 903 C 189 957 260 985 348 985 C 435 985 506 958 562 905 C 617 851 645 780 645 692 L 645 479 C 645 467 643 460 641 457 C 639 454 635 452 629 451 C 623 449 614 449 604 449 L 293 449 C 284 449 277 447 272 443 C 266 439 264 430 264 416 C 264 334 266 284 271 267 C 276 249 285 237 297 229 C 309 221 326 217 348 217 C 402 217 430 248 430 311 C 430 316 437 319 452 321 C 466 323 493 324 532 324 C 587 324 620 322 630 318 C 640 314 645 307 645 295 Z M 426 625 L 426 680 C 426 710 418 732 404 748 C 389 764 370 772 346 772 C 321 772 301 763 287 747 C 273 731 266 708 266 680 L 266 629 C 266 618 272 610 284 605 C 296 600 316 598 344 598 C 370 598 391 600 405 604 C 419 608 426 615 426 625 Z M 618 1201 C 618 1127 581 1090 507 1090 C 477 1090 454 1099 438 1119 C 422 1138 414 1167 414 1207 C 414 1238 422 1264 439 1285 C 455 1305 477 1316 505 1316 C 528 1316 548 1312 566 1304 C 584 1296 597 1285 605 1270 C 613 1254 618 1231 618 1201 Z M 180 1090 C 150 1090 127 1099 111 1119 C 94 1138 86 1167 86 1207 C 86 1237 94 1262 111 1284 C 128 1305 150 1316 177 1316 C 211 1316 238 1308 258 1292 C 278 1276 289 1250 289 1212 C 289 1167 279 1135 261 1117 C 242 1099 215 1090 180 1090 Z" unicode="ë" />
<glyph horiz-adv-x="362" d="M 291 37 C 291 21 288 12 282 8 C 276 4 266 1 251 1 C 236 0 211 0 176 0 C 132 0 106 0 96 2 C 86 3 80 5 77 9 C 73 12 72 20 72 33 L 72 950 C 72 966 77 975 87 979 C 97 983 126 985 176 985 C 224 985 253 984 263 982 C 273 980 280 978 284 974 C 288 970 291 962 291 948 L 291 37 Z M 314 1088 C 307 1088 298 1091 286 1097 C 206 1135 138 1166 82 1190 L 13 1220 C -7 1233 -17 1247 -17 1262 C -17 1267 -15 1272 -11 1277 C -1 1291 10 1318 23 1357 C 27 1367 33 1373 43 1373 C 53 1373 69 1367 93 1357 C 179 1317 246 1287 294 1269 C 342 1247 367 1226 367 1208 L 365 1199 C 345 1148 335 1119 335 1111 C 331 1095 324 1088 314 1088 Z" unicode="ì" />
<glyph horiz-adv-x="362" d="M 291 37 C 291 21 288 12 282 8 C 276 4 266 1 251 1 C 236 0 211 0 176 0 C 132 0 106 0 96 2 C 86 3 80 5 77 9 C 73 12 72 20 72 33 L 72 950 C 72 966 77 975 87 979 C 97 983 126 985 176 985 C 224 985 253 984 263 982 C 273 980 280 978 284 974 C 288 970 291 962 291 948 L 291 37 Z M 400 1262 C 400 1254 396 1246 389 1238 C 381 1229 374 1223 368 1220 L 300 1190 C 233 1162 165 1131 95 1097 C 82 1091 72 1088 66 1088 C 56 1088 50 1095 48 1111 C 40 1140 29 1169 15 1199 L 13 1208 C 13 1226 37 1247 87 1269 C 135 1287 202 1316 288 1357 C 312 1367 328 1373 338 1373 C 340 1373 343 1372 346 1371 C 348 1369 350 1367 352 1365 C 354 1363 355 1360 357 1357 C 358 1353 363 1340 373 1318 C 383 1296 389 1282 393 1277 C 397 1272 399 1267 400 1262 Z" unicode="í" />
<glyph horiz-adv-x="362" d="M 291 37 C 291 21 288 12 282 8 C 276 4 266 1 251 1 C 236 0 211 0 176 0 C 132 0 106 0 96 2 C 86 3 80 5 77 9 C 73 12 72 20 72 33 L 72 950 C 72 966 77 975 87 979 C 97 983 126 985 176 985 C 224 985 253 984 263 982 C 273 980 280 978 284 974 C 288 970 291 962 291 948 L 291 37 Z M 423 1175 C 423 1166 413 1144 393 1109 L 384 1089 C 379 1073 371 1065 360 1065 C 352 1065 343 1069 335 1079 C 244 1166 194 1210 185 1210 C 177 1210 161 1198 136 1175 C 110 1151 77 1120 36 1081 C 26 1071 17 1067 9 1067 C -3 1067 -11 1075 -13 1091 L -23 1112 C -43 1148 -54 1171 -54 1181 L -54 1184 L -54 1186 C -54 1193 -44 1204 -25 1219 L 87 1307 C 137 1347 169 1368 185 1368 C 201 1368 234 1345 286 1300 L 331 1261 C 356 1239 377 1222 395 1210 C 412 1197 421 1185 423 1175 Z" unicode="î" />
<glyph horiz-adv-x="362" d="M 291 37 C 291 21 288 12 282 8 C 276 4 266 1 251 1 C 236 0 211 0 176 0 C 132 0 106 0 96 2 C 86 3 80 5 77 9 C 73 12 72 20 72 33 L 72 950 C 72 966 77 975 87 979 C 97 983 126 985 176 985 C 224 985 253 984 263 982 C 273 980 280 978 284 974 C 288 970 291 962 291 948 L 291 37 Z M 455 1201 C 455 1127 418 1090 344 1090 C 314 1090 291 1099 275 1119 C 259 1138 251 1167 251 1207 C 251 1238 259 1264 276 1285 C 292 1305 314 1316 342 1316 C 365 1316 385 1312 403 1304 C 421 1296 434 1285 442 1270 C 450 1254 455 1231 455 1201 Z M 17 1090 C -12 1090 -35 1099 -52 1119 C -68 1138 -77 1167 -77 1207 C -77 1237 -68 1262 -51 1284 C -34 1305 -12 1316 14 1316 C 48 1316 75 1308 95 1292 C 115 1276 126 1250 126 1212 C 126 1167 116 1135 98 1117 C 79 1099 52 1090 17 1090 Z" unicode="ï" />
<glyph horiz-adv-x="707" d="M 761 1106 C 761 1100 759 1095 756 1089 C 753 1083 741 1081 721 1081 L 699 1081 C 663 1081 645 1077 645 1071 L 645 16 C 645 11 643 7 640 5 C 637 3 633 1 627 1 C 621 0 573 0 483 -1 C 467 -1 456 0 451 4 C 446 8 444 15 444 27 C 444 51 441 64 437 64 L 428 59 C 410 41 389 26 367 16 C 344 5 323 0 305 0 C 226 0 164 25 119 75 C 73 125 51 197 51 291 L 51 690 C 51 780 74 851 120 905 C 166 958 227 985 305 985 C 321 985 341 980 364 971 C 386 962 404 952 418 940 C 422 935 426 933 429 933 C 436 933 440 945 440 969 L 440 1075 C 440 1080 425 1083 395 1083 L 375 1083 C 365 1083 354 1086 344 1092 C 333 1098 327 1106 327 1116 L 331 1165 L 328 1214 C 328 1224 332 1231 342 1235 C 352 1239 368 1241 391 1241 L 421 1241 C 433 1241 440 1243 440 1247 L 440 1417 C 440 1426 448 1431 466 1432 C 483 1433 509 1434 545 1434 C 583 1434 609 1433 623 1432 C 637 1431 645 1426 645 1417 L 645 1247 C 645 1243 648 1241 655 1241 L 670 1241 C 691 1241 710 1238 728 1233 C 745 1227 754 1219 754 1208 L 754 1188 C 754 1156 756 1132 760 1114 L 761 1106 Z M 430 354 L 430 637 C 430 727 402 772 348 772 C 322 772 302 760 288 738 C 273 716 266 682 266 637 L 266 354 C 266 305 272 270 286 249 C 299 227 320 217 348 217 C 402 217 430 262 430 354 Z" unicode="ð" />
<glyph horiz-adv-x="719" d="M 657 20 C 657 12 651 6 641 4 C 631 1 602 0 555 0 C 503 0 470 1 456 3 C 442 5 436 9 436 16 L 436 643 C 436 693 431 727 421 745 C 411 763 395 772 375 772 C 341 772 316 760 302 736 C 288 712 281 683 281 649 L 281 23 C 281 13 277 7 271 5 C 265 3 252 1 234 1 C 215 0 192 0 164 0 C 116 0 87 1 77 3 C 66 5 61 10 61 20 L 61 967 C 61 973 64 978 72 980 C 79 982 91 983 107 983 L 154 983 L 211 984 C 232 984 246 982 252 978 C 258 974 262 966 262 952 C 262 914 263 895 266 895 C 268 895 272 898 276 905 C 286 924 307 942 337 958 C 367 974 394 983 418 983 C 496 983 555 957 596 907 C 636 856 657 782 657 686 L 657 20 Z M 579 1204 C 579 1194 562 1177 530 1153 L 499 1128 C 483 1115 470 1106 458 1100 C 446 1094 432 1091 415 1091 C 381 1091 357 1099 341 1115 C 319 1136 306 1148 301 1150 C 296 1152 289 1154 280 1154 C 273 1154 267 1152 263 1150 C 258 1148 248 1140 233 1126 C 212 1107 199 1096 194 1093 C 188 1089 183 1088 177 1088 C 162 1088 153 1094 151 1107 C 149 1112 136 1139 112 1187 L 110 1195 C 110 1201 114 1208 122 1217 C 130 1225 153 1243 191 1270 C 229 1296 258 1310 278 1310 C 290 1310 301 1309 313 1308 C 324 1307 337 1300 351 1287 C 367 1271 379 1260 386 1252 C 393 1244 402 1240 413 1240 C 421 1240 431 1244 441 1254 C 451 1263 467 1278 489 1300 C 497 1308 505 1313 513 1313 C 525 1313 533 1305 538 1289 C 541 1276 554 1250 577 1210 L 579 1204 Z" unicode="ñ" />
<glyph horiz-adv-x="698" d="M 647 295 C 647 201 620 128 567 77 C 514 25 441 0 348 0 C 258 0 186 27 132 82 C 78 136 51 207 51 295 L 51 692 C 51 778 78 849 134 903 C 189 957 260 985 348 985 C 436 985 508 958 564 905 C 619 851 647 780 647 692 L 647 295 Z M 430 354 L 430 637 C 430 727 402 772 348 772 C 322 772 302 760 288 738 C 273 716 266 682 266 637 L 266 354 C 266 262 293 217 348 217 C 375 217 395 227 409 248 C 423 268 430 304 430 354 Z M 483 1071 C 476 1071 467 1074 455 1080 C 375 1118 307 1149 251 1173 L 182 1203 C 162 1216 152 1230 152 1245 C 152 1250 154 1255 158 1260 C 168 1274 179 1301 192 1340 C 196 1350 202 1356 212 1356 C 222 1356 238 1350 262 1340 C 348 1300 415 1270 463 1252 C 511 1230 536 1209 536 1191 L 534 1182 C 514 1131 504 1102 504 1094 C 500 1078 493 1071 483 1071 Z" unicode="ò" />
<glyph horiz-adv-x="698" d="M 647 295 C 647 201 620 128 567 77 C 514 25 441 0 348 0 C 258 0 186 27 132 82 C 78 136 51 207 51 295 L 51 692 C 51 778 78 849 134 903 C 189 957 260 985 348 985 C 436 985 508 958 564 905 C 619 851 647 780 647 692 L 647 295 Z M 430 354 L 430 637 C 430 727 402 772 348 772 C 322 772 302 760 288 738 C 273 716 266 682 266 637 L 266 354 C 266 262 293 217 348 217 C 375 217 395 227 409 248 C 423 268 430 304 430 354 Z M 544 1245 C 544 1237 540 1229 533 1221 C 525 1212 518 1206 512 1203 L 444 1173 C 377 1145 309 1114 239 1080 C 226 1074 216 1071 210 1071 C 200 1071 194 1078 192 1094 C 184 1123 173 1152 159 1182 L 157 1191 C 157 1209 181 1230 231 1252 C 279 1270 346 1299 432 1340 C 456 1350 472 1356 482 1356 C 484 1356 487 1355 490 1354 C 492 1352 494 1350 496 1348 C 498 1346 499 1343 501 1340 C 502 1336 507 1323 517 1301 C 527 1279 533 1265 537 1260 C 541 1255 543 1250 544 1245 Z" unicode="ó" />
<glyph horiz-adv-x="698" d="M 647 295 C 647 201 620 128 567 77 C 514 25 441 0 348 0 C 258 0 186 27 132 82 C 78 136 51 207 51 295 L 51 692 C 51 778 78 849 134 903 C 189 957 260 985 348 985 C 436 985 508 958 564 905 C 619 851 647 780 647 692 L 647 295 Z M 430 354 L 430 637 C 430 727 402 772 348 772 C 322 772 302 760 288 738 C 273 716 266 682 266 637 L 266 354 C 266 262 293 217 348 217 C 375 217 395 227 409 248 C 423 268 430 304 430 354 Z M 592 1171 C 592 1162 582 1140 562 1105 L 553 1085 C 548 1069 540 1061 529 1061 C 521 1061 512 1065 504 1075 C 413 1162 363 1206 354 1206 C 346 1206 330 1194 305 1171 C 279 1147 246 1116 205 1077 C 195 1067 186 1063 178 1063 C 165 1063 158 1071 156 1087 L 146 1108 C 125 1144 115 1167 115 1177 L 115 1180 L 115 1182 C 115 1189 124 1200 144 1215 L 256 1303 C 306 1343 338 1364 354 1364 C 370 1364 403 1341 455 1296 L 500 1257 C 525 1235 546 1218 564 1206 C 581 1193 590 1181 592 1171 Z" unicode="ô" />
<glyph horiz-adv-x="698" d="M 647 295 C 647 201 620 128 567 77 C 514 25 441 0 348 0 C 258 0 186 27 132 82 C 78 136 51 207 51 295 L 51 692 C 51 778 78 849 134 903 C 189 957 260 985 348 985 C 436 985 508 958 564 905 C 619 851 647 780 647 692 L 647 295 Z M 430 354 L 430 637 C 430 727 402 772 348 772 C 322 772 302 760 288 738 C 273 716 266 682 266 637 L 266 354 C 266 262 293 217 348 217 C 375 217 395 227 409 248 C 423 268 430 304 430 354 Z M 582 1204 C 582 1194 565 1177 533 1153 L 502 1128 C 486 1115 473 1106 461 1100 C 449 1094 435 1091 418 1091 C 384 1091 360 1099 344 1115 C 322 1136 309 1148 304 1150 C 299 1152 292 1154 283 1154 C 276 1154 270 1152 266 1150 C 261 1148 251 1140 236 1126 C 215 1107 202 1096 197 1093 C 191 1089 186 1088 180 1088 C 165 1088 156 1094 154 1107 C 152 1112 139 1139 115 1187 L 113 1195 C 113 1201 117 1208 125 1217 C 133 1225 156 1243 194 1270 C 232 1296 261 1310 281 1310 C 293 1310 304 1309 316 1308 C 327 1307 340 1300 354 1287 C 370 1271 382 1260 389 1252 C 396 1244 405 1240 416 1240 C 424 1240 434 1244 444 1254 C 454 1263 470 1278 492 1300 C 500 1308 508 1313 516 1313 C 528 1313 536 1305 541 1289 C 544 1276 557 1250 580 1210 L 582 1204 Z" unicode="õ" />
<glyph horiz-adv-x="698" d="M 647 295 C 647 201 620 128 567 77 C 514 25 441 0 348 0 C 258 0 186 27 132 82 C 78 136 51 207 51 295 L 51 692 C 51 778 78 849 134 903 C 189 957 260 985 348 985 C 436 985 508 958 564 905 C 619 851 647 780 647 692 L 647 295 Z M 430 354 L 430 637 C 430 727 402 772 348 772 C 322 772 302 760 288 738 C 273 716 266 682 266 637 L 266 354 C 266 262 293 217 348 217 C 375 217 395 227 409 248 C 423 268 430 304 430 354 Z M 622 1201 C 622 1127 585 1090 511 1090 C 481 1090 458 1099 442 1119 C 426 1138 418 1167 418 1207 C 418 1238 426 1264 443 1285 C 459 1305 481 1316 509 1316 C 532 1316 552 1312 570 1304 C 588 1296 601 1285 609 1270 C 617 1254 622 1231 622 1201 Z M 184 1090 C 154 1090 131 1099 115 1119 C 98 1138 90 1167 90 1207 C 90 1237 98 1262 115 1284 C 132 1305 154 1316 181 1316 C 215 1316 242 1308 262 1292 C 282 1276 293 1250 293 1212 C 293 1167 283 1135 265 1117 C 246 1099 219 1090 184 1090 Z" unicode="ö" />
<glyph horiz-adv-x="1536" d="M 209 684 L 209 895 L 1327 895 L 1327 684 L 209 684 Z M 768 227 C 726 227 688 243 656 275 C 624 307 608 345 608 387 C 608 431 622 469 650 501 C 678 533 717 549 768 549 C 816 549 854 533 884 501 C 913 469 928 431 928 387 C 928 345 911 307 879 275 C 847 243 810 227 768 227 Z M 768 1028 C 726 1028 688 1044 656 1076 C 624 1108 608 1145 608 1188 C 608 1230 622 1267 650 1299 C 678 1331 717 1348 768 1348 C 816 1348 854 1331 884 1299 C 913 1267 928 1230 928 1188 C 928 1145 911 1108 879 1076 C 847 1044 810 1028 768 1028 Z" unicode="÷" />
<glyph horiz-adv-x="698" d="M 589 888 L 590 883 L 608 851 C 634 804 647 754 647 702 L 645 538 L 647 295 C 647 201 620 128 567 77 C 514 25 441 0 348 0 L 306 4 L 276 7 L 262 6 C 258 4 249 -13 236 -49 C 222 -84 211 -115 201 -143 C 193 -165 152 -176 80 -176 C 25 -176 -2 -168 -2 -153 L 0 -145 C 61 25 92 113 92 120 L 92 123 C 85 133 76 156 66 193 C 56 230 51 264 51 295 L 51 692 C 51 778 78 849 134 903 C 189 957 260 985 348 985 C 363 985 376 983 387 981 L 398 979 L 412 983 C 417 987 424 1002 434 1029 L 459 1098 C 466 1116 500 1126 561 1126 C 592 1126 616 1123 634 1117 C 651 1111 660 1103 660 1093 L 659 1085 L 636 1026 C 604 947 589 901 589 888 Z M 430 354 L 430 637 C 430 727 402 772 348 772 C 322 772 302 760 288 738 C 273 716 266 682 266 637 L 266 354 C 266 262 293 217 348 217 C 375 217 395 227 409 248 C 423 268 430 304 430 354 Z" unicode="ø" />
<glyph horiz-adv-x="709" d="M 647 16 C 647 9 644 5 638 3 C 632 1 620 0 602 0 L 557 0 C 499 0 467 2 459 8 C 449 18 444 34 444 57 C 444 82 442 95 440 95 C 438 95 436 91 432 84 C 418 58 398 38 373 22 C 348 6 322 -2 295 -2 C 216 -2 156 23 114 74 C 72 125 51 199 51 297 L 51 963 C 51 972 58 978 72 980 C 86 982 112 983 152 983 C 194 983 223 982 240 980 C 257 978 266 972 266 963 L 266 352 C 266 294 271 256 282 238 C 293 220 310 211 332 211 C 398 211 432 256 432 346 L 432 956 C 432 967 436 974 445 977 C 454 979 486 981 541 981 C 589 981 619 980 630 978 C 641 976 647 971 647 963 L 647 16 Z M 477 1088 C 470 1088 461 1091 449 1097 C 369 1135 301 1166 245 1190 L 176 1220 C 156 1233 146 1247 146 1262 C 146 1267 148 1272 152 1277 C 162 1291 173 1318 186 1357 C 190 1367 196 1373 206 1373 C 216 1373 232 1367 256 1357 C 342 1317 409 1287 457 1269 C 505 1247 530 1226 530 1208 L 528 1199 C 508 1148 498 1119 498 1111 C 494 1095 487 1088 477 1088 Z" unicode="ù" />
<glyph horiz-adv-x="709" d="M 647 16 C 647 9 644 5 638 3 C 632 1 620 0 602 0 L 557 0 C 499 0 467 2 459 8 C 449 18 444 34 444 57 C 444 82 442 95 440 95 C 438 95 436 91 432 84 C 418 58 398 38 373 22 C 348 6 322 -2 295 -2 C 216 -2 156 23 114 74 C 72 125 51 199 51 297 L 51 963 C 51 972 58 978 72 980 C 86 982 112 983 152 983 C 194 983 223 982 240 980 C 257 978 266 972 266 963 L 266 352 C 266 294 271 256 282 238 C 293 220 310 211 332 211 C 398 211 432 256 432 346 L 432 956 C 432 967 436 974 445 977 C 454 979 486 981 541 981 C 589 981 619 980 630 978 C 641 976 647 971 647 963 L 647 16 Z M 571 1262 C 571 1254 567 1246 560 1238 C 552 1229 545 1223 539 1220 L 471 1190 C 404 1162 336 1131 266 1097 C 253 1091 243 1088 237 1088 C 227 1088 221 1095 219 1111 C 211 1140 200 1169 186 1199 L 184 1208 C 184 1226 208 1247 258 1269 C 306 1287 373 1316 459 1357 C 483 1367 499 1373 509 1373 C 511 1373 514 1372 517 1371 C 519 1369 521 1367 523 1365 C 525 1363 526 1360 528 1357 C 529 1353 534 1340 544 1318 C 554 1296 560 1282 564 1277 C 568 1272 570 1267 571 1262 Z" unicode="ú" />
<glyph horiz-adv-x="709" d="M 647 16 C 647 9 644 5 638 3 C 632 1 620 0 602 0 L 557 0 C 499 0 467 2 459 8 C 449 18 444 34 444 57 C 444 82 442 95 440 95 C 438 95 436 91 432 84 C 418 58 398 38 373 22 C 348 6 322 -2 295 -2 C 216 -2 156 23 114 74 C 72 125 51 199 51 297 L 51 963 C 51 972 58 978 72 980 C 86 982 112 983 152 983 C 194 983 223 982 240 980 C 257 978 266 972 266 963 L 266 352 C 266 294 271 256 282 238 C 293 220 310 211 332 211 C 398 211 432 256 432 346 L 432 956 C 432 967 436 974 445 977 C 454 979 486 981 541 981 C 589 981 619 980 630 978 C 641 976 647 971 647 963 L 647 16 Z M 594 1175 C 594 1166 584 1144 564 1109 L 555 1089 C 550 1073 542 1065 531 1065 C 523 1065 514 1069 506 1079 C 415 1166 365 1210 356 1210 C 348 1210 332 1198 307 1175 C 281 1151 248 1120 207 1081 C 197 1071 188 1067 180 1067 C 167 1067 160 1075 158 1091 L 148 1112 C 127 1148 117 1171 117 1181 L 117 1184 L 117 1186 C 117 1193 126 1204 146 1219 L 258 1307 C 308 1347 340 1368 356 1368 C 372 1368 405 1345 457 1300 L 502 1261 C 527 1239 548 1222 566 1210 C 583 1197 592 1185 594 1175 Z" unicode="û" />
<glyph horiz-adv-x="709" d="M 647 16 C 647 9 644 5 638 3 C 632 1 620 0 602 0 L 557 0 C 499 0 467 2 459 8 C 449 18 444 34 444 57 C 444 82 442 95 440 95 C 438 95 436 91 432 84 C 418 58 398 38 373 22 C 348 6 322 -2 295 -2 C 216 -2 156 23 114 74 C 72 125 51 199 51 297 L 51 963 C 51 972 58 978 72 980 C 86 982 112 983 152 983 C 194 983 223 982 240 980 C 257 978 266 972 266 963 L 266 352 C 266 294 271 256 282 238 C 293 220 310 211 332 211 C 398 211 432 256 432 346 L 432 956 C 432 967 436 974 445 977 C 454 979 486 981 541 981 C 589 981 619 980 630 978 C 641 976 647 971 647 963 L 647 16 Z M 626 1201 C 626 1127 589 1090 515 1090 C 485 1090 462 1099 446 1119 C 430 1138 422 1167 422 1207 C 422 1238 430 1264 447 1285 C 463 1305 485 1316 513 1316 C 536 1316 556 1312 574 1304 C 592 1296 605 1285 613 1270 C 621 1254 626 1231 626 1201 Z M 188 1090 C 158 1090 135 1099 119 1119 C 102 1138 94 1167 94 1207 C 94 1237 102 1262 119 1284 C 136 1305 158 1316 185 1316 C 219 1316 246 1308 266 1292 C 286 1276 297 1250 297 1212 C 297 1167 287 1135 269 1117 C 250 1099 223 1090 188 1090 Z" unicode="ü" />
<glyph horiz-adv-x="674" d="M 225 -410 C 163 -410 133 -400 133 -382 L 213 6 C 217 22 219 44 219 74 C 219 96 217 117 213 137 L 20 963 C 20 976 55 983 127 983 C 163 983 189 981 207 977 C 224 973 234 966 236 954 C 238 942 267 767 324 430 C 324 416 328 410 336 410 C 342 410 345 412 346 418 C 347 423 348 428 350 432 C 396 689 427 864 442 958 C 444 969 455 976 477 979 C 498 981 524 983 555 983 C 620 983 653 974 653 957 L 653 954 L 324 -383 C 320 -395 310 -403 292 -406 C 274 -408 252 -410 225 -410 Z M 542 1264 C 542 1256 538 1248 531 1240 C 523 1231 516 1225 510 1222 L 442 1192 C 375 1164 307 1133 237 1099 C 224 1093 214 1090 208 1090 C 198 1090 192 1097 190 1113 C 182 1142 171 1171 157 1201 L 155 1210 C 155 1228 179 1249 229 1271 C 277 1289 344 1318 430 1359 C 454 1369 470 1375 480 1375 C 482 1375 485 1374 488 1373 C 490 1371 492 1369 494 1367 C 496 1365 497 1362 499 1359 C 500 1355 505 1342 515 1320 C 525 1298 531 1284 535 1279 C 539 1274 541 1269 542 1264 Z" unicode="ý" />
<glyph horiz-adv-x="709" d="M 657 291 C 657 197 634 125 588 75 C 542 25 479 0 399 0 C 385 0 366 4 342 13 C 318 22 300 32 289 43 L 278 48 C 270 48 266 36 266 14 L 266 -393 C 266 -401 263 -406 257 -408 C 251 -409 240 -410 224 -410 L 164 -410 C 121 -410 93 -409 80 -407 C 67 -405 61 -400 61 -391 L 61 1417 C 61 1426 68 1431 84 1433 C 100 1435 124 1436 158 1436 C 192 1436 218 1435 237 1433 C 256 1431 266 1426 266 1417 L 266 969 C 266 945 269 934 277 934 C 280 934 284 936 289 940 C 301 952 318 962 342 971 C 365 980 385 985 401 985 C 480 985 542 958 588 905 C 634 851 657 780 657 690 L 657 291 Z M 440 354 L 440 637 C 440 727 412 772 358 772 C 332 772 312 760 298 738 C 283 716 276 682 276 637 L 276 354 C 276 262 303 217 358 217 C 386 217 406 227 420 248 C 433 268 440 304 440 354 Z" unicode="þ" />
<glyph horiz-adv-x="674" d="M 225 -410 C 163 -410 133 -400 133 -382 L 213 6 C 217 22 219 44 219 74 C 219 96 217 117 213 137 L 20 963 C 20 976 55 983 127 983 C 163 983 189 981 207 977 C 224 973 234 966 236 954 C 238 942 267 767 324 430 C 324 416 328 410 336 410 C 342 410 345 412 346 418 C 347 423 348 428 350 432 C 396 689 427 864 442 958 C 444 969 455 976 477 979 C 498 981 524 983 555 983 C 620 983 653 974 653 957 L 653 954 L 324 -383 C 320 -395 310 -403 292 -406 C 274 -408 252 -410 225 -410 Z M 615 1201 C 615 1127 578 1090 504 1090 C 474 1090 451 1099 435 1119 C 419 1138 411 1167 411 1207 C 411 1238 419 1264 436 1285 C 452 1305 474 1316 502 1316 C 525 1316 545 1312 563 1304 C 581 1296 594 1285 602 1270 C 610 1254 615 1231 615 1201 Z M 177 1090 C 147 1090 124 1099 108 1119 C 91 1138 83 1167 83 1207 C 83 1237 91 1262 108 1284 C 125 1305 147 1316 174 1316 C 208 1316 235 1308 255 1292 C 275 1276 286 1250 286 1212 C 286 1167 276 1135 258 1117 C 239 1099 212 1090 177 1090 Z" unicode="ÿ" />
<glyph horiz-adv-x="909" d="M 887 856 C 887 797 882 768 873 768 L 860 768 C 807 768 775 766 763 762 C 751 758 745 749 745 733 L 745 37 C 745 20 741 10 733 6 C 725 2 694 0 641 0 C 586 0 554 1 545 5 C 536 9 532 18 532 33 L 532 733 C 532 749 529 760 523 764 C 517 768 501 770 475 770 L 430 770 C 376 770 343 768 332 764 C 320 760 315 749 315 733 L 315 37 C 315 20 311 10 303 6 C 295 2 264 0 211 0 C 156 0 124 1 115 5 C 106 9 102 18 102 33 L 102 733 C 102 749 99 760 93 764 C 87 768 71 770 45 770 C 34 770 28 772 26 776 C 24 780 22 787 21 798 C 20 808 20 828 20 858 C 20 905 21 934 23 946 C 25 957 31 963 41 963 C 58 963 71 963 81 965 C 90 966 96 971 100 981 L 102 1017 L 102 1094 C 102 1176 117 1243 149 1293 C 181 1343 222 1379 272 1401 C 322 1423 376 1434 434 1434 C 441 1434 446 1430 448 1423 C 450 1415 452 1401 452 1379 L 451 1327 C 451 1285 449 1257 447 1243 C 445 1229 439 1223 430 1223 C 409 1223 388 1216 367 1203 C 346 1189 332 1172 325 1152 C 318 1132 315 1099 315 1053 C 315 1017 316 993 319 981 C 322 969 346 963 392 963 L 471 963 C 488 963 501 963 511 965 C 520 966 526 971 530 981 L 532 1017 L 532 1094 C 532 1176 547 1243 579 1293 C 611 1343 652 1379 702 1401 C 752 1423 806 1434 864 1434 C 871 1434 876 1430 878 1423 C 880 1415 882 1401 882 1379 L 881 1327 C 881 1288 880 1261 878 1246 C 876 1230 870 1223 860 1223 C 839 1223 818 1216 796 1202 C 774 1188 760 1169 754 1146 C 748 1122 745 1091 745 1053 C 745 1017 746 993 750 981 C 751 969 775 963 822 963 L 862 963 C 872 963 879 958 882 948 C 885 938 887 908 887 856 Z" unicode="ﬀ" />
<glyph horiz-adv-x="823" d="M 761 1209 C 761 1187 754 1170 742 1157 C 730 1143 712 1133 688 1127 C 664 1120 644 1117 628 1117 C 596 1117 568 1130 546 1158 C 524 1186 513 1217 513 1251 C 513 1294 522 1328 540 1352 C 558 1376 589 1389 632 1389 C 655 1389 676 1383 696 1371 C 715 1359 730 1342 742 1320 C 753 1298 759 1261 761 1209 Z M 457 856 C 457 797 452 768 443 768 L 430 768 C 377 768 345 766 333 762 C 321 758 315 749 315 733 L 315 37 C 315 20 311 10 303 6 C 295 2 264 0 211 0 C 156 0 124 1 115 5 C 106 9 102 18 102 33 L 102 733 C 102 749 99 760 93 764 C 87 768 71 770 45 770 C 34 770 28 772 26 776 C 24 780 22 787 21 798 C 20 808 20 828 20 858 C 20 905 21 934 23 946 C 25 957 31 963 41 963 C 58 963 71 963 81 965 C 90 966 96 971 100 981 L 102 1017 L 102 1094 C 102 1176 117 1243 149 1293 C 181 1343 222 1379 272 1401 C 322 1423 376 1434 434 1434 C 441 1434 446 1430 448 1423 C 450 1415 452 1401 452 1379 L 451 1327 C 451 1285 449 1257 447 1243 C 445 1229 439 1223 430 1223 C 409 1223 388 1216 367 1203 C 346 1189 332 1172 325 1152 C 318 1132 315 1099 315 1053 C 315 1017 316 993 319 981 C 322 969 346 963 392 963 L 432 963 C 442 963 449 958 452 948 C 455 938 457 908 457 856 Z M 752 37 C 752 21 749 12 743 8 C 737 4 727 1 712 1 C 697 0 672 0 637 0 C 593 0 566 0 556 2 C 546 3 540 5 537 9 C 533 12 532 20 532 33 L 532 950 C 532 966 537 975 548 979 C 559 983 589 985 637 985 C 685 985 714 984 724 982 C 734 980 741 978 745 974 C 749 970 752 962 752 948 L 752 37 Z" unicode="ﬁ" />
<glyph horiz-adv-x="823" d="M 457 856 C 457 797 452 768 443 768 L 430 768 C 377 768 345 766 333 762 C 321 758 315 749 315 733 L 315 37 C 315 20 311 10 303 6 C 295 2 264 0 211 0 C 156 0 124 1 115 5 C 106 9 102 18 102 33 L 102 733 C 102 749 99 760 93 764 C 87 768 71 770 45 770 C 34 770 28 772 26 776 C 24 780 22 787 21 798 C 20 808 20 828 20 858 C 20 905 21 934 23 946 C 25 957 31 963 41 963 C 58 963 71 963 81 965 C 90 966 96 971 100 981 L 102 1017 L 102 1094 C 102 1176 117 1243 149 1293 C 181 1343 222 1379 272 1401 C 322 1423 376 1434 434 1434 C 441 1434 446 1430 448 1423 C 450 1415 452 1401 452 1379 L 451 1327 C 451 1285 449 1257 447 1243 C 445 1229 439 1223 430 1223 C 409 1223 388 1216 367 1203 C 346 1189 332 1172 325 1152 C 318 1132 315 1099 315 1053 C 315 1017 316 993 319 981 C 322 969 346 963 392 963 L 432 963 C 442 963 449 958 452 948 C 455 938 457 908 457 856 Z M 743 33 C 743 19 739 10 733 7 C 727 4 714 2 695 1 C 676 0 654 0 629 0 C 577 0 547 1 539 4 C 530 6 526 15 526 29 L 526 1399 C 526 1410 527 1417 531 1421 C 535 1425 542 1427 553 1429 C 564 1431 589 1432 629 1432 C 680 1432 712 1430 724 1426 C 736 1422 743 1413 743 1397 L 743 33 Z" unicode="ﬂ" />
<glyph horiz-adv-x="575" d="M 524 537 C 524 461 514 405 494 369 C 474 333 442 306 400 288 C 357 270 315 261 273 261 C 235 261 198 272 164 296 C 130 320 102 352 82 392 C 61 432 51 475 51 520 C 51 552 56 592 68 639 C 79 686 101 722 135 747 C 169 772 214 785 270 785 C 345 785 406 761 453 713 C 500 665 524 607 524 537 Z" unicode="•" />
<glyph horiz-adv-x="698" d="M 602 1131 C 602 1112 600 1095 597 1080 C 594 1064 590 1057 586 1057 L 507 1053 C 473 1051 430 1049 378 1049 C 325 1049 235 1047 109 1044 C 101 1044 97 1063 97 1103 C 97 1127 99 1149 103 1169 C 107 1189 111 1200 117 1200 L 348 1206 L 588 1204 C 597 1204 602 1179 602 1131 Z" unicode="̄" />
<glyph horiz-adv-x="698" d="M 348 1049 C 267 1049 187 1110 109 1233 L 106 1242 C 106 1250 111 1263 121 1281 C 131 1299 142 1315 154 1329 L 158 1331 C 162 1331 184 1312 223 1275 C 269 1229 311 1206 348 1206 C 384 1206 425 1230 471 1278 L 501 1310 C 517 1327 527 1336 532 1336 C 535 1336 545 1323 562 1299 C 579 1275 588 1258 588 1248 L 586 1241 C 557 1184 521 1138 478 1102 C 435 1066 392 1049 348 1049 Z" unicode="˘" />
<glyph horiz-adv-x="698" d="M 470 1209 C 470 1187 463 1170 451 1157 C 439 1143 421 1133 397 1127 C 373 1120 353 1117 337 1117 C 305 1117 277 1130 255 1158 C 233 1186 222 1217 222 1251 C 222 1294 231 1328 249 1352 C 267 1376 298 1389 341 1389 C 364 1389 385 1383 405 1371 C 424 1359 439 1342 451 1320 C 462 1298 468 1261 470 1209 Z" unicode="˙" />
<glyph horiz-adv-x="698" d="M 481 1223 C 481 1170 467 1133 440 1113 C 412 1092 378 1082 336 1082 C 301 1082 270 1095 244 1122 C 217 1148 204 1179 204 1214 C 204 1238 208 1262 217 1288 C 225 1314 239 1332 258 1343 C 276 1354 308 1360 353 1360 C 387 1360 417 1346 443 1320 C 468 1294 481 1261 481 1223 Z M 410 1229 C 410 1245 404 1259 394 1271 C 384 1283 370 1290 353 1290 C 331 1290 314 1287 304 1281 C 294 1275 287 1264 283 1247 C 279 1230 278 1218 278 1212 C 278 1196 284 1183 296 1171 C 308 1159 323 1154 341 1154 C 358 1154 374 1159 388 1169 C 402 1179 410 1196 410 1221 L 410 1229 Z" unicode="˚" />
<glyph horiz-adv-x="1176" d="M 356 1069 C 356 1026 342 990 315 962 C 287 934 251 920 207 920 C 164 920 128 934 100 963 C 71 991 57 1027 57 1069 L 57 1286 C 57 1328 71 1364 100 1392 C 129 1420 165 1434 207 1434 C 251 1434 286 1420 314 1392 C 342 1364 356 1328 356 1286 L 356 1069 Z M 127 0 C 81 0 59 7 59 22 L 61 33 C 291 652 459 1107 563 1399 C 571 1421 595 1432 635 1432 C 660 1432 679 1428 693 1422 C 706 1416 713 1409 713 1401 L 711 1393 C 518 857 351 403 211 33 C 205 18 195 9 179 5 C 163 1 145 0 127 0 Z M 1114 147 C 1114 105 1100 70 1073 42 C 1045 14 1009 0 965 0 C 922 0 887 14 859 43 C 831 72 817 107 817 147 L 817 367 C 817 407 830 441 858 469 C 886 497 921 512 965 512 C 1008 512 1044 498 1072 471 C 1100 444 1114 409 1114 367 L 1114 147 Z M 737 147 C 737 105 723 70 696 42 C 668 14 632 0 588 0 C 545 0 510 14 482 43 C 454 72 440 107 440 147 L 440 367 C 440 407 453 441 481 469 C 509 497 544 512 588 512 C 631 512 667 498 695 471 C 723 444 737 409 737 367 L 737 147 Z M 240 1092 L 240 1266 C 240 1302 229 1321 207 1321 C 183 1321 172 1302 172 1266 L 172 1092 C 172 1054 183 1036 207 1036 C 229 1036 240 1054 240 1092 Z M 999 170 L 999 346 C 999 382 987 401 965 401 C 943 401 932 382 932 346 L 932 170 C 932 133 943 115 965 115 C 987 115 999 133 999 170 Z M 623 170 L 623 346 C 623 382 611 401 588 401 C 566 401 555 382 555 346 L 555 170 C 555 133 566 115 588 115 C 611 115 623 133 623 170 Z" unicode="‰" />
<glyph horiz-adv-x="676" d="M 614 946 C 614 938 601 934 575 934 C 565 934 556 934 548 935 C 540 935 537 938 537 944 L 537 1196 C 537 1206 536 1212 535 1213 C 529 1213 520 1189 508 1142 L 489 1075 C 487 1065 479 1061 467 1061 C 455 1061 448 1066 444 1077 L 432 1120 C 416 1175 406 1203 400 1203 C 398 1203 397 1198 397 1188 L 397 946 C 397 938 383 934 356 934 C 346 934 337 934 329 935 C 321 935 317 938 317 944 L 317 1413 C 317 1424 321 1431 329 1433 C 337 1435 346 1436 358 1436 C 370 1436 379 1434 384 1431 C 388 1428 393 1420 397 1407 L 417 1343 C 427 1307 437 1275 447 1245 C 457 1215 464 1200 467 1200 C 470 1200 481 1231 501 1294 C 521 1357 533 1397 537 1413 C 540 1423 545 1430 551 1432 C 557 1434 565 1436 575 1436 C 590 1436 600 1434 606 1430 C 611 1426 614 1418 614 1407 L 614 946 Z M 268 1397 C 268 1381 267 1371 267 1366 C 267 1360 265 1358 262 1358 L 210 1359 C 198 1359 193 1352 193 1339 L 193 946 C 193 938 179 934 152 934 C 141 934 132 934 125 935 C 118 935 115 938 115 944 L 115 1335 C 115 1343 113 1349 109 1353 C 105 1356 97 1358 84 1359 L 59 1358 C 49 1358 44 1360 43 1366 C 41 1371 41 1382 41 1399 C 41 1414 42 1424 45 1429 C 47 1433 53 1436 61 1436 L 260 1436 C 263 1436 265 1433 266 1429 C 267 1424 268 1413 268 1397 Z" unicode="™" />
<glyph horiz-adv-x="698" d="M 492 -197 C 492 -213 491 -225 491 -234 C 490 -243 487 -248 483 -248 C 431 -248 386 -229 350 -191 C 313 -153 295 -107 295 -55 L 295 84 C 295 93 307 98 332 98 L 369 98 C 395 98 408 92 408 82 L 408 -57 C 408 -77 416 -94 432 -109 C 448 -123 466 -131 485 -131 C 489 -131 492 -145 492 -175 L 492 -197 Z" unicode="˛" />
<glyph horiz-adv-x="1663" d="M 831 1376 C 705 1376 598 1328 510 1234 C 421 1139 377 1006 377 836 C 377 673 406 538 465 432 C 523 325 610 241 725 180 L 725 0 L 88 0 L 88 197 L 537 197 C 456 225 378 295 304 405 C 230 515 193 663 193 848 C 193 1024 248 1184 358 1330 C 468 1475 626 1548 831 1548 C 1037 1548 1196 1478 1307 1338 C 1417 1198 1473 1034 1473 848 C 1473 663 1435 515 1360 405 C 1284 295 1207 225 1128 197 L 1577 197 L 1577 0 L 940 0 L 940 180 C 1054 241 1141 325 1200 432 C 1258 538 1288 673 1288 836 C 1288 974 1246 1099 1162 1210 C 1078 1320 967 1376 831 1376 Z" unicode="Ω" />
<glyph horiz-adv-x="698" d="M 582 1215 C 582 1205 565 1188 533 1164 L 502 1139 C 486 1126 473 1117 461 1111 C 449 1105 435 1102 418 1102 C 384 1102 360 1110 344 1126 C 322 1147 309 1159 304 1161 C 299 1163 292 1165 283 1165 C 276 1165 270 1163 266 1161 C 261 1159 251 1151 236 1137 C 215 1118 202 1107 197 1104 C 191 1100 186 1099 180 1099 C 165 1099 156 1105 154 1118 C 152 1123 139 1150 115 1198 L 113 1206 C 113 1212 117 1219 125 1228 C 133 1236 156 1254 194 1281 C 232 1307 261 1321 281 1321 C 293 1321 304 1320 316 1319 C 327 1318 340 1311 354 1298 C 370 1282 382 1271 389 1263 C 396 1255 405 1251 416 1251 C 424 1251 434 1255 444 1265 C 454 1274 470 1289 492 1311 C 500 1319 508 1324 516 1324 C 528 1324 536 1316 541 1300 C 544 1287 557 1261 580 1221 L 582 1215 Z" unicode="˜" />
<glyph horiz-adv-x="698" d="M 700 1311 C 700 1297 693 1283 680 1270 L 572 1182 L 449 1079 C 436 1069 426 1064 419 1064 C 410 1064 403 1069 399 1081 C 392 1097 379 1117 359 1142 L 346 1159 C 342 1163 341 1167 341 1173 C 341 1191 359 1214 397 1243 L 567 1380 C 592 1400 609 1410 618 1410 C 624 1410 629 1406 635 1399 L 678 1344 L 690 1331 C 696 1325 700 1319 700 1311 Z M 352 1311 C 352 1297 345 1283 332 1270 L 224 1182 L 100 1079 C 87 1069 77 1064 71 1064 C 62 1064 55 1069 51 1081 C 44 1097 31 1117 11 1142 L -2 1159 C -5 1163 -7 1167 -7 1173 C -7 1191 11 1214 49 1243 L 219 1380 C 244 1400 261 1410 270 1410 C 276 1410 281 1406 287 1399 L 330 1344 L 342 1331 C 348 1325 352 1319 352 1311 Z" unicode="˝" />
<glyph horiz-adv-x="362" d="M 291 37 C 291 21 288 12 282 8 C 276 4 266 1 251 1 C 236 0 211 0 176 0 C 132 0 106 0 96 2 C 86 3 80 5 77 9 C 73 12 72 20 72 33 L 72 950 C 72 966 77 975 87 979 C 97 983 126 985 176 985 C 224 985 253 984 263 982 C 273 980 280 978 284 974 C 288 970 291 962 291 948 L 291 37 Z" unicode="ı" />
<glyph horiz-adv-x="672" d="M 641 104 C 641 53 639 23 636 14 C 633 4 626 0 614 0 L 221 0 C 193 0 175 1 167 4 C 158 6 152 12 148 20 C 144 28 143 49 143 84 L 143 569 L 141 572 L 126 562 C 96 533 76 519 67 519 C 54 519 34 539 7 579 C -19 619 -34 644 -37 655 L -39 663 C -39 670 -35 677 -27 684 C 26 726 65 758 90 779 C 115 800 130 814 135 821 C 140 827 143 834 143 842 L 143 1401 C 143 1416 149 1425 161 1429 C 173 1432 202 1434 246 1434 C 298 1434 330 1432 343 1428 C 355 1424 362 1415 362 1399 L 362 997 C 362 994 363 993 365 993 L 368 993 C 376 995 424 1034 514 1108 C 524 1115 532 1119 538 1119 C 552 1119 573 1103 599 1071 C 625 1039 639 1012 639 991 C 639 976 630 961 612 946 L 400 772 C 374 751 362 737 362 731 L 362 281 C 362 247 363 227 366 220 C 369 212 375 207 384 205 C 393 202 408 201 430 201 L 612 201 C 624 201 631 197 635 189 C 639 181 641 153 641 104 Z" unicode="Ł" />
<glyph horiz-adv-x="526" d="M 371 745 L 371 33 C 371 19 367 10 361 7 C 355 4 342 2 323 1 C 304 0 282 0 256 0 C 205 0 175 1 167 4 C 158 6 154 15 154 29 L 154 553 C 154 557 152 559 150 559 C 143 559 124 543 92 512 C 86 506 81 504 76 504 C 70 504 64 508 56 518 C 48 527 34 548 14 580 L -11 619 C -21 635 -27 647 -27 656 C -27 662 -23 668 -16 674 C 57 735 104 775 124 794 C 144 812 154 824 154 829 L 154 1399 C 154 1410 155 1417 159 1421 C 163 1425 170 1427 181 1429 C 192 1431 217 1432 256 1432 C 307 1432 339 1430 352 1426 C 364 1422 371 1413 371 1397 L 371 1020 C 371 1016 372 1014 374 1014 C 380 1014 408 1034 459 1075 C 465 1080 470 1083 475 1083 C 479 1083 483 1080 489 1074 C 494 1068 510 1044 536 1002 C 562 959 574 936 571 934 C 571 927 567 921 559 915 C 494 859 446 818 416 792 C 386 766 371 750 371 745 Z" unicode="ł" />
<glyph horiz-adv-x="698" d="M 586 1171 C 586 1162 576 1140 556 1105 L 547 1085 C 542 1069 534 1061 523 1061 C 515 1061 506 1065 498 1075 C 407 1162 357 1206 348 1206 C 340 1206 324 1194 299 1171 C 273 1147 240 1116 199 1077 C 189 1067 180 1063 172 1063 C 159 1063 152 1071 150 1087 L 140 1108 C 119 1144 109 1167 109 1177 L 109 1180 L 109 1182 C 109 1189 118 1200 138 1215 L 250 1303 C 300 1343 332 1364 348 1364 C 364 1364 397 1341 449 1296 L 494 1257 C 519 1235 540 1218 558 1206 C 575 1193 584 1181 586 1171 Z" unicode="ˆ" />
<glyph horiz-adv-x="995" d="M 954 102 C 954 53 952 24 950 14 C 947 4 940 0 930 0 L 657 0 C 606 0 566 11 536 35 C 530 39 524 41 518 41 C 512 41 506 39 500 35 C 466 11 421 0 365 0 C 275 0 203 27 149 81 C 95 135 68 206 68 295 L 68 1141 C 68 1227 95 1298 151 1352 C 206 1406 277 1434 365 1434 C 420 1434 465 1422 499 1400 C 505 1395 511 1393 518 1393 C 524 1393 530 1395 536 1400 C 566 1422 607 1434 659 1434 L 928 1434 C 938 1434 944 1429 947 1421 C 950 1413 952 1385 952 1337 C 952 1286 950 1256 947 1247 C 944 1237 937 1233 926 1233 L 721 1233 C 695 1233 679 1229 674 1223 C 667 1213 664 1205 664 1199 L 664 913 L 664 884 C 664 874 667 867 674 861 C 681 855 689 852 698 852 L 819 852 C 830 852 837 847 841 837 C 844 827 846 798 846 750 C 846 702 844 674 841 665 C 838 655 831 651 819 651 L 727 651 C 697 651 679 648 672 643 C 665 637 662 630 662 621 L 662 260 C 662 229 665 212 672 209 C 680 203 701 201 733 201 L 928 201 C 939 201 946 196 949 187 C 952 178 954 150 954 102 Z M 442 340 L 442 1100 C 442 1139 435 1169 421 1191 C 407 1212 389 1223 365 1223 C 339 1223 320 1212 307 1190 C 293 1168 287 1138 287 1100 L 287 340 C 287 292 293 259 305 242 C 317 225 337 217 365 217 C 391 217 410 226 423 244 C 435 262 442 294 442 340 Z" unicode="Œ" />
<glyph horiz-adv-x="1075" d="M 1024 295 C 1024 199 997 126 944 76 C 890 25 818 0 727 0 C 662 0 607 19 563 59 C 554 66 547 70 541 70 C 535 70 529 66 521 59 C 475 19 418 0 348 0 C 258 0 186 27 132 82 C 78 136 51 207 51 295 L 51 692 C 51 778 78 849 134 903 C 189 957 260 985 348 985 C 417 985 474 964 520 923 C 528 915 534 911 539 911 C 543 911 550 915 560 923 C 608 964 664 985 727 985 C 814 985 885 958 941 905 C 996 851 1024 780 1024 692 L 1024 479 C 1024 467 1022 460 1020 457 C 1018 454 1014 452 1008 451 C 1002 449 993 449 983 449 L 672 449 C 663 449 656 447 651 443 C 645 439 643 430 643 416 C 643 334 645 284 650 267 C 655 249 664 237 676 229 C 688 221 705 217 727 217 C 781 217 809 248 809 311 C 809 316 815 319 829 321 C 843 323 870 324 911 324 C 966 324 999 322 1009 318 C 1019 314 1024 307 1024 295 Z M 805 625 L 805 680 C 805 710 797 732 783 748 C 768 764 749 772 725 772 C 700 772 680 763 666 747 C 652 731 645 708 645 680 L 645 629 C 645 618 651 610 663 605 C 675 600 695 598 723 598 C 749 598 770 600 784 604 C 798 608 805 615 805 625 Z M 430 354 L 430 637 C 430 727 402 772 348 772 C 322 772 302 760 288 738 C 273 716 266 682 266 637 L 266 354 C 266 262 293 217 348 217 C 375 217 395 227 409 248 C 423 268 430 304 430 354 Z" unicode="œ" />
<glyph horiz-adv-x="362" d="M 180 506 C 180 500 195 470 225 415 C 255 360 286 305 319 250 C 327 236 331 226 331 219 C 331 210 323 204 309 201 C 299 197 287 191 274 182 C 250 166 236 158 232 158 C 222 158 207 172 187 201 C 167 230 134 285 88 366 C 42 447 20 494 20 506 C 20 520 60 592 142 723 L 190 801 C 212 835 228 852 240 852 L 246 850 C 256 844 266 838 278 830 C 290 822 301 816 311 813 C 325 809 332 802 332 792 C 332 785 328 776 322 764 C 296 722 266 670 232 609 C 197 547 180 513 180 506 Z" unicode="‹" />
<glyph horiz-adv-x="362" d="M 340 504 C 340 495 323 461 289 403 C 255 344 216 280 172 211 C 148 176 131 159 120 159 L 115 160 C 104 165 93 172 83 181 C 72 189 61 195 51 199 C 36 202 29 209 29 219 C 29 225 33 235 41 248 C 133 408 180 493 180 504 C 180 512 149 571 88 681 C 74 705 62 727 50 749 C 38 771 32 785 32 791 C 32 801 39 808 53 811 C 63 814 75 820 88 830 C 109 845 122 853 128 853 C 134 853 141 848 151 838 C 161 828 184 793 220 732 C 256 671 285 619 307 577 C 329 534 340 510 340 504 Z" unicode="›" />
<glyph horiz-adv-x="696" d="M 645 354 C 645 272 634 211 612 170 C 582 116 557 79 535 58 C 513 37 487 22 458 13 C 428 4 392 0 348 0 C 256 0 184 26 131 78 C 77 130 51 200 51 287 L 51 401 C 51 409 56 414 67 417 C 78 420 106 422 152 422 C 192 422 222 421 242 420 C 262 418 272 414 272 406 L 272 319 C 272 281 277 251 287 230 C 297 209 317 199 348 199 C 389 199 414 224 422 274 L 426 369 C 426 401 412 440 384 485 C 356 530 306 597 233 687 C 103 843 39 981 39 1102 C 39 1150 49 1201 70 1257 C 91 1312 124 1355 170 1387 C 215 1418 268 1434 330 1434 C 413 1434 482 1406 538 1352 C 593 1298 621 1232 621 1155 L 621 1055 C 621 1047 613 1043 598 1043 C 582 1042 557 1042 522 1042 C 482 1042 453 1042 433 1044 C 413 1045 403 1049 403 1057 L 403 1151 C 403 1177 395 1198 381 1216 C 366 1234 349 1243 330 1243 C 308 1243 290 1233 276 1215 C 261 1196 254 1156 254 1096 C 254 1050 268 1003 297 955 C 325 906 376 841 450 760 C 516 685 565 615 597 550 C 629 484 645 419 645 354 Z M 585 1687 C 583 1677 574 1665 557 1653 L 448 1563 C 395 1517 361 1495 347 1495 C 331 1495 299 1515 249 1556 L 137 1644 C 117 1658 108 1669 108 1677 L 108 1679 L 108 1681 C 108 1690 113 1705 125 1725 L 149 1771 C 151 1787 158 1796 170 1796 C 178 1796 187 1791 198 1781 C 239 1741 272 1710 298 1687 C 323 1663 339 1652 347 1652 C 356 1652 406 1695 497 1783 C 505 1793 514 1798 523 1798 C 533 1798 541 1789 546 1773 L 555 1754 C 575 1719 585 1697 585 1687 Z" unicode="Š" />
<glyph horiz-adv-x="651" d="M 610 260 C 610 190 582 129 526 77 C 470 25 403 0 326 0 C 244 0 176 26 122 80 C 68 134 41 203 41 287 C 41 293 45 296 53 298 C 61 300 72 301 88 301 L 135 301 C 173 301 200 300 217 300 C 233 300 242 297 242 291 C 242 222 268 188 322 188 C 374 188 401 217 401 276 C 401 304 392 329 374 350 C 356 371 327 391 289 409 C 217 441 167 470 137 496 C 107 522 84 553 69 590 C 54 626 47 669 47 719 C 47 764 59 807 83 849 C 107 891 139 923 181 947 C 222 971 269 983 322 983 C 399 983 464 955 517 899 C 569 843 596 774 596 694 C 596 688 588 684 574 684 C 560 684 534 684 498 684 C 456 684 427 685 412 687 C 396 689 389 692 389 698 C 389 732 382 758 368 776 C 354 794 337 803 317 803 C 269 803 246 773 246 715 C 246 691 255 672 273 656 C 291 640 313 624 341 610 L 428 561 C 549 493 610 393 610 260 Z M 562 1278 C 560 1268 551 1256 534 1244 L 425 1154 C 372 1108 338 1086 324 1086 C 308 1086 276 1106 226 1147 L 114 1235 C 94 1249 85 1260 85 1268 L 85 1270 L 85 1272 C 85 1281 90 1296 102 1316 L 126 1362 C 128 1378 135 1387 147 1387 C 155 1387 164 1382 175 1372 C 216 1332 249 1301 275 1278 C 300 1254 316 1243 324 1243 C 333 1243 383 1286 474 1374 C 482 1384 491 1389 500 1389 C 510 1389 518 1380 523 1364 L 532 1345 C 552 1310 562 1288 562 1278 Z" unicode="š" />
<glyph horiz-adv-x="1151" d="M -8 -391 L 55 -260 C 71 -265 87 -270 103 -274 C 119 -278 139 -281 164 -281 C 196 -281 222 -269 242 -247 C 262 -224 277 -179 289 -113 L 516 1225 C 554 1437 676 1544 881 1544 C 981 1544 1071 1521 1151 1477 L 1087 1305 C 1058 1322 1025 1339 988 1355 C 950 1371 910 1380 868 1380 C 806 1380 760 1360 730 1322 C 699 1283 680 1238 672 1188 L 449 -223 C 435 -295 402 -348 350 -382 C 298 -415 240 -432 176 -432 C 136 -432 100 -428 66 -420 C 32 -412 8 -402 -8 -391 Z" unicode="∫" />
<glyph horiz-adv-x="698" d="M 586 1241 C 584 1231 575 1219 558 1207 L 449 1117 C 396 1071 362 1049 348 1049 C 332 1049 300 1069 250 1110 L 138 1198 C 118 1212 109 1223 109 1231 L 109 1233 L 109 1235 C 109 1244 114 1259 126 1279 L 150 1325 C 152 1341 159 1350 171 1350 C 179 1350 188 1345 199 1335 C 240 1295 273 1264 299 1241 C 324 1217 340 1206 348 1206 C 357 1206 407 1249 498 1337 C 506 1347 515 1352 524 1352 C 534 1352 542 1343 547 1327 L 556 1308 C 576 1273 586 1251 586 1241 Z" unicode="ˇ" />
<glyph horiz-adv-x="651" d="M 438 504 L 438 16 C 438 5 410 0 355 0 L 295 0 C 243 0 217 7 217 23 L 219 498 C 219 542 217 575 213 598 L 201 653 C 193 679 183 719 171 773 C 159 826 134 934 97 1098 C 60 1261 38 1364 31 1407 C 31 1423 61 1432 123 1432 C 168 1432 200 1429 218 1424 C 236 1419 246 1411 248 1399 L 317 895 C 317 891 318 887 320 883 C 322 879 326 877 330 877 C 336 877 340 883 340 897 L 374 1147 L 406 1399 C 406 1409 417 1417 438 1423 C 458 1429 486 1432 520 1432 C 561 1432 588 1430 601 1426 C 614 1422 621 1415 621 1407 L 584 1230 C 549 1068 512 903 473 733 C 471 724 469 715 467 707 C 465 698 463 689 462 680 C 460 671 456 643 448 597 C 440 550 436 519 438 504 Z M 599 1606 C 599 1532 562 1495 488 1495 C 458 1495 435 1504 419 1524 C 403 1543 395 1572 395 1612 C 395 1643 403 1669 420 1690 C 436 1710 458 1721 486 1721 C 509 1721 529 1717 547 1709 C 565 1701 578 1690 586 1675 C 594 1659 599 1636 599 1606 Z M 161 1495 C 131 1495 108 1504 92 1524 C 75 1543 67 1572 67 1612 C 67 1642 75 1667 92 1689 C 109 1710 131 1721 158 1721 C 192 1721 219 1713 239 1697 C 259 1681 270 1655 270 1617 C 270 1572 260 1540 242 1522 C 223 1504 196 1495 161 1495 Z" unicode="Ÿ" />
<glyph horiz-adv-x="989" d="M 938 90 C 938 62 933 42 924 29 C 915 15 902 5 884 0 C 866 -6 848 -10 831 -10 C 802 -10 779 0 762 22 C 745 43 737 70 737 102 C 740 174 771 211 829 211 C 863 211 889 202 909 184 C 928 166 938 134 938 90 Z M 584 91 C 584 53 573 26 553 12 C 533 -2 507 -10 476 -10 C 448 -10 425 0 408 22 C 391 43 383 70 383 102 C 386 174 417 211 475 211 C 512 211 539 201 557 182 C 575 163 584 133 584 91 Z M 250 90 C 250 52 240 25 220 11 C 200 -3 174 -11 141 -11 C 113 -11 91 0 75 22 C 59 44 51 68 51 96 C 51 131 58 159 74 180 C 90 200 113 211 143 211 C 176 211 202 202 221 184 C 240 166 250 135 250 90 Z" unicode="…" />
<glyph horiz-adv-x="614" d="M 569 1376 L 569 1332 C 569 1264 567 1224 563 1210 L 270 276 L 266 249 L 270 219 C 273 211 276 207 280 205 C 284 203 291 203 303 203 L 541 203 C 548 203 553 195 557 181 C 561 167 563 138 563 94 C 563 54 561 29 557 17 C 553 5 548 0 541 0 L 78 0 C 60 0 51 12 51 37 L 51 53 L 50 204 C 50 249 52 278 57 291 C 209 754 304 1047 342 1169 C 344 1177 346 1186 346 1195 C 346 1215 340 1229 328 1239 C 320 1241 306 1243 285 1243 L 88 1243 C 71 1243 63 1273 63 1333 C 63 1376 65 1404 69 1416 C 73 1428 79 1434 88 1434 L 530 1434 C 549 1434 560 1430 564 1423 C 567 1416 569 1400 569 1376 Z M 579 1683 C 577 1673 568 1661 551 1649 L 442 1559 C 389 1513 355 1491 341 1491 C 325 1491 293 1511 243 1552 L 131 1640 C 111 1654 102 1665 102 1673 L 102 1675 L 102 1677 C 102 1686 107 1701 119 1721 L 143 1767 C 145 1783 152 1792 164 1792 C 172 1792 181 1787 192 1777 C 233 1737 266 1706 292 1683 C 317 1659 333 1648 341 1648 C 350 1648 400 1691 491 1779 C 499 1789 508 1794 517 1794 C 527 1794 535 1785 540 1769 L 549 1750 C 569 1715 579 1693 579 1683 Z" unicode="Ž" />
<glyph horiz-adv-x="606" d="M 575 84 L 575 51 C 575 31 572 17 568 10 C 563 3 555 0 545 0 L 78 0 C 68 0 61 2 56 8 C 50 13 47 22 45 36 C 43 50 41 102 41 194 C 41 216 42 230 45 236 L 322 723 C 325 730 327 739 327 749 C 327 771 320 787 307 799 C 299 801 285 803 264 803 L 90 803 C 77 803 68 809 64 821 C 59 833 57 853 57 883 C 57 922 59 948 64 962 C 68 976 75 983 84 983 L 526 983 C 538 983 548 981 554 977 C 560 973 564 965 566 955 C 568 945 569 922 569 887 L 569 853 C 569 804 565 774 559 762 L 272 246 L 269 232 C 269 219 270 208 274 200 C 278 192 283 187 290 185 C 296 183 314 182 344 182 L 545 182 C 565 182 575 149 575 84 Z M 564 1278 C 562 1268 553 1256 536 1244 L 427 1154 C 374 1108 340 1086 326 1086 C 310 1086 278 1106 228 1147 L 116 1235 C 96 1249 87 1260 87 1268 L 87 1270 L 87 1272 C 87 1281 92 1296 104 1316 L 128 1362 C 130 1378 137 1387 149 1387 C 157 1387 166 1382 177 1372 C 218 1332 251 1301 277 1278 C 302 1254 318 1243 326 1243 C 335 1243 385 1286 476 1374 C 484 1384 493 1389 502 1389 C 512 1389 520 1380 525 1364 L 534 1345 C 554 1310 564 1288 564 1278 Z" unicode="ž" />
<glyph horiz-adv-x="1536" d="M 213 236 L 213 453 L 1112 793 L 213 1128 L 213 1343 L 1352 872 L 1352 709 L 213 236 Z M 213 25 L 213 215 L 1348 215 L 1348 25 L 213 25 Z" unicode="≥" />
<glyph horiz-adv-x="1253" d="M 1191 1209 C 1191 1187 1184 1170 1172 1157 C 1160 1143 1142 1133 1118 1127 C 1094 1120 1074 1117 1058 1117 C 1026 1117 998 1130 976 1158 C 954 1186 943 1217 943 1251 C 943 1294 952 1328 970 1352 C 988 1376 1019 1389 1062 1389 C 1085 1389 1106 1383 1126 1371 C 1145 1359 1160 1342 1172 1320 C 1183 1298 1189 1261 1191 1209 Z M 887 856 C 887 797 882 768 873 768 L 860 768 C 807 768 775 766 763 762 C 751 758 745 749 745 733 L 745 37 C 745 20 741 10 733 6 C 725 2 694 0 641 0 C 586 0 554 1 545 5 C 536 9 532 18 532 33 L 532 733 C 532 749 529 760 523 764 C 517 768 501 770 475 770 L 430 770 C 376 770 343 768 332 764 C 320 760 315 749 315 733 L 315 37 C 315 20 311 10 303 6 C 295 2 264 0 211 0 C 156 0 124 1 115 5 C 106 9 102 18 102 33 L 102 733 C 102 749 99 760 93 764 C 87 768 71 770 45 770 C 34 770 28 772 26 776 C 24 780 22 787 21 798 C 20 808 20 828 20 858 C 20 905 21 934 23 946 C 25 957 31 963 41 963 C 58 963 71 963 81 965 C 90 966 96 971 100 981 L 102 1017 L 102 1094 C 102 1176 117 1243 149 1293 C 181 1343 222 1379 272 1401 C 322 1423 376 1434 434 1434 C 441 1434 446 1430 448 1423 C 450 1415 452 1401 452 1379 L 451 1327 C 451 1285 449 1257 447 1243 C 445 1229 439 1223 430 1223 C 409 1223 388 1216 367 1203 C 346 1189 332 1172 325 1152 C 318 1132 315 1099 315 1053 C 315 1017 316 993 319 981 C 322 969 346 963 392 963 L 471 963 C 488 963 501 963 511 965 C 520 966 526 971 530 981 L 532 1017 L 532 1094 C 532 1176 547 1243 579 1293 C 611 1343 652 1379 702 1401 C 752 1423 806 1434 864 1434 C 871 1434 876 1430 878 1423 C 880 1415 882 1401 882 1379 L 881 1327 C 881 1288 880 1261 878 1246 C 876 1230 870 1223 860 1223 C 839 1223 818 1216 796 1202 C 774 1188 760 1169 754 1146 C 748 1122 745 1091 745 1053 C 745 1017 746 993 750 981 C 751 969 775 963 822 963 L 862 963 C 872 963 879 958 882 948 C 885 938 887 908 887 856 Z M 1182 37 C 1182 21 1179 12 1173 8 C 1167 4 1157 1 1142 1 C 1127 0 1102 0 1067 0 C 1023 0 997 0 987 2 C 977 3 971 5 968 9 C 964 12 963 20 963 33 L 963 950 C 963 966 968 975 978 979 C 988 983 1017 985 1067 985 C 1115 985 1144 984 1154 982 C 1164 980 1171 978 1175 974 C 1179 970 1182 962 1182 948 L 1182 37 Z" unicode="ﬃ" />
<glyph horiz-adv-x="481" d="M 461 856 C 461 797 456 768 447 768 L 434 768 C 381 768 349 766 337 762 C 325 758 319 749 319 733 L 319 -18 C 319 -111 307 -183 283 -235 C 259 -286 221 -328 168 -361 C 115 -393 54 -410 -14 -410 C -22 -410 -27 -405 -29 -397 C -31 -389 -33 -375 -33 -355 L -33 -303 C -33 -261 -31 -233 -29 -219 C -27 -205 -21 -199 -12 -199 C 8 -199 33 -186 61 -161 C 89 -135 103 -92 103 -31 L 102 23 L 102 733 C 102 749 99 760 93 764 C 87 768 71 770 45 770 C 34 770 28 772 26 776 C 24 780 22 787 21 798 C 20 808 20 828 20 858 C 20 905 21 934 23 946 C 25 957 31 963 41 963 C 58 963 71 963 81 965 C 90 966 96 971 100 981 L 102 1018 L 102 1096 C 102 1174 114 1236 138 1281 C 162 1326 197 1363 244 1391 C 290 1419 355 1434 438 1434 C 445 1434 450 1430 452 1423 C 454 1415 456 1401 456 1379 L 455 1327 C 455 1288 454 1261 452 1246 C 450 1230 444 1223 434 1223 C 417 1223 401 1218 386 1208 C 370 1198 357 1186 346 1171 C 334 1155 327 1142 324 1130 C 320 1118 319 1092 319 1051 C 319 1016 320 993 324 981 C 325 969 349 963 396 963 L 436 963 C 446 963 453 958 456 948 C 459 938 461 908 461 856 Z" unicode="ƒ" />
<glyph horiz-adv-x="1536" d="M 76 0 L 651 1536 L 885 1536 L 1456 0 L 76 0 Z M 352 147 L 1163 147 L 752 1255 L 352 147 Z" unicode="Δ" />
<glyph horiz-adv-x="647" d="M 49 0 C -5 0 -33 7 -33 23 L -31 31 C 125 461 295 920 477 1407 C 483 1426 518 1436 580 1436 C 611 1436 635 1432 653 1426 C 670 1420 679 1412 679 1402 L 678 1395 L 170 33 C 162 11 121 0 49 0 Z" unicode="⁄" />
<glyph horiz-adv-x="1663" d="M 831 1376 C 705 1376 598 1328 510 1234 C 421 1139 377 1006 377 836 C 377 673 406 538 465 432 C 523 325 610 241 725 180 L 725 0 L 88 0 L 88 197 L 537 197 C 456 225 378 295 304 405 C 230 515 193 663 193 848 C 193 1024 248 1184 358 1330 C 468 1475 626 1548 831 1548 C 1037 1548 1196 1478 1307 1338 C 1417 1198 1473 1034 1473 848 C 1473 663 1435 515 1360 405 C 1284 295 1207 225 1128 197 L 1577 197 L 1577 0 L 940 0 L 940 180 C 1054 241 1141 325 1200 432 C 1258 538 1288 673 1288 836 C 1288 974 1246 1099 1162 1210 C 1078 1320 967 1376 831 1376 Z" unicode="Ω" />
</font>
</defs>
</svg>
