<?xml version="1.0" standalone="no"?>
<!DOCTYPE svg PUBLIC "-//W3C//DTD SVG 1.1//EN" "http://www.w3.org/Graphics/SVG/1.1/DTD/svg11.dtd" >
<svg xmlns="http://www.w3.org/2000/svg">
<metadata>
This is a custom SVG font generated by IcoMoon.
<iconset grid="16"></iconset>
</metadata>
<defs>
<font id="icomoon" horiz-adv-x="512" >
<font-face units-per-em="512" ascent="480" descent="-32" />
<missing-glyph horiz-adv-x="512" />
<glyph class="hidden" unicode="&#xf000;" d="M0,480L 512 -32L0 -32 z" horiz-adv-x="0" />
<glyph unicode="&#xe000;" d="M 167.885,243.593l 23.689,0 l0,63.676 L 219.153,397.056l-24.064,0 l-14.643-61.321l-1.502,0 L 163.55,397.056L 139.674,397.056 l 28.211-92.672L 167.885,243.593 z
			 M 218.112,272.23c0-9.643, 2.765-17.289, 8.294-22.972c 5.495-5.683, 12.902-8.533, 22.084-8.533c 9.54,0, 17.067,2.748, 22.545,8.26
			c 5.427,5.53, 8.158,13.107, 8.158,22.818L 279.194,330.274 c0,8.636-2.782,15.684-8.346,21.163c-5.547,5.478-12.698,8.226-21.419,8.226
			c-9.54,0-17.186-2.611-22.852-7.817c-5.649-5.205-8.499-12.186-8.499-20.924L 218.112,272.23L 218.112,272.23z M 239.77,331.759
			c0,2.475, 0.819,4.471, 2.406,6.007c 1.604,1.519, 3.703,2.287, 6.281,2.287c 2.782,0, 5.018-0.768, 6.724-2.287s 2.56-3.516, 2.56-6.007
			l0-61.662 c0-3.055-0.836-5.427-2.509-7.151c-1.673-1.741-3.925-2.594-6.775-2.594c-2.782,0-4.915,0.836-6.434,2.543
			c-1.502,1.69-2.253,4.096-2.253,7.202L 239.77,331.759 z M 311.774,241.954c 3.942,0, 8.038,1.229, 12.237,3.618s 8.226,5.922, 12.151,10.513l0-12.493 l 21.026,0 
			L 357.188,356.796 l-21.026,0 l0-85.914 c-1.98-2.475-4.164-4.523-6.537-6.11c-2.372-1.57-4.318-2.372-5.905-2.372c-1.963,0-3.396,0.614-4.267,1.775
			c-0.905,1.229-1.331,3.157-1.331,5.854L 318.123,356.796 l-21.026,0 l0-94.635 c0-6.741, 1.229-11.793, 3.703-15.189
			C 303.241,243.627, 306.91,241.954, 311.774,241.954z M 287.966,143.428c-1.229,0-2.441-0.324-3.618-0.922s-2.372-1.519-3.516-2.799l0-57.088 
			c 1.399-1.519, 2.714-2.56, 4.028-3.209c 1.297-0.683, 2.662-1.007, 4.113-1.007c 2.082,0, 3.618,0.614, 4.591,1.911
			c 1.007,1.28, 1.468,3.379, 1.468,6.298l0,47.343 c0,3.106-0.614,5.444-1.809,7.031S 290.27,143.428, 287.966,143.428z M 350.601,143.104
			c-2.697,0-4.608-0.836-5.837-2.475c-1.212-1.655-1.758-4.437-1.758-8.26l0-9.284 l 15.070,0 l0,9.284 c0,3.857-0.58,6.622-1.758,8.26
			C 355.106,142.268, 353.229,143.104, 350.601,143.104z M 394.547,182.033c0,22.187-18.125,40.107-40.567,40.107c-31.949,1.331-64.666,1.929-97.997,1.86
			c-33.348,0.051-66.048-0.546-97.997-1.86c-22.391,0-40.585-17.954-40.585-40.107c-1.365-17.527-1.894-35.021-1.843-52.599
			c-0.051-17.527, 0.512-35.055, 1.843-52.617c0-22.135, 18.159-40.090, 40.585-40.090c 31.966-1.348, 64.666-1.929, 97.997-1.843
			c 33.365-0.085, 66.082,0.512, 97.997,1.843c 22.409,0, 40.567,17.988, 40.567,40.090c 1.348,17.527, 1.929,35.055, 1.86,52.617
			C 396.51,146.978, 395.895,164.489, 394.547,182.033z M 178.739,65.178L 159.539,65.178 l0,106.223 L 139.674,171.401 l0,18.022 l 58.914,0 l0-18.022 l-19.849,0 L 178.739,65.178 z M 247.006,65.178
			l-17.050,0 l0,10.103 c-3.157-3.721-6.4-6.571-9.779-8.516c-3.413-1.946-6.724-2.918-9.882-2.918c-3.942,0-6.929,1.365-8.909,4.079
			c-1.997,2.748-2.987,6.81-2.987,12.305L 198.4,156.86 l 17.015,0 l0-70.298 c0-2.185, 0.358-3.772, 1.075-4.727c 0.717-0.973, 1.86-1.451, 3.447-1.451
			c 1.263,0, 2.85,0.666, 4.762,1.946c 1.894,1.263, 3.669,2.918, 5.274,4.898L 229.956,156.86 l 17.050,0 L 247.006,65.178 z M 312.61,84.156
			c0-6.537-1.348-11.52-3.994-14.985c-2.697-3.447-6.554-5.188-11.639-5.188c-3.294,0-6.246,0.666-8.858,1.997s-5.069,3.396-7.287,6.178
			l0-7.014 l-17.22,0 l0,124.228 l 17.22,0 l0-39.97 c 2.321,2.782, 4.693,4.915, 7.322,6.366c 2.577,1.468, 5.205,2.202, 7.817,2.202
			c 5.393,0, 9.54-1.946, 12.373-5.888s 4.25-9.626, 4.25-17.118L 312.61,84.156 z M 375.586,108.851L 342.989,108.851 L 342.989,91.563 c0-4.796, 0.546-8.124, 1.69-10.001
			c 1.126-1.86, 3.055-2.816, 5.751-2.816c 2.85,0, 4.813,0.802, 5.956,2.372c 1.126,1.604, 1.69,5.086, 1.69,10.445l0,6.4 l 17.545,0 l0-6.895 
			c0-9.421-2.116-16.486-6.4-21.231c-4.267-4.71-10.667-7.117-19.132-7.117c-7.629,0-13.653,2.509-18.039,7.543
			c-4.369,5.035-6.571,11.981-6.571,20.821l0,41.148 c0,7.97, 2.406,14.473, 7.219,19.439c 4.796,5.001, 11.025,7.492, 18.688,7.492
			c 7.765,0, 13.773-2.321, 17.988-6.946c 4.181-4.625, 6.263-11.332, 6.263-20.036l0-23.33 L 375.586,108.851 z"  />
<glyph unicode="&#xe001;" d="M 399.241,312.866c-10.53-4.659-21.879-7.817-33.741-9.25c 12.134,7.287, 21.453,18.79, 25.839,32.495c-11.366-6.724-23.927-11.605-37.325-14.251
	c-10.701,11.418-25.975,18.569-42.889,18.569c-32.444,0-58.743-26.317-58.743-58.761c0-4.608, 0.512-9.079, 1.519-13.38
	c-48.845,2.458-92.126,25.822-121.156,61.406c-5.069-8.704-7.953-18.807-7.953-29.577c0-20.378, 10.377-38.366, 26.146-48.913
	c-9.643,0.307-18.705,2.953-26.641,7.356l0-0.717 c0-28.484, 20.258-52.241, 47.172-57.634c-4.932-1.382-10.121-2.048-15.479-2.048
	c-3.789,0-7.475,0.358-11.042,1.041c 7.458-23.364, 29.167-40.346, 54.903-40.806c-20.105-15.77-45.466-25.156-72.994-25.156
	c-4.745,0-9.438,0.273-14.029,0.802c 26.010-16.64, 56.9-26.385, 90.095-26.385c 108.117,0, 167.219,89.532, 167.219,167.219
	c0,2.543-0.051,5.103-0.154,7.578C 381.406,290.714, 391.373,301.073, 399.241,312.866"  />
<glyph unicode="&#xe002;" d="M 259.062,267.348L 82.359,267.348 l 46.895,45.558c 3.088,3.004, 3.161,7.941, 0.157,11.034
		c-3.004,3.088-7.936,3.156-11.034,0.157L 57.689,265.143c-1.499-1.458-2.351-3.453-2.367-5.538s 0.805-4.101, 2.283-5.569l 58.953-58.953
		c 1.526-1.526, 3.521-2.283, 5.517-2.283s 3.997,0.758, 5.517,2.283c 3.046,3.041, 3.046,7.988,0,11.034l-45.631,45.631l 177.1,0 
		c 4.31,0, 7.805,3.495, 7.805,7.805S 263.377,267.348, 259.062,267.348zM 242.145,180.652l 176.713,0 l-46.895-45.558c-3.088-3.009-3.161-7.941-0.162-11.034s 7.941-3.156, 11.034-0.162
		l 60.693,58.958c 1.499,1.452, 2.351,3.453, 2.361,5.533c 0.021,2.090-0.799,4.106-2.283,5.575L 384.653,252.923
		c-1.526,1.526-3.527,2.283-5.517,2.283c-2.001,0-3.997-0.758-5.517-2.283c-3.046-3.035-3.046-7.983,0-11.034l 45.625-45.625L 242.145,196.263 
		c-4.305,0-7.805-3.495-7.805-7.805S 237.84,180.652, 242.145,180.652z" horiz-adv-x="512"  />
<glyph unicode="&#xe003;" d="M 496.606,85.043L 403.456,178.125c 15.087,26.385, 23.825,56.832, 23.825,89.327C 427.247,367.019, 346.146,448.119, 246.477,448.119
	C 146.91,448.119, 65.809,367.019, 65.809,267.383s 81.101-180.702, 180.702-180.702c 45.739,0, 87.518,17.203, 119.33,45.363l 88.849-88.849c 11.571-11.605, 30.31-11.605, 41.847,0
	C 508.075,54.733, 508.109,73.472, 496.606,85.043z M 246.477,139.657c-70.451,0-127.727,57.344-127.727,127.761c0,70.451, 57.276,127.761, 127.727,127.761
	c 70.485,0, 127.761-57.31, 127.761-127.761C 374.272,197.001, 316.996,139.657, 246.477,139.657z" horiz-adv-x="546.133"  />
<glyph unicode="&#xe004;" d="M 379.255,277.606L 132.779,277.606 c-9.728,0-17.63-7.902-17.63-17.63l0-88.832 c0-9.694, 7.885-17.613, 17.63-17.613L 167.987,153.549 l0-35.209 
			c0-9.711, 7.885-17.63, 17.613-17.63l 140.851,0 c 9.711,0, 17.613,7.902, 17.613,17.63l0,35.209 l 35.209,0 c 9.711,0, 17.647,7.902, 17.647,17.613l0,88.832 
			C 396.868,269.705, 388.966,277.606, 379.255,277.606z M 326.434,118.357l-140.851,0 L 185.566,188.757 l 140.851,0 L 326.434,118.357 z M 344.030,347.238L 167.97,347.238 L 167.97,312.013 L 344.030,312.013 L 344.030,347.238 z"  />
<glyph unicode="&#xe005;" d="M 256,480C 114.62,480, 0,365.38, 0,224s 114.62-256, 256-256c 141.38,0, 256,114.62, 256,256
	S 397.369,480, 256,480z M 286.697,187.398l-30.697-30.686l-30.697,30.686l-73.193,73.193l 30.697,30.697l 73.193-73.193l 73.182,73.193l 30.697-30.697
	L 286.697,187.398z"  />
<glyph unicode="&#xe006;" d="M 54.202,399.011L 457.821,399.011L 457.821,340.666L 54.202,340.666zM 54.179,115.782L 457.821,115.782L 457.821,57.46L 54.179,57.46zM 54.179,257.28L 457.821,257.28L 457.821,198.889L 54.179,198.889z"  />
<glyph unicode="&#xe007;" d="M 373.35,316.86L 135.595,316.86 l 120.388-83.507L 373.35,316.86z M 256,195.584l-122.061,85.709
			l0-150.118 l 244.122,0 l0,150.118 L 256,195.584z"  />
<glyph unicode="&#xe008;" d="M 372.154,267.404l-16.524,0 L 355.631,311.017 c0,54.924-44.707,99.631-99.631,99.631c-54.97,0-99.631-44.707-99.631-99.631l0-43.636 L 139.823,267.404 
	c-25.367,0-45.964-20.573-45.964-45.964l0-138.124 c0-25.367, 20.596-45.964, 45.964-45.964L 372.154,37.329 c 25.391,0, 45.964,20.596, 45.964,45.964l0,138.124 C 418.118,246.831, 397.568,267.404, 372.154,267.404z
	 M 256.023,98.63c-29.347,0-53.155,23.785-53.155,53.155s 23.785,53.155, 53.155,53.155s 53.155-23.785, 53.155-53.155S 285.37,98.63, 256.023,98.63z
	 M 313.879,267.404L 198.144,267.404 L 198.144,311.017 c0,31.884, 25.949,57.856, 57.879,57.856s 57.879-25.972, 57.879-57.856L 313.903,267.404 z"  />
<glyph unicode="&#xe009;" d="M 39.096,448.005L 124.010,448.005L 124.010,363.090L 39.096,363.090zM 238.379,448.005L 471.591,448.005L 471.591,363.438L 238.379,363.438zM 39.096,276.127L 124.010,276.127L 124.010,191.213L 39.096,191.213zM 238.379,276.127L 471.581,276.127L 471.581,191.57L 238.379,191.57zM 38.062,97.362L 122.977,97.362L 122.977,12.447L 38.062,12.447zM 237.336,97.362L 470.528,97.362L 470.528,12.786L 237.336,12.786z"  />
<glyph unicode="&#xe00a;" d="M 407.453,373.337L 104.547,373.337 c-11.928,0-21.635-9.712-21.635-21.64l0-187.507 c0-11.928, 9.707-21.64, 21.635-21.64l 21.635,0 L 126.187,74.663 
			l 67.892,67.892l 213.373,0 c 11.933,0, 21.635,9.712, 21.635,21.64L 429.087,351.697 C 429.087,363.624, 419.385,373.337, 407.453,373.337z M 414.663,164.195
			c0-3.986-3.224-7.215-7.215-7.215L 188.108,156.98 l-47.501-47.501l0,47.501 l-36.059,0 c-3.986,0-7.215,3.229-7.215,7.215L 97.332,351.697 
			c0,3.986, 3.229,7.215, 7.215,7.215l 302.9,0 c 3.992,0, 7.215-3.229, 7.215-7.215L 414.668,164.195 z M 198.306,272.368
			c-7.962,0-14.42-6.452-14.42-14.414s 6.457-14.425, 14.42-14.425s 14.425,6.463, 14.425,14.425S 206.268,272.368, 198.306,272.368z M 313.694,272.368
			c-7.962,0-14.42-6.452-14.42-14.414s 6.457-14.425, 14.42-14.425s 14.42,6.463, 14.42,14.425S 321.661,272.368, 313.694,272.368z M 256,272.368
			c-7.962,0-14.425-6.452-14.425-14.414s 6.463-14.425, 14.425-14.425s 14.42,6.463, 14.42,14.425S 263.967,272.368, 256,272.368z" horiz-adv-x="512"  />
<glyph unicode="&#xe00b;" d="M 39.762,440.074L 202.8,440.074L 202.8,277.035L 39.762,277.035zM 309.18,440.074L 472.238,440.074L 472.238,277.035L 309.18,277.035zM 39.762,170.945L 202.8,170.945L 202.8,7.926L 39.762,7.926zM 309.18,170.945L 472.238,170.945L 472.238,7.926L 309.18,7.926z"  />
<glyph unicode="&#xe00c;" d="M 261.010,481.104C 116.846,481.104,0,365.995,0,224c0-142.015, 116.846-257.114, 261.010-257.114
	c 144.153,0, 261.020,115.080, 261.020,257.114C 522.039,365.995, 405.163,481.104, 261.010,481.104z M 195.564,387.529c 9.276,0, 19.697-5.863, 18.773-20.972
	c-0.381-6.174-4.237-23.793-23.672-23.793c-11.405,0-19.305,7.419-18.522,20.4C 172.976,376.415, 182.583,387.218, 195.564,387.529z M 107.199,163.453
	c0,8.092, 3.464,17.619, 10.852,35.589l 21.173,53.579c 2.118,5.632, 6.726,16.555, 6.726,21.143c0,1.416-0.853,4.026-2.62,4.026
	c-1.225,0-3.333-1.375-4.658-2.379c-4.939-3.614-18.482-18.332-18.482-18.332c-1.074-1.185-2.811-1.124-3.795-0.241l-5.17,4.929
	c-1.687,1.636-1.124,3.203-0.321,4.156c 11.395,12.92, 40.88,45.026, 68.357,45.026c 5.993,0, 14.286-2.67, 14.286-13.583
	c0-8.453-5.050-21.223-9.296-31.091l-20.43-49.303l-8.453-22.187c-1.044-2.811-3.062-8.764-3.062-12.007c0-0.612-0.090-4.357, 2.972-4.357
	c 6.756,0, 26.614,22.096, 26.614,22.096c 1.335,1.365, 3.022,1.044, 3.925,0.171l 5.481-5.24c 0.893-0.823, 1.626-2.44, 0.181-4.086
	c0,0-37.105-44.293-66.51-44.293C 112.319,147.069, 107.199,154.288, 107.199,163.453z M 320.482,149.78c-10.702,0-18.241,6.957-17.699,19.125
	c 0.542,12.439, 9.397,22.588, 21.584,22.879c 8.664,0, 18.573-5.501, 17.96-19.687C 342.056,166.295, 338.733,149.78, 320.482,149.78z M 358.069,382.539
	c-3.343,7.389-5.592,11.987-13.613,11.917c-4.578-0.060-9.587-4.357-11.344-6.124c-20.099-20.099-30.69-56.561-37.737-81.237l 29.545,0 
	c 1.807,0, 2.45-1.516, 2.038-2.741l-3.715-10.662c-0.432-1.195-1.456-2.821-3.785-2.821l-28.602,0.512l-27.307-116.385
	c-11.164-42.928-23.1-73.417-44.594-97.732c-16.906-19.366-42.004-31.724-61.41-31.724c-9.838,0-39.293,3.935-39.293,21.584
	c0,13.031, 13.051,23.843, 22.558,23.843c 9.176,0, 13.292-8.684, 14.717-15.049c 2.118-8.794, 5.963-14.125, 13.352-14.125
	c 5.301,0, 10.521,3.042, 18.332,12.89c 8.714,10.973, 20.962,41.984, 28.552,72.423c 6.054,24.255, 35.95,144.083, 35.95,144.083l-22.207-0.291
	c-1.636,0-2.349,1.496-2.018,2.67l 3.383,11.445c 0.341,1.084, 1.616,2.389, 3.122,2.389l 22.247-0.301c 6.676,22.558, 16.665,55.246, 38.44,77.372
	c 15.139,15.159, 35.981,24.466, 57.816,24.466c 18.532,0, 41.763-8.644, 41.763-22.056c0-9.848-9.618-24.144-22.397-24.144
	C 360.799,362.732, 361.341,375.241, 358.069,382.539z M 384.1,149.78c-10.702,0-18.251,6.957-17.699,19.125c 0.532,12.439, 9.387,22.588, 21.574,22.879
	c 8.664,0, 18.583-5.501, 17.96-19.687C 405.675,166.295, 402.352,149.78, 384.1,149.78z M 447.699,149.78c-10.682,0-18.231,6.957-17.689,19.125
	c 0.542,12.439, 9.397,22.588, 21.584,22.879c 8.664,0, 18.583-5.501, 17.96-19.687C 469.313,166.295, 465.97,149.78, 447.699,149.78z" horiz-adv-x="522.039"  />
<glyph unicode="&#xe00d;" d="M 256.023,5.423c-120.529,0-218.577,98.048-218.577,218.577c0,120.529, 98.071,218.554, 218.577,218.554
			c 120.553,0, 218.554-98.048, 218.554-218.554C 474.577,103.447, 376.576,5.423, 256.023,5.423z M 256.023,417.327c-106.612,0-193.35-86.714-193.35-193.327
			c0-106.612, 86.714-193.35, 193.35-193.35c 106.589,0, 193.327,86.714, 193.327,193.35C 449.35,330.589, 362.612,417.327, 256.023,417.327zM 231.82,182.156L 231.82,191.604 c0,10.845, 1.978,19.852, 5.911,27.043c 3.933,7.215, 10.845,14.662, 20.736,22.342
				c 11.753,9.263, 19.34,16.477, 22.714,21.597s 5.097,11.217, 5.097,18.362c0,8.285-2.769,14.639-8.285,19.084c-5.516,4.445-13.475,6.656-23.831,6.656
				c-9.356,0-18.036-1.327-26.042-3.98C 220.113,300.032, 212.34,296.844, 204.753,293.073L 192.303,319.139c 20.038,11.124, 41.472,16.733, 64.349,16.733
				c 19.34,0, 34.653-4.748, 46.010-14.22c 11.311-9.449, 16.966-22.528, 16.966-39.191c0-7.401-1.071-14.010-3.235-19.782
				c-2.188-5.772-5.423-11.241-9.798-16.454c-4.375-5.236-12.009-12.032-22.714-20.433c-9.169-7.215-15.29-13.172-18.409-17.897
				c-3.119-4.724-4.678-11.101-4.678-19.084l0-6.633 L 231.82,182.202 z M 225.745,134.935c0,14.895, 7.238,22.342, 21.737,22.342
				c 7.098,0, 12.544-1.978, 16.291-5.865c 3.724-3.887, 5.609-9.356, 5.609-16.477c0-7.005-1.885-12.567-5.655-16.663
				c-3.793-4.073-9.216-6.121-16.244-6.121s-12.381,1.978-16.105,5.981C 227.631,122.112, 225.745,127.721, 225.745,134.935z"  />
<glyph unicode="&#xe00e;" d="M 212.582,111.104c-29.867,0-51.422,18.876-51.422,41.591c0,22.238, 26.743,40.772, 56.576,40.448c 6.963-0.085, 13.466-1.195, 19.337-3.106
	c 16.196-11.281, 27.819-17.647, 31.113-30.464c 0.614-2.611, 0.956-5.257, 0.956-8.021C 269.141,128.836, 254.532,111.104, 212.582,111.104
	 M 220.416,244.224c-20.002,0.58-39.083,22.409-42.53,48.691c-3.465,26.317, 9.984,46.455, 30.020,45.875c 20.002-0.597, 39.066-21.709, 42.513-48.009
	C 253.867,264.448, 240.435,243.593, 220.416,244.224 M 261.939,205.244c-7.031,4.983-20.446,17.084-20.446,24.183c0,8.346, 2.372,12.442, 14.916,22.238
	c 12.868,10.052, 21.982,24.183, 21.982,40.585c0,19.575-8.721,38.622-25.071,44.937l 24.661,0 l 17.391,12.561l-77.756,0 c-34.85,0-67.669-26.402-67.669-56.986
	c0-31.266, 23.774-56.491, 59.221-56.491c 2.475,0, 4.864,0.051, 7.219,0.222c-2.304-4.403-3.959-9.387-3.959-14.507
	c0-8.687, 4.676-15.735, 10.598-21.47c-4.471,0-8.772-0.137-13.466-0.137c-43.179,0-76.425-27.511-76.425-56.030
	c0-28.075, 36.437-45.653, 79.599-45.653c 49.22,0, 76.425,27.938, 76.425,56.030C 289.143,177.237, 282.487,190.737, 261.939,205.244 M 375.074,241.92l-30.259,0 
	l0,30.276 l-24.371,0 l0-30.276 l-30.259,0 l0-24.354 l 30.259,0 l0-30.276 l 24.371,0 l0,30.276 l 30.259,0 L 375.074,241.92 z"  />
<glyph unicode="&#xe00f;" d="M 196.983,265.438l 25.293,0 l0,24.559 c0,10.837, 0.273,27.563, 8.141,37.922c 8.294,10.94, 19.678,18.415, 39.253,18.415
	c 31.915,0, 45.346-4.557, 45.346-4.557l-6.315-37.478c0,0-10.547,3.055-20.378,3.055s-18.654-3.533-18.654-13.363l0-28.553 l 40.346,0 l-2.816-36.608
	l-37.513,0 l0-127.147 l-47.394,0 l0,127.147 l-25.293,0 L 196.983,265.438 z"  />
<glyph unicode="&#xe010;" d="M 425.658,351.139L 383.023,393.775L 255.744,266.473L 128.721,393.495L 86.086,350.86L 213.108,223.86L 86.365,97.117L 129.001,54.481L 255.744,181.225L 382.72,54.179L 425.379,96.838L 298.356,223.86 z"  />
<glyph unicode="&#xe011;" d="M 209.22,157.863c-0.277,0-0.549,0.021-0.82,0.047c-2.247,0.24-4.284,1.437-5.575,3.297l-31.201,44.763
		c-2.466,3.537-1.599,8.401, 1.938,10.862c 3.547,2.466, 8.401,1.593, 10.862-1.933l 26.049-37.376l 118.225,110.508
		c 3.145,2.936, 8.088,2.774, 11.029-0.376s 2.779-8.088-0.371-11.024L 214.549,159.969C 213.096,158.61, 211.19,157.863, 209.22,157.863zM 256,369.351c 80.274,0, 145.34-65.076, 145.34-145.34c0-80.28-65.071-145.345-145.34-145.345
	s-145.345,65.071-145.345,145.345C 110.655,304.274, 175.731,369.351, 256,369.351 M 256,384.956c-88.754,0-160.951-72.202-160.951-160.946
	c0-88.754, 72.197-160.951, 160.951-160.951c 88.748,0, 160.946,72.202, 160.946,160.951C 416.951,312.754, 344.748,384.956, 256,384.956L 256,384.956z" horiz-adv-x="512"  />
<glyph unicode="&#xe012;" d="M 145.075,58.829c-0.666,0-1.331,0.051-2.022,0.102c-5.555,0.589-10.624,3.558-13.798,8.166l-77.261,110.797
	c-6.093,8.806-3.968,20.838, 4.813,26.957c 8.781,6.093, 20.787,3.917, 26.906-4.813l 64.486-92.544L 440.909,381.133
	c 7.834,7.27, 20.045,6.861, 27.315-0.947c 7.27-7.782, 6.861-20.019-0.922-27.264L 158.31,64.051C 154.675,60.672, 149.965,58.829, 145.075,58.829z"  />
<glyph unicode="&#xe013;" d="M 80.839,127.82L 256,302.981L 431.142,127.82L 439.732,136.429L 264.571,311.571L 264.59,311.571L 256,320.18L 247.41,311.571L 72.249,136.429 z"  />
<glyph unicode="&#xe014;" d="M 159.801,399.142L 334.981,223.981L 159.801,48.82L 168.41,40.249L 343.533,215.41L 343.533,215.391L 352.142,223.981L 343.533,232.571L 168.41,407.732 z"  />
<glyph unicode="&#xe015;" d="M 352.104,48.858L 176.962,224.019L 352.104,399.18L 343.514,407.751L 168.391,232.59L 168.391,232.609L 159.782,224.019L 168.391,215.429L 343.514,40.268 z"  />
<glyph unicode="&#xe016;" d="M 431.161,320.218L 256,145.038L 80.858,320.218L 72.268,311.609L 247.429,136.448L 247.41,136.448L 256,127.839L 264.59,136.448L 439.751,311.609 z"  />
<glyph unicode="&#x20;" horiz-adv-x="256" />
</font>
</defs>
</svg>
